<svg xmlns="http://www.w3.org/2000/svg" xmlns:xlink="http://www.w3.org/1999/xlink" width="222" zoomAndPan="magnify" viewBox="0 0 166.5 66" height="88" preserveAspectRatio="xMidYMid meet" version="1.0"><defs><g/><clipPath id="8efda931cc"><path d="M 2.855469 45 L 8 45 L 8 53 L 2.855469 53 Z M 2.855469 45 " clip-rule="nonzero"/></clipPath><clipPath id="be6d4bd31b"><path d="M 10 28.347656 L 54 28.347656 L 54 29 L 10 29 Z M 10 28.347656 " clip-rule="nonzero"/></clipPath><clipPath id="a0e7ded95d"><path d="M 2.855469 30 L 11 30 L 11 42 L 2.855469 42 Z M 2.855469 30 " clip-rule="nonzero"/></clipPath><clipPath id="afa387578e"><path d="M 160 32 L 164.230469 32 L 164.230469 42 L 160 42 Z M 160 32 " clip-rule="nonzero"/></clipPath><clipPath id="a20c61cf86"><path d="M 137 44 L 143 44 L 143 44.050781 L 137 44.050781 Z M 137 44 " clip-rule="nonzero"/></clipPath><clipPath id="c5804a3bf2"><rect x="0" width="165" y="0" height="30"/></clipPath></defs><g clip-path="url(#8efda931cc)"><path fill="#000000" d="M 5.074219 52.636719 C 3.941406 52.636719 3.421875 52.332031 3.117188 52.332031 C 2.988281 52.332031 2.855469 52.332031 2.855469 52.332031 C 2.855469 52.332031 2.898438 51.761719 2.898438 51.367188 C 2.898438 50.972656 2.855469 50.445312 2.855469 50.445312 L 3.421875 50.445312 C 3.421875 51.453125 3.941406 51.9375 4.988281 51.9375 C 5.769531 51.9375 6.378906 51.675781 6.378906 50.882812 C 6.378906 50.140625 5.507812 49.921875 4.597656 49.527344 C 3.769531 49.175781 2.988281 48.691406 2.988281 47.550781 C 2.988281 46.324219 3.988281 45.710938 5.421875 45.710938 C 6.207031 45.710938 6.726562 45.886719 7.074219 45.886719 C 7.207031 45.886719 7.335938 45.886719 7.335938 45.886719 C 7.335938 45.886719 7.292969 46.367188 7.292969 46.71875 C 7.292969 47.113281 7.335938 47.550781 7.335938 47.550781 L 6.726562 47.550781 C 6.726562 46.71875 6.335938 46.367188 5.378906 46.367188 C 4.640625 46.367188 4.160156 46.589844 4.160156 47.203125 C 4.160156 47.902344 4.898438 48.167969 5.769531 48.515625 C 6.683594 48.910156 7.683594 49.304688 7.683594 50.402344 C 7.683594 51.9375 6.378906 52.636719 5.074219 52.636719 Z M 5.074219 52.636719 " fill-opacity="1" fill-rule="nonzero"/></g><path fill="#000000" d="M 14.382812 47.726562 C 14.382812 46.9375 14.253906 46.5 12.902344 46.5 C 12.46875 46.5 12.292969 46.542969 12.207031 46.542969 L 12.207031 51.148438 C 12.207031 51.894531 12.6875 51.9375 13.164062 51.9375 L 13.164062 52.550781 C 12.816406 52.550781 12.164062 52.507812 11.554688 52.507812 C 10.945312 52.507812 10.292969 52.550781 9.945312 52.550781 L 9.945312 51.9375 C 10.425781 51.9375 10.902344 51.894531 10.902344 51.148438 L 10.902344 46.542969 C 10.816406 46.542969 10.554688 46.5 10.164062 46.5 C 8.816406 46.5 8.773438 46.9375 8.773438 47.726562 L 8.207031 47.726562 C 8.207031 47.726562 8.25 47.113281 8.25 46.761719 C 8.25 46.414062 8.207031 45.800781 8.207031 45.800781 C 8.816406 45.84375 10.597656 45.84375 11.554688 45.84375 C 12.511719 45.84375 14.296875 45.84375 14.949219 45.800781 C 14.949219 45.800781 14.90625 46.367188 14.90625 46.761719 C 14.90625 47.15625 14.949219 47.726562 14.949219 47.726562 Z M 14.382812 47.726562 " fill-opacity="1" fill-rule="nonzero"/><path fill="#000000" d="M 20.820312 52.507812 C 20.210938 52.507812 19.6875 52.550781 19.296875 52.550781 L 19.296875 51.9375 C 19.820312 51.9375 20.167969 51.804688 19.90625 51.234375 L 19.429688 50.140625 L 16.773438 50.140625 L 16.382812 51.015625 C 16.121094 51.585938 16.296875 51.980469 17.035156 51.980469 L 17.035156 52.59375 C 16.6875 52.59375 16.339844 52.550781 15.730469 52.550781 C 15.121094 52.550781 14.773438 52.59375 14.425781 52.59375 L 14.425781 51.980469 C 14.90625 51.980469 15.253906 51.804688 15.601562 51.148438 L 17.90625 45.886719 L 18.949219 45.886719 L 21.296875 51.234375 C 21.515625 51.71875 21.777344 51.980469 22.300781 51.980469 L 22.300781 52.59375 C 21.996094 52.550781 21.429688 52.507812 20.820312 52.507812 Z M 18.167969 47.070312 L 17.078125 49.527344 L 19.210938 49.527344 Z M 18.167969 47.070312 " fill-opacity="1" fill-rule="nonzero"/><path fill="#000000" d="M 28.039062 47.726562 C 28.039062 46.9375 27.910156 46.5 26.5625 46.5 C 26.125 46.5 25.953125 46.542969 25.867188 46.542969 L 25.867188 51.148438 C 25.867188 51.894531 26.34375 51.9375 26.824219 51.9375 L 26.824219 52.550781 C 26.476562 52.550781 25.824219 52.507812 25.214844 52.507812 C 24.605469 52.507812 23.953125 52.550781 23.605469 52.550781 L 23.605469 51.9375 C 24.082031 51.9375 24.5625 51.894531 24.5625 51.148438 L 24.5625 46.542969 C 24.472656 46.542969 24.214844 46.5 23.820312 46.5 C 22.472656 46.5 22.429688 46.9375 22.429688 47.726562 L 21.863281 47.726562 C 21.863281 47.726562 21.90625 47.113281 21.90625 46.761719 C 21.90625 46.414062 21.863281 45.800781 21.863281 45.800781 C 22.472656 45.84375 24.257812 45.84375 25.214844 45.84375 C 26.171875 45.84375 27.953125 45.84375 28.605469 45.800781 C 28.605469 45.800781 28.5625 46.367188 28.5625 46.761719 C 28.5625 47.15625 28.605469 47.726562 28.605469 47.726562 Z M 28.039062 47.726562 " fill-opacity="1" fill-rule="nonzero"/><path fill="#000000" d="M 33.390625 52.507812 C 32.695312 52.507812 31.957031 52.507812 31.171875 52.507812 C 30.5625 52.507812 29.953125 52.550781 29.648438 52.550781 L 29.648438 51.9375 C 30.128906 51.9375 30.519531 51.894531 30.519531 51.148438 L 30.519531 47.246094 C 30.519531 46.5 30.042969 46.457031 29.519531 46.457031 L 29.519531 45.84375 C 29.867188 45.84375 30.5625 45.84375 31.171875 45.84375 C 31.695312 45.84375 32.433594 45.84375 33.21875 45.84375 C 34 45.84375 34.609375 45.84375 35.128906 45.84375 C 35.128906 45.84375 35.085938 46.28125 35.085938 46.675781 C 35.085938 47.070312 35.128906 47.507812 35.128906 47.507812 L 34.566406 47.507812 C 34.566406 46.675781 34.261719 46.542969 33 46.542969 C 32.5625 46.542969 32.085938 46.589844 31.78125 46.589844 L 31.78125 48.824219 L 32.652344 48.824219 C 33.652344 48.824219 33.871094 48.691406 33.871094 47.992188 L 34.433594 47.992188 C 34.433594 48.167969 34.390625 48.738281 34.390625 49.175781 C 34.390625 49.613281 34.433594 50.226562 34.433594 50.359375 L 33.871094 50.359375 C 33.871094 49.570312 33.652344 49.480469 32.652344 49.480469 L 31.78125 49.480469 L 31.78125 51.191406 C 31.78125 51.804688 32.390625 51.9375 33.390625 51.9375 C 34.652344 51.9375 34.914062 51.761719 34.914062 50.839844 L 35.480469 50.839844 C 35.480469 50.839844 35.433594 51.324219 35.433594 51.71875 C 35.433594 52.113281 35.480469 52.59375 35.480469 52.59375 C 35.085938 52.550781 34.128906 52.507812 33.390625 52.507812 Z M 33.390625 52.507812 " fill-opacity="1" fill-rule="nonzero"/><path fill="#000000" d="M 46.65625 47.289062 L 46.65625 50.050781 C 46.65625 51.71875 45.394531 52.550781 43.742188 52.550781 C 41.785156 52.550781 40.566406 51.804688 40.566406 50.050781 L 40.566406 47.203125 C 40.566406 46.457031 40.175781 46.414062 39.699219 46.414062 L 39.699219 45.800781 C 40.046875 45.800781 40.613281 45.84375 41.21875 45.84375 C 41.828125 45.84375 42.351562 45.800781 42.699219 45.800781 L 42.699219 46.414062 C 42.222656 46.414062 41.828125 46.457031 41.828125 47.203125 L 41.828125 49.746094 C 41.828125 51.105469 42.613281 51.71875 43.832031 51.71875 C 45.179688 51.71875 45.832031 51.105469 45.832031 49.746094 L 45.832031 47.289062 C 45.832031 46.632812 45.394531 46.414062 44.785156 46.414062 L 44.785156 45.800781 C 45.136719 45.800781 45.570312 45.84375 46.179688 45.84375 C 46.789062 45.84375 47.222656 45.800781 47.570312 45.800781 L 47.570312 46.414062 C 47.003906 46.414062 46.65625 46.632812 46.65625 47.289062 Z M 46.65625 47.289062 " fill-opacity="1" fill-rule="nonzero"/><path fill="#000000" d="M 55.355469 47.289062 L 55.355469 52.507812 L 54.617188 52.507812 L 50.355469 47.640625 L 50.355469 51.015625 C 50.355469 51.675781 50.789062 51.894531 51.398438 51.894531 L 51.398438 52.507812 C 51.050781 52.507812 50.570312 52.464844 50.007812 52.464844 C 49.441406 52.464844 48.960938 52.507812 48.660156 52.507812 L 48.660156 51.894531 C 49.265625 51.894531 49.660156 51.675781 49.660156 51.015625 L 49.660156 47.289062 C 49.660156 46.632812 49.09375 46.414062 48.398438 46.414062 L 48.398438 45.800781 C 48.570312 45.800781 49.007812 45.800781 49.527344 45.800781 C 50.007812 45.800781 50.441406 45.800781 50.617188 45.800781 L 54.703125 50.316406 L 54.703125 47.289062 C 54.703125 46.632812 54.269531 46.414062 53.660156 46.414062 L 53.660156 45.800781 C 54.007812 45.800781 54.445312 45.84375 55.007812 45.84375 C 55.617188 45.84375 56.007812 45.800781 56.402344 45.800781 L 56.402344 46.414062 C 55.703125 46.414062 55.355469 46.632812 55.355469 47.289062 Z M 55.355469 47.289062 " fill-opacity="1" fill-rule="nonzero"/><path fill="#000000" d="M 58.488281 52.507812 C 57.878906 52.507812 57.269531 52.550781 57.007812 52.550781 L 57.007812 51.9375 C 57.488281 51.9375 57.878906 51.894531 57.878906 51.148438 L 57.878906 47.246094 C 57.878906 46.5 57.488281 46.457031 57.007812 46.457031 L 57.007812 45.84375 C 57.359375 45.84375 57.921875 45.886719 58.53125 45.886719 C 59.140625 45.886719 59.75 45.84375 60.011719 45.84375 L 60.011719 46.457031 C 59.53125 46.457031 59.140625 46.5 59.140625 47.246094 L 59.140625 51.148438 C 59.140625 51.894531 59.53125 51.9375 60.011719 51.9375 L 60.011719 52.550781 C 59.664062 52.550781 59.097656 52.507812 58.488281 52.507812 Z M 58.488281 52.507812 " fill-opacity="1" fill-rule="nonzero"/><path fill="#000000" d="M 67.058594 47.289062 L 64.753906 52.550781 L 64.054688 52.550781 L 61.707031 47.203125 C 61.488281 46.71875 61.183594 46.457031 60.664062 46.457031 L 60.664062 45.84375 C 61.011719 45.84375 61.578125 45.886719 62.1875 45.886719 C 62.792969 45.886719 63.359375 45.84375 63.707031 45.84375 L 63.707031 46.457031 C 63.1875 46.457031 62.839844 46.542969 63.144531 47.15625 L 64.707031 50.839844 L 66.1875 47.378906 C 66.449219 46.808594 66.230469 46.414062 65.492188 46.414062 L 65.492188 45.800781 C 65.839844 45.800781 66.1875 45.84375 66.796875 45.84375 C 67.40625 45.84375 67.753906 45.800781 68.101562 45.800781 L 68.101562 46.414062 C 67.667969 46.414062 67.363281 46.589844 67.058594 47.289062 Z M 67.058594 47.289062 " fill-opacity="1" fill-rule="nonzero"/><path fill="#000000" d="M 72.625 52.507812 C 71.929688 52.507812 71.191406 52.507812 70.40625 52.507812 C 69.796875 52.507812 69.1875 52.550781 68.882812 52.550781 L 68.882812 51.9375 C 69.363281 51.9375 69.753906 51.894531 69.753906 51.148438 L 69.753906 47.246094 C 69.753906 46.5 69.277344 46.457031 68.753906 46.457031 L 68.753906 45.84375 C 69.101562 45.84375 69.796875 45.84375 70.40625 45.84375 C 70.929688 45.84375 71.667969 45.84375 72.449219 45.84375 C 73.234375 45.84375 73.84375 45.84375 74.363281 45.84375 C 74.363281 45.84375 74.320312 46.28125 74.320312 46.675781 C 74.320312 47.070312 74.363281 47.507812 74.363281 47.507812 L 73.800781 47.507812 C 73.800781 46.675781 73.496094 46.542969 72.234375 46.542969 C 71.796875 46.542969 71.320312 46.589844 71.058594 46.589844 L 71.058594 48.824219 L 71.929688 48.824219 C 72.929688 48.824219 73.148438 48.691406 73.148438 47.992188 L 73.710938 47.992188 C 73.710938 48.167969 73.667969 48.738281 73.667969 49.175781 C 73.667969 49.613281 73.710938 50.226562 73.710938 50.359375 L 73.148438 50.359375 C 73.148438 49.570312 72.929688 49.480469 71.929688 49.480469 L 71.058594 49.480469 L 71.058594 51.191406 C 71.058594 51.804688 71.667969 51.9375 72.667969 51.9375 C 73.929688 51.9375 74.191406 51.761719 74.191406 50.839844 L 74.757812 50.839844 C 74.757812 50.839844 74.710938 51.324219 74.710938 51.71875 C 74.710938 52.113281 74.757812 52.59375 74.757812 52.59375 C 74.320312 52.550781 73.363281 52.507812 72.625 52.507812 Z M 72.625 52.507812 " fill-opacity="1" fill-rule="nonzero"/><path fill="#000000" d="M 81.714844 52.59375 C 80.847656 52.59375 80.28125 52.242188 79.714844 51.453125 C 79.367188 50.929688 79.148438 50.578125 78.671875 49.875 C 78.582031 49.875 78.28125 49.875 78.0625 49.832031 C 77.84375 49.832031 77.671875 49.789062 77.671875 49.789062 L 77.671875 51.105469 C 77.671875 51.847656 78.0625 51.894531 78.539062 51.894531 L 78.539062 52.507812 C 78.191406 52.507812 77.628906 52.464844 77.019531 52.464844 C 76.410156 52.464844 75.84375 52.507812 75.496094 52.507812 L 75.496094 51.894531 C 75.972656 51.894531 76.367188 51.847656 76.367188 51.105469 L 76.367188 47.203125 C 76.367188 46.457031 75.886719 46.414062 75.410156 46.414062 L 75.410156 45.800781 C 75.757812 45.800781 76.453125 45.800781 77.0625 45.800781 C 77.582031 45.800781 77.976562 45.800781 78.933594 45.800781 C 80.585938 45.800781 81.367188 46.542969 81.367188 47.597656 C 81.367188 48.515625 80.628906 49.132812 79.933594 49.4375 C 80.191406 49.789062 80.542969 50.269531 80.933594 50.796875 C 81.457031 51.410156 82.019531 51.9375 82.367188 51.9375 C 82.410156 51.9375 82.5 51.9375 82.5 51.9375 L 82.5 52.507812 C 82.5 52.507812 82.195312 52.59375 81.714844 52.59375 Z M 78.496094 46.457031 C 78.105469 46.457031 77.84375 46.457031 77.671875 46.5 L 77.671875 49.261719 C 77.84375 49.304688 78.28125 49.351562 78.714844 49.351562 C 79.410156 49.351562 79.933594 48.867188 79.933594 47.902344 C 79.933594 46.808594 79.28125 46.457031 78.496094 46.457031 Z M 78.496094 46.457031 " fill-opacity="1" fill-rule="nonzero"/><path fill="#000000" d="M 85.28125 52.636719 C 84.152344 52.636719 83.628906 52.332031 83.324219 52.332031 C 83.195312 52.332031 83.066406 52.332031 83.066406 52.332031 C 83.066406 52.332031 83.109375 51.761719 83.109375 51.367188 C 83.109375 50.972656 83.066406 50.445312 83.066406 50.445312 L 83.628906 50.445312 C 83.628906 51.453125 84.152344 51.9375 85.195312 51.9375 C 85.980469 51.9375 86.589844 51.675781 86.589844 50.882812 C 86.589844 50.140625 85.71875 49.921875 84.804688 49.527344 C 83.976562 49.175781 83.152344 48.691406 83.152344 47.550781 C 83.152344 46.324219 84.152344 45.710938 85.585938 45.710938 C 86.371094 45.710938 86.890625 45.886719 87.238281 45.886719 C 87.371094 45.886719 87.5 45.886719 87.5 45.886719 C 87.5 45.886719 87.457031 46.367188 87.457031 46.71875 C 87.457031 47.113281 87.5 47.550781 87.5 47.550781 L 86.933594 47.550781 C 86.933594 46.71875 86.542969 46.367188 85.585938 46.367188 C 84.847656 46.367188 84.371094 46.589844 84.371094 47.203125 C 84.371094 47.902344 85.109375 48.167969 85.980469 48.515625 C 86.890625 48.910156 87.894531 49.304688 87.894531 50.402344 C 87.894531 51.9375 86.589844 52.636719 85.28125 52.636719 Z M 85.28125 52.636719 " fill-opacity="1" fill-rule="nonzero"/><path fill="#000000" d="M 90.242188 52.507812 C 89.632812 52.507812 89.023438 52.550781 88.761719 52.550781 L 88.761719 51.9375 C 89.242188 51.9375 89.632812 51.894531 89.632812 51.148438 L 89.632812 47.246094 C 89.632812 46.5 89.242188 46.457031 88.761719 46.457031 L 88.761719 45.84375 C 89.109375 45.84375 89.675781 45.886719 90.285156 45.886719 C 90.894531 45.886719 91.503906 45.84375 91.765625 45.84375 L 91.765625 46.457031 C 91.285156 46.457031 90.894531 46.5 90.894531 47.246094 L 90.894531 51.148438 C 90.894531 51.894531 91.285156 51.9375 91.765625 51.9375 L 91.765625 52.550781 C 91.417969 52.550781 90.851562 52.507812 90.242188 52.507812 Z M 90.242188 52.507812 " fill-opacity="1" fill-rule="nonzero"/><path fill="#000000" d="M 98.722656 47.726562 C 98.722656 46.9375 98.59375 46.5 97.246094 46.5 C 96.808594 46.5 96.636719 46.542969 96.546875 46.542969 L 96.546875 51.148438 C 96.546875 51.894531 97.027344 51.9375 97.503906 51.9375 L 97.503906 52.550781 C 97.15625 52.550781 96.503906 52.507812 95.894531 52.507812 C 95.289062 52.507812 94.636719 52.550781 94.285156 52.550781 L 94.285156 51.9375 C 94.765625 51.9375 95.242188 51.894531 95.242188 51.148438 L 95.242188 46.542969 C 95.15625 46.542969 94.9375 46.5 94.503906 46.5 C 93.15625 46.5 93.113281 46.9375 93.113281 47.726562 L 92.546875 47.726562 C 92.546875 47.726562 92.589844 47.113281 92.589844 46.761719 C 92.589844 46.414062 92.546875 45.800781 92.546875 45.800781 C 93.15625 45.84375 94.9375 45.84375 95.894531 45.84375 C 96.851562 45.84375 98.636719 45.84375 99.289062 45.800781 C 99.289062 45.800781 99.246094 46.367188 99.246094 46.761719 C 99.246094 47.15625 99.289062 47.726562 99.289062 47.726562 Z M 98.722656 47.726562 " fill-opacity="1" fill-rule="nonzero"/><path fill="#000000" d="M 106.03125 47.15625 L 104.335938 49.21875 L 104.335938 51.148438 C 104.335938 51.894531 104.8125 51.9375 105.292969 51.9375 L 105.292969 52.550781 C 104.941406 52.550781 104.292969 52.507812 103.683594 52.507812 C 103.074219 52.507812 102.421875 52.550781 102.074219 52.550781 L 102.074219 51.9375 C 102.550781 51.9375 103.03125 51.894531 103.03125 51.148438 L 103.03125 49.65625 L 100.941406 47.027344 C 100.636719 46.632812 100.289062 46.457031 99.941406 46.457031 L 99.941406 45.84375 C 100.289062 45.84375 100.984375 45.886719 101.59375 45.886719 C 102.203125 45.886719 102.8125 45.84375 103.203125 45.84375 L 103.203125 46.457031 C 102.769531 46.457031 102.59375 46.542969 102.59375 46.761719 C 102.59375 46.894531 102.683594 47.070312 102.855469 47.203125 L 103.988281 48.648438 L 105.117188 47.246094 C 105.203125 47.113281 105.292969 46.984375 105.292969 46.851562 C 105.292969 46.632812 105.117188 46.457031 104.683594 46.457031 L 104.683594 45.84375 C 105.03125 45.84375 105.421875 45.886719 106.03125 45.886719 C 106.640625 45.886719 106.988281 45.84375 107.335938 45.84375 L 107.335938 46.457031 C 106.8125 46.457031 106.507812 46.589844 106.03125 47.15625 Z M 106.03125 47.15625 " fill-opacity="1" fill-rule="nonzero"/><g clip-path="url(#be6d4bd31b)"><path fill="#000000" d="M 50.617188 22.222656 L 50.617188 16.785156 L 50.050781 16.613281 L 50.050781 13.28125 C 50.050781 13.28125 49.527344 12.535156 48.265625 11.570312 L 48.308594 11.570312 L 48.308594 10.824219 C 48.308594 10.824219 47.832031 10.429688 47.484375 10.167969 C 46.570312 7.273438 44.699219 4.335938 42.308594 2.011719 C 40.351562 0.0820312 38.046875 -1.40625 35.738281 -2.109375 C 35.738281 -2.679688 35.042969 -3.160156 33.914062 -3.46875 C 33.261719 -4.566406 33.21875 -5.792969 33.21875 -5.792969 L 32.78125 -5.96875 L 32.609375 -6.492188 L 33.128906 -6.933594 C 33.128906 -6.933594 32.5625 -8.378906 31.957031 -8.378906 C 31.347656 -8.378906 30.78125 -6.933594 30.78125 -6.933594 L 31.304688 -6.492188 L 31.128906 -5.96875 L 30.695312 -5.792969 C 30.695312 -5.792969 30.652344 -4.695312 29.996094 -3.46875 C 28.953125 -3.207031 28.386719 -2.722656 28.300781 -2.152344 C 28.257812 -2.152344 28.214844 -2.109375 28.171875 -2.109375 C 25.910156 -1.363281 23.605469 0.125 21.601562 2.011719 C 19.253906 4.292969 17.382812 7.140625 16.46875 10.035156 C 16.121094 10.296875 15.601562 10.738281 15.601562 10.738281 L 15.601562 11.480469 L 15.644531 11.480469 C 14.296875 12.492188 13.730469 13.28125 13.730469 13.28125 L 13.730469 16.523438 L 13.164062 16.699219 L 13.164062 22.179688 L 10.511719 22.835938 L 10.511719 26.300781 L 11.292969 26.652344 L 11.292969 28.054688 L 32.476562 28.054688 L 32.476562 23.230469 L 52.441406 28.1875 L 52.441406 26.695312 L 53.183594 26.34375 L 53.183594 22.835938 Z M 41.046875 19.8125 L 41.046875 14.769531 L 43.828125 15.601562 C 43.917969 13.804688 44.875 12.710938 46.003906 12.710938 C 47.179688 12.710938 48.136719 14.375 48.09375 16.347656 C 48.09375 16.523438 48.050781 16.699219 48.050781 16.832031 L 49.789062 17.355469 L 49.789062 22.003906 Z M 46.179688 10.253906 C 44.613281 9.421875 42.523438 8.542969 39.828125 7.972656 C 38.828125 4.027344 36.828125 -0.136719 34.476562 -1.933594 C 38.652344 -1.011719 44.351562 3.851562 46.179688 10.253906 Z M 32 -2.242188 C 33.21875 -2.242188 36.390625 -1.101562 38.609375 7.753906 C 36.695312 7.40625 34.476562 7.230469 31.910156 7.230469 C 29.433594 7.230469 27.257812 7.40625 25.34375 7.753906 C 27.605469 -1.101562 30.78125 -2.242188 32 -2.242188 Z M 23.167969 7.316406 C 23.167969 7.316406 25.039062 0.828125 29.476562 -1.933594 L 29.519531 -1.933594 C 27.171875 -0.136719 25.167969 4.027344 24.167969 7.929688 C 21.472656 8.5 19.429688 9.289062 17.863281 10.121094 C 17.949219 9.683594 18.078125 9.378906 18.167969 9.203125 C 20.558594 8.019531 23.167969 7.316406 23.167969 7.316406 Z M 31.957031 8.0625 C 44.960938 8.0625 49.3125 13.542969 49.3125 13.542969 L 49.3125 16.390625 L 48.832031 16.261719 C 48.875 14.945312 48.441406 13.675781 47.703125 12.886719 C 47.179688 12.316406 46.527344 12.007812 45.832031 12.007812 C 44.613281 12.007812 43.65625 13.015625 43.222656 14.59375 L 40.65625 13.847656 L 37 13.847656 C 36.828125 11.042969 34.78125 9.070312 32 9.070312 C 29.214844 9.070312 27.171875 11.085938 26.996094 13.847656 L 23.082031 13.847656 L 21.691406 14.242188 L 21.691406 11.085938 C 20.601562 11.4375 19.601562 11.789062 18.6875 12.140625 C 18.429688 12.050781 18.167969 11.964844 17.90625 11.964844 C 17.296875 11.964844 16.6875 12.226562 16.210938 12.710938 C 15.992188 12.929688 15.773438 13.234375 15.601562 13.542969 C 15.164062 13.761719 14.773438 13.980469 14.511719 14.15625 L 14.511719 13.542969 C 14.554688 13.542969 18.949219 8.0625 31.957031 8.0625 Z M 17.820312 19.328125 C 16.773438 19.328125 15.730469 18.277344 15.730469 16.21875 C 15.730469 14.242188 16.601562 12.710938 17.863281 12.710938 C 18.992188 12.710938 19.863281 14.070312 19.90625 15.515625 L 22.777344 14.726562 L 22.777344 19.769531 L 18.339844 20.863281 L 18.339844 19.15625 C 18.167969 19.328125 17.992188 19.328125 17.820312 19.328125 Z M 31.390625 22.488281 L 12.164062 27.222656 L 12.164062 26.476562 L 31.433594 21.652344 L 31.433594 22.488281 Z M 23.605469 19.636719 L 23.605469 14.636719 L 27.824219 14.636719 C 27.824219 14.464844 27.78125 14.289062 27.78125 14.113281 C 27.78125 13.28125 27.996094 12.535156 28.386719 11.875 C 28.691406 11.351562 29.128906 10.867188 29.605469 10.5625 C 30.300781 10.078125 31.128906 9.816406 32 9.816406 C 34.347656 9.816406 36.261719 11.746094 36.261719 14.15625 C 36.261719 14.332031 36.261719 14.507812 36.21875 14.683594 L 40.175781 14.683594 L 40.175781 19.636719 L 31.910156 17.578125 Z M 52.484375 26.039062 L 32 20.953125 L 32 18.453125 L 52.484375 23.539062 Z M 52.484375 26.039062 " fill-opacity="1" fill-rule="nonzero"/></g><g clip-path="url(#a0e7ded95d)"><path fill="#000000" d="M 6.160156 41.644531 C 4.550781 41.644531 3.941406 41.164062 3.378906 41.164062 C 3.289062 41.164062 2.898438 41.164062 2.898438 41.164062 C 2.898438 41.164062 2.941406 40.242188 2.941406 39.761719 C 2.941406 39.277344 2.898438 38.402344 2.898438 38.402344 L 3.683594 38.402344 C 3.683594 40.023438 4.683594 40.726562 6.25 40.726562 C 7.464844 40.726562 8.640625 40.289062 8.640625 38.839844 C 8.640625 37.4375 7.207031 37.128906 5.769531 36.5625 C 4.335938 35.992188 2.988281 35.289062 2.988281 33.492188 C 2.988281 32.484375 3.507812 31.695312 4.292969 31.167969 C 4.945312 30.773438 5.769531 30.554688 6.726562 30.554688 C 8.074219 30.554688 8.597656 30.859375 9.207031 30.859375 C 9.292969 30.859375 9.640625 30.859375 9.640625 30.859375 C 9.640625 30.859375 9.597656 31.695312 9.597656 32.175781 C 9.597656 32.660156 9.640625 33.449219 9.640625 33.449219 L 8.902344 33.449219 C 8.902344 32.703125 8.597656 31.476562 6.726562 31.476562 C 6.074219 31.476562 5.597656 31.5625 5.25 31.78125 C 4.8125 32.042969 4.597656 32.4375 4.597656 32.964844 C 4.597656 34.28125 5.945312 34.632812 7.292969 35.203125 C 8.902344 35.859375 10.292969 36.339844 10.292969 38.183594 C 10.335938 40.289062 8.554688 41.644531 6.160156 41.644531 Z M 6.160156 41.644531 " fill-opacity="1" fill-rule="nonzero"/></g><path fill="#000000" d="M 15.992188 41.777344 C 13.207031 41.777344 11.164062 40.066406 11.164062 37.175781 C 11.164062 34.585938 13.339844 32.703125 16.167969 32.703125 C 19.210938 32.703125 20.863281 34.5 20.863281 37.261719 C 20.863281 39.894531 18.644531 41.777344 15.992188 41.777344 Z M 16.078125 33.578125 C 13.992188 33.578125 13.121094 35.246094 13.121094 37.261719 C 13.121094 39.191406 14.035156 40.902344 16.078125 40.902344 C 18.125 40.902344 18.90625 39.324219 18.90625 37.304688 C 18.90625 35.289062 18.125 33.578125 16.078125 33.578125 Z M 16.078125 33.578125 " fill-opacity="1" fill-rule="nonzero"/><path fill="#000000" d="M 30.214844 34.808594 L 30.214844 38.402344 C 30.214844 40.550781 28.5625 41.644531 26.34375 41.644531 C 23.777344 41.644531 22.167969 40.683594 22.167969 38.402344 L 22.167969 34.675781 C 22.167969 33.710938 21.691406 33.621094 21.039062 33.621094 L 21.039062 32.878906 C 21.515625 32.878906 22.253906 32.921875 23.039062 32.921875 C 23.820312 32.921875 24.515625 32.878906 24.996094 32.878906 L 24.996094 33.667969 C 24.34375 33.667969 23.863281 33.710938 23.863281 34.71875 L 23.863281 38.007812 C 23.863281 39.761719 24.867188 40.550781 26.476562 40.550781 C 28.214844 40.550781 29.128906 39.761719 29.128906 38.007812 L 29.128906 34.808594 C 29.128906 33.929688 28.5625 33.667969 27.78125 33.667969 L 27.78125 32.878906 C 28.257812 32.878906 28.824219 32.921875 29.605469 32.921875 C 30.390625 32.921875 31 32.878906 31.433594 32.878906 L 31.433594 33.667969 C 30.652344 33.667969 30.214844 33.929688 30.214844 34.808594 Z M 30.214844 34.808594 " fill-opacity="1" fill-rule="nonzero"/><path fill="#000000" d="M 40.394531 35.332031 C 40.394531 34.324219 40.21875 33.753906 38.480469 33.753906 C 37.914062 33.753906 37.652344 33.796875 37.523438 33.796875 L 37.523438 39.71875 C 37.523438 40.683594 38.132812 40.726562 38.785156 40.726562 L 38.785156 41.515625 C 38.304688 41.515625 37.480469 41.472656 36.695312 41.472656 C 35.914062 41.472656 35.042969 41.515625 34.566406 41.515625 L 34.566406 40.769531 C 35.21875 40.769531 35.828125 40.726562 35.828125 39.761719 L 35.828125 33.796875 C 35.695312 33.796875 35.390625 33.753906 34.871094 33.753906 C 33.128906 33.753906 33.042969 34.324219 33.042969 35.332031 L 32.261719 35.332031 C 32.261719 35.332031 32.304688 34.5 32.304688 34.0625 C 32.304688 33.625 32.261719 32.832031 32.261719 32.832031 C 33.042969 32.878906 35.390625 32.878906 36.652344 32.878906 C 37.914062 32.878906 40.308594 32.878906 41.132812 32.832031 C 41.132812 32.832031 41.089844 33.578125 41.089844 34.0625 C 41.089844 34.542969 41.132812 35.332031 41.132812 35.332031 Z M 40.394531 35.332031 " fill-opacity="1" fill-rule="nonzero"/><path fill="#000000" d="M 50.398438 41.515625 C 49.613281 41.515625 48.875 41.558594 48.441406 41.558594 L 48.441406 40.769531 C 49.09375 40.769531 49.570312 40.726562 49.570312 39.761719 L 49.570312 37.570312 L 44.960938 37.570312 L 44.960938 39.761719 C 44.960938 40.726562 45.4375 40.769531 46.09375 40.769531 L 46.09375 41.558594 C 45.613281 41.558594 44.875 41.515625 44.089844 41.515625 C 43.308594 41.515625 42.480469 41.558594 42.132812 41.558594 L 42.132812 40.769531 C 42.785156 40.769531 43.265625 40.726562 43.265625 39.761719 L 43.265625 34.71875 C 43.265625 33.753906 42.785156 33.667969 42.132812 33.667969 L 42.132812 32.878906 C 42.613281 32.878906 43.351562 32.921875 44.132812 32.921875 C 44.917969 32.921875 45.742188 32.878906 46.09375 32.878906 L 46.09375 33.667969 C 45.4375 33.667969 44.960938 33.710938 44.960938 34.71875 L 44.960938 36.648438 L 49.570312 36.648438 L 49.570312 34.71875 C 49.570312 33.753906 49.09375 33.667969 48.441406 33.667969 L 48.441406 32.878906 C 48.875 32.878906 49.660156 32.921875 50.441406 32.921875 C 51.222656 32.921875 52.007812 32.878906 52.398438 32.878906 L 52.398438 33.667969 C 51.746094 33.667969 51.269531 33.710938 51.269531 34.71875 L 51.269531 39.761719 C 51.269531 40.726562 51.746094 40.769531 52.398438 40.769531 L 52.398438 41.558594 C 52.007812 41.558594 51.222656 41.515625 50.398438 41.515625 Z M 50.398438 41.515625 " fill-opacity="1" fill-rule="nonzero"/><path fill="#000000" d="M 58.75 41.558594 C 57.835938 41.558594 56.878906 41.558594 55.792969 41.558594 C 55.007812 41.558594 54.183594 41.601562 53.789062 41.601562 L 53.789062 40.769531 C 54.445312 40.769531 54.921875 40.726562 54.921875 39.761719 L 54.921875 34.71875 C 54.921875 33.753906 54.269531 33.667969 53.617188 33.667969 L 53.617188 32.878906 C 54.09375 32.878906 54.964844 32.878906 55.792969 32.878906 C 56.488281 32.878906 57.445312 32.878906 58.488281 32.878906 C 59.488281 32.878906 60.316406 32.878906 61.054688 32.878906 C 61.054688 32.878906 61.011719 33.449219 61.011719 33.929688 C 61.011719 34.414062 61.054688 34.980469 61.054688 34.980469 L 60.273438 34.980469 C 60.273438 33.886719 59.835938 33.710938 58.226562 33.710938 C 57.664062 33.710938 57.007812 33.753906 56.660156 33.753906 L 56.660156 36.648438 L 57.835938 36.648438 C 59.140625 36.648438 59.402344 36.472656 59.402344 35.550781 L 60.183594 35.550781 C 60.183594 35.769531 60.140625 36.515625 60.140625 37.085938 C 60.140625 37.65625 60.183594 38.445312 60.183594 38.621094 L 59.402344 38.621094 C 59.402344 37.613281 59.097656 37.480469 57.835938 37.480469 L 56.660156 37.480469 L 56.660156 39.671875 C 56.660156 40.460938 57.445312 40.636719 58.792969 40.636719 C 60.445312 40.636719 60.792969 40.417969 60.792969 39.234375 L 61.578125 39.234375 C 61.578125 39.234375 61.535156 39.894531 61.535156 40.375 C 61.535156 40.855469 61.578125 41.515625 61.578125 41.515625 C 60.96875 41.558594 59.75 41.558594 58.75 41.558594 Z M 58.75 41.558594 " fill-opacity="1" fill-rule="nonzero"/><path fill="#000000" d="M 70.667969 41.515625 C 69.882812 41.515625 69.144531 41.558594 68.667969 41.558594 L 68.667969 40.769531 C 69.363281 40.769531 69.796875 40.636719 69.449219 39.847656 L 68.839844 38.445312 L 65.359375 38.445312 L 64.882812 39.542969 C 64.578125 40.289062 64.796875 40.769531 65.710938 40.769531 L 65.710938 41.558594 C 65.230469 41.558594 64.753906 41.515625 63.96875 41.515625 C 63.1875 41.515625 62.707031 41.558594 62.230469 41.558594 L 62.230469 40.769531 C 62.839844 40.769531 63.359375 40.550781 63.75 39.671875 L 66.796875 32.878906 L 68.1875 32.878906 L 71.277344 39.804688 C 71.582031 40.460938 71.929688 40.769531 72.582031 40.769531 L 72.582031 41.558594 C 72.191406 41.558594 71.449219 41.515625 70.667969 41.515625 Z M 67.144531 34.457031 L 65.710938 37.613281 L 68.492188 37.613281 Z M 67.144531 34.457031 " fill-opacity="1" fill-rule="nonzero"/><path fill="#000000" d="M 76.410156 41.644531 C 74.929688 41.644531 74.277344 41.25 73.84375 41.25 C 73.667969 41.25 73.496094 41.25 73.496094 41.25 C 73.496094 41.25 73.539062 40.507812 73.539062 40.023438 C 73.539062 39.542969 73.496094 38.839844 73.496094 38.839844 L 74.277344 38.839844 C 74.277344 40.15625 74.972656 40.769531 76.324219 40.769531 C 77.367188 40.769531 78.148438 40.417969 78.148438 39.453125 C 78.148438 38.488281 77.019531 38.226562 75.757812 37.699219 C 74.667969 37.21875 73.625 36.605469 73.625 35.113281 C 73.625 33.535156 74.972656 32.746094 76.84375 32.746094 C 77.886719 32.746094 78.582031 32.964844 79.019531 32.964844 C 79.191406 32.964844 79.367188 32.964844 79.367188 32.964844 C 79.367188 32.964844 79.324219 33.578125 79.324219 34.0625 C 79.324219 34.542969 79.367188 35.15625 79.367188 35.15625 L 78.582031 35.15625 C 78.582031 34.105469 78.0625 33.621094 76.800781 33.621094 C 75.84375 33.621094 75.191406 33.886719 75.191406 34.71875 C 75.191406 35.597656 76.191406 35.945312 77.324219 36.429688 C 78.539062 36.957031 79.800781 37.4375 79.800781 38.839844 C 79.847656 40.769531 78.105469 41.644531 76.410156 41.644531 Z M 76.410156 41.644531 " fill-opacity="1" fill-rule="nonzero"/><path fill="#000000" d="M 88.675781 35.332031 C 88.675781 34.324219 88.5 33.753906 86.761719 33.753906 C 86.195312 33.753906 85.933594 33.796875 85.804688 33.796875 L 85.804688 39.71875 C 85.804688 40.683594 86.414062 40.726562 87.066406 40.726562 L 87.066406 41.515625 C 86.589844 41.515625 85.761719 41.472656 84.980469 41.472656 C 84.195312 41.472656 83.324219 41.515625 82.847656 41.515625 L 82.847656 40.769531 C 83.5 40.769531 84.109375 40.726562 84.109375 39.761719 L 84.109375 33.796875 C 83.976562 33.796875 83.671875 33.753906 83.152344 33.753906 C 81.410156 33.753906 81.324219 34.324219 81.324219 35.332031 L 80.542969 35.332031 C 80.542969 35.332031 80.585938 34.5 80.585938 34.0625 C 80.585938 33.625 80.542969 32.832031 80.542969 32.832031 C 81.324219 32.878906 83.671875 32.878906 84.933594 32.878906 C 86.195312 32.878906 88.542969 32.878906 89.414062 32.832031 C 89.414062 32.832031 89.371094 33.578125 89.371094 34.0625 C 89.371094 34.542969 89.414062 35.332031 89.414062 35.332031 Z M 88.675781 35.332031 " fill-opacity="1" fill-rule="nonzero"/><path fill="#000000" d="M 106.03125 32.703125 L 106.03125 39.671875 C 106.03125 40.683594 106.554688 40.769531 107.292969 40.769531 L 107.292969 41.558594 C 106.945312 41.558594 105.945312 41.515625 105.160156 41.515625 C 104.378906 41.515625 103.378906 41.558594 103.03125 41.558594 L 103.03125 40.769531 C 103.769531 40.769531 104.292969 40.683594 104.292969 39.671875 L 104.292969 33.273438 L 100.855469 41.558594 L 99.636719 41.558594 L 96.027344 33.753906 L 96.027344 39.585938 C 96.027344 40.683594 96.636719 40.8125 97.375 40.8125 L 97.375 41.601562 C 96.898438 41.601562 96.289062 41.558594 95.460938 41.558594 C 94.679688 41.558594 94.027344 41.601562 93.546875 41.601562 L 93.546875 40.769531 C 94.242188 40.769531 94.894531 40.636719 94.894531 39.542969 L 94.894531 32.703125 C 94.894531 31.519531 94.285156 31.386719 93.417969 31.386719 L 93.417969 30.597656 C 93.546875 30.597656 94.242188 30.640625 95.027344 30.640625 C 95.808594 30.640625 96.375 30.597656 96.636719 30.597656 L 100.636719 39.367188 L 104.292969 30.597656 C 104.464844 30.597656 104.988281 30.640625 105.8125 30.640625 C 106.597656 30.640625 107.117188 30.597656 107.335938 30.597656 L 107.335938 31.386719 C 106.421875 31.34375 106.03125 31.429688 106.03125 32.703125 Z M 106.03125 32.703125 " fill-opacity="1" fill-rule="nonzero"/><path fill="#000000" d="M 110.46875 41.515625 C 109.683594 41.515625 108.859375 41.558594 108.511719 41.558594 L 108.511719 40.769531 C 109.164062 40.769531 109.640625 40.726562 109.640625 39.761719 L 109.640625 34.71875 C 109.640625 33.753906 109.164062 33.667969 108.511719 33.667969 L 108.511719 32.878906 C 108.988281 32.878906 109.726562 32.921875 110.511719 32.921875 C 111.292969 32.921875 112.121094 32.878906 112.46875 32.878906 L 112.46875 33.667969 C 111.816406 33.667969 111.335938 33.710938 111.335938 34.71875 L 111.335938 39.761719 C 111.335938 40.726562 111.816406 40.769531 112.46875 40.769531 L 112.46875 41.558594 C 112.035156 41.558594 111.292969 41.515625 110.46875 41.515625 Z M 110.46875 41.515625 " fill-opacity="1" fill-rule="nonzero"/><path fill="#000000" d="M 116.90625 41.644531 C 115.425781 41.644531 114.773438 41.25 114.339844 41.25 C 114.164062 41.25 113.992188 41.25 113.992188 41.25 C 113.992188 41.25 114.035156 40.507812 114.035156 40.023438 C 114.035156 39.542969 113.992188 38.839844 113.992188 38.839844 L 114.773438 38.839844 C 114.773438 40.15625 115.46875 40.769531 116.816406 40.769531 C 117.863281 40.769531 118.644531 40.417969 118.644531 39.453125 C 118.644531 38.488281 117.515625 38.226562 116.253906 37.699219 C 115.164062 37.21875 114.121094 36.605469 114.121094 35.113281 C 114.121094 33.535156 115.46875 32.746094 117.339844 32.746094 C 118.382812 32.746094 119.078125 32.964844 119.515625 32.964844 C 119.6875 32.964844 119.863281 32.964844 119.863281 32.964844 C 119.863281 32.964844 119.820312 33.578125 119.820312 34.0625 C 119.820312 34.542969 119.863281 35.15625 119.863281 35.15625 L 119.078125 35.15625 C 119.078125 34.105469 118.558594 33.621094 117.296875 33.621094 C 116.339844 33.621094 115.6875 33.886719 115.6875 34.71875 C 115.6875 35.597656 116.6875 35.945312 117.816406 36.429688 C 119.035156 36.957031 120.296875 37.4375 120.296875 38.839844 C 120.339844 40.769531 118.558594 41.644531 116.90625 41.644531 Z M 116.90625 41.644531 " fill-opacity="1" fill-rule="nonzero"/><path fill="#000000" d="M 124.515625 41.644531 C 123.039062 41.644531 122.386719 41.25 121.949219 41.25 C 121.777344 41.25 121.601562 41.25 121.601562 41.25 C 121.601562 41.25 121.644531 40.507812 121.644531 40.023438 C 121.644531 39.542969 121.601562 38.839844 121.601562 38.839844 L 122.386719 38.839844 C 122.386719 40.15625 123.082031 40.769531 124.429688 40.769531 C 125.472656 40.769531 126.257812 40.417969 126.257812 39.453125 C 126.257812 38.488281 125.125 38.226562 123.863281 37.699219 C 122.777344 37.21875 121.734375 36.605469 121.734375 35.113281 C 121.734375 33.535156 123.082031 32.746094 124.953125 32.746094 C 125.996094 32.746094 126.691406 32.964844 127.125 32.964844 C 127.300781 32.964844 127.476562 32.964844 127.476562 32.964844 C 127.476562 32.964844 127.429688 33.578125 127.429688 34.0625 C 127.429688 34.542969 127.476562 35.15625 127.476562 35.15625 L 126.691406 35.15625 C 126.691406 34.105469 126.167969 33.621094 124.910156 33.621094 C 123.953125 33.621094 123.300781 33.886719 123.300781 34.71875 C 123.300781 35.597656 124.300781 35.945312 125.429688 36.429688 C 126.648438 36.957031 127.953125 37.4375 127.953125 38.839844 C 127.953125 40.769531 126.167969 41.644531 124.515625 41.644531 Z M 124.515625 41.644531 " fill-opacity="1" fill-rule="nonzero"/><path fill="#000000" d="M 133.695312 41.777344 C 130.910156 41.777344 128.867188 40.066406 128.867188 37.175781 C 128.867188 34.585938 131.042969 32.703125 133.867188 32.703125 C 136.914062 32.703125 138.566406 34.5 138.566406 37.261719 C 138.566406 39.894531 136.390625 41.777344 133.695312 41.777344 Z M 133.824219 33.578125 C 131.738281 33.578125 130.867188 35.246094 130.867188 37.261719 C 130.867188 39.191406 131.78125 40.902344 133.824219 40.902344 C 135.871094 40.902344 136.652344 39.324219 136.652344 37.304688 C 136.609375 35.289062 135.871094 33.578125 133.824219 33.578125 Z M 133.824219 33.578125 " fill-opacity="1" fill-rule="nonzero"/><path fill="#000000" d="M 148.007812 34.808594 L 148.007812 38.402344 C 148.007812 40.550781 146.351562 41.644531 144.132812 41.644531 C 141.566406 41.644531 139.957031 40.683594 139.957031 38.402344 L 139.957031 34.675781 C 139.957031 33.710938 139.480469 33.621094 138.828125 33.621094 L 138.828125 32.878906 C 139.304688 32.878906 140.046875 32.921875 140.828125 32.921875 C 141.613281 32.921875 142.308594 32.878906 142.785156 32.878906 L 142.785156 33.667969 C 142.132812 33.667969 141.65625 33.710938 141.65625 34.71875 L 141.65625 38.007812 C 141.65625 39.761719 142.65625 40.550781 144.265625 40.550781 C 146.003906 40.550781 146.917969 39.761719 146.917969 38.007812 L 146.917969 34.808594 C 146.917969 33.929688 146.351562 33.667969 145.570312 33.667969 L 145.570312 32.878906 C 146.046875 32.878906 146.613281 32.921875 147.398438 32.921875 C 148.179688 32.921875 148.789062 32.878906 149.222656 32.878906 L 149.222656 33.667969 C 148.484375 33.667969 148.007812 33.929688 148.007812 34.808594 Z M 148.007812 34.808594 " fill-opacity="1" fill-rule="nonzero"/><path fill="#000000" d="M 158.445312 41.601562 C 157.269531 41.601562 156.53125 41.164062 155.835938 40.15625 C 155.355469 39.5 155.09375 39.058594 154.488281 38.140625 C 154.355469 38.140625 153.964844 38.140625 153.660156 38.09375 C 153.398438 38.09375 153.136719 38.050781 153.136719 38.050781 L 153.136719 39.761719 C 153.136719 40.726562 153.617188 40.769531 154.269531 40.769531 L 154.269531 41.558594 C 153.789062 41.558594 153.09375 41.515625 152.269531 41.515625 C 151.484375 41.515625 150.703125 41.558594 150.265625 41.558594 L 150.265625 40.769531 C 150.921875 40.769531 151.398438 40.726562 151.398438 39.761719 L 151.398438 34.71875 C 151.398438 33.753906 150.746094 33.667969 150.09375 33.667969 L 150.09375 32.878906 C 150.570312 32.878906 151.484375 32.878906 152.269531 32.878906 C 153.007812 32.878906 153.441406 32.878906 154.703125 32.878906 C 156.921875 32.878906 157.878906 33.84375 157.878906 35.203125 C 157.878906 36.386719 156.921875 37.21875 156.007812 37.613281 C 156.355469 38.09375 156.792969 38.707031 157.3125 39.367188 C 158.007812 40.15625 158.75 40.8125 159.226562 40.8125 C 159.273438 40.8125 159.402344 40.8125 159.402344 40.8125 L 159.402344 41.515625 C 159.445312 41.558594 159.097656 41.601562 158.445312 41.601562 Z M 154.226562 33.710938 C 153.703125 33.710938 153.398438 33.710938 153.136719 33.753906 L 153.136719 37.304688 C 153.355469 37.351562 153.964844 37.394531 154.53125 37.394531 C 155.445312 37.394531 156.140625 36.734375 156.140625 35.507812 C 156.097656 34.148438 155.226562 33.710938 154.226562 33.710938 Z M 154.226562 33.710938 " fill-opacity="1" fill-rule="nonzero"/><g clip-path="url(#afa387578e)"><path fill="#000000" d="M 162.230469 41.515625 C 161.445312 41.515625 160.621094 41.558594 160.273438 41.558594 L 160.273438 40.769531 C 160.925781 40.769531 161.402344 40.726562 161.402344 39.761719 L 161.402344 34.71875 C 161.402344 33.753906 160.925781 33.667969 160.273438 33.667969 L 160.273438 32.878906 C 160.75 32.878906 161.488281 32.921875 162.273438 32.921875 C 163.054688 32.921875 163.882812 32.878906 164.230469 32.878906 L 164.230469 33.667969 C 163.578125 33.667969 163.097656 33.710938 163.097656 34.71875 L 163.097656 39.761719 C 163.097656 40.726562 163.578125 40.769531 164.230469 40.769531 L 164.230469 41.558594 C 163.75 41.558594 163.011719 41.515625 162.230469 41.515625 Z M 162.230469 41.515625 " fill-opacity="1" fill-rule="nonzero"/></g><g clip-path="url(#a20c61cf86)"><path fill="#000000" d="M 139.699219 49.320312 C 138.523438 49.320312 137.085938 48.707031 137.085938 46.820312 C 137.085938 45.199219 138.21875 44.277344 139.699219 44.277344 C 141.089844 44.277344 142.308594 45.066406 142.308594 46.820312 C 142.308594 48.398438 141.175781 49.320312 139.699219 49.320312 Z M 139.699219 44.496094 C 138.480469 44.496094 137.4375 45.152344 137.4375 46.730469 C 137.4375 48.707031 139 49.011719 139.785156 49.011719 C 141.046875 49.011719 141.960938 48.222656 141.960938 46.777344 C 141.960938 45.199219 140.871094 44.496094 139.699219 44.496094 Z M 141.003906 48.222656 C 140.742188 48.222656 140.609375 48.179688 140.4375 48.046875 C 140.261719 47.871094 139.871094 47.390625 139.699219 47.082031 C 139.699219 47.082031 139.394531 47.039062 139.304688 47.039062 L 139.304688 47.695312 C 139.304688 47.917969 139.480469 48.003906 139.699219 48.003906 L 139.699219 48.222656 C 139.480469 48.222656 139.394531 48.222656 139.046875 48.222656 C 138.695312 48.222656 138.609375 48.222656 138.390625 48.222656 L 138.390625 47.960938 C 138.609375 47.960938 138.785156 47.917969 138.785156 47.652344 L 138.785156 45.898438 C 138.785156 45.679688 138.566406 45.59375 138.347656 45.59375 L 138.347656 45.375 C 138.523438 45.375 138.695312 45.375 139.046875 45.375 C 139.394531 45.375 139.480469 45.375 139.699219 45.375 C 140.4375 45.375 140.828125 45.636719 140.828125 46.117188 C 140.828125 46.511719 140.394531 46.820312 140.21875 46.90625 C 140.304688 47.039062 141.003906 47.960938 141.308594 47.960938 L 141.308594 48.179688 C 141.265625 48.179688 141.175781 48.222656 141.003906 48.222656 Z M 139.65625 45.636719 C 139.4375 45.636719 139.304688 45.636719 139.304688 45.636719 L 139.304688 46.777344 C 139.4375 46.777344 139.609375 46.820312 139.742188 46.820312 C 140.046875 46.820312 140.21875 46.511719 140.21875 46.164062 C 140.21875 45.855469 140.046875 45.636719 139.65625 45.636719 Z M 139.65625 45.636719 " fill-opacity="1" fill-rule="nonzero"/></g><g transform="matrix(1, 0, 0, 1, 1, 6)"><g clip-path="url(#c5804a3bf2)"><g fill="#c8102e" fill-opacity="1"><g transform="translate(0.658097, 20.723328)"><g><path d="M 10.890625 -3.703125 C 11.515625 -3.703125 12.117188 -3.796875 12.703125 -3.984375 C 13.296875 -4.179688 13.726562 -4.363281 14 -4.53125 L 14.421875 -4.828125 L 16.15625 -1.328125 C 16.101562 -1.285156 16.023438 -1.226562 15.921875 -1.15625 C 15.816406 -1.082031 15.578125 -0.945312 15.203125 -0.75 C 14.835938 -0.550781 14.441406 -0.378906 14.015625 -0.234375 C 13.597656 -0.0859375 13.046875 0.0390625 12.359375 0.15625 C 11.679688 0.269531 10.976562 0.328125 10.25 0.328125 C 8.582031 0.328125 7 -0.0820312 5.5 -0.90625 C 4 -1.726562 2.789062 -2.859375 1.875 -4.296875 C 0.957031 -5.734375 0.5 -7.289062 0.5 -8.96875 C 0.5 -10.226562 0.765625 -11.441406 1.296875 -12.609375 C 1.835938 -13.773438 2.554688 -14.769531 3.453125 -15.59375 C 4.347656 -16.425781 5.390625 -17.085938 6.578125 -17.578125 C 7.773438 -18.078125 9 -18.328125 10.25 -18.328125 C 11.414062 -18.328125 12.488281 -18.1875 13.46875 -17.90625 C 14.445312 -17.632812 15.140625 -17.359375 15.546875 -17.078125 L 16.15625 -16.671875 L 14.421875 -13.171875 C 14.316406 -13.265625 14.160156 -13.367188 13.953125 -13.484375 C 13.753906 -13.609375 13.347656 -13.769531 12.734375 -13.96875 C 12.128906 -14.175781 11.515625 -14.28125 10.890625 -14.28125 C 9.898438 -14.28125 9.007812 -14.117188 8.21875 -13.796875 C 7.4375 -13.484375 6.816406 -13.0625 6.359375 -12.53125 C 5.898438 -12.007812 5.550781 -11.445312 5.3125 -10.84375 C 5.070312 -10.25 4.953125 -9.640625 4.953125 -9.015625 C 4.953125 -7.640625 5.460938 -6.410156 6.484375 -5.328125 C 7.515625 -4.242188 8.984375 -3.703125 10.890625 -3.703125 Z M 10.890625 -3.703125 "/></g></g></g><g fill="#c8102e" fill-opacity="1"><g transform="translate(17.080759, 20.723328)"><g><path d="M -0.65625 -18 L 4.28125 -18 L 8.03125 -12.234375 L 11.78125 -18 L 16.703125 -18 L 10.078125 -8.078125 L 10.078125 0 L 5.984375 0 L 5.984375 -8.078125 Z M -0.65625 -18 "/></g></g></g><g fill="#c8102e" fill-opacity="1"><g transform="translate(33.132669, 20.723328)"><g><path d="M 1.3125 -18 L 6.890625 -18 C 8.578125 -18 9.921875 -17.632812 10.921875 -16.90625 C 11.929688 -16.1875 12.4375 -15.023438 12.4375 -13.421875 C 12.4375 -11.609375 11.6875 -10.316406 10.1875 -9.546875 C 12.75 -9.097656 14.03125 -7.585938 14.03125 -5.015625 C 14.03125 -3.503906 13.503906 -2.289062 12.453125 -1.375 C 11.410156 -0.457031 9.972656 0 8.140625 0 L 1.3125 0 Z M 5.40625 -10.953125 L 5.734375 -10.953125 C 6.648438 -10.953125 7.332031 -11.109375 7.78125 -11.421875 C 8.238281 -11.742188 8.46875 -12.269531 8.46875 -13 C 8.46875 -14.21875 7.554688 -14.828125 5.734375 -14.828125 L 5.40625 -14.828125 Z M 5.40625 -3.15625 L 6.703125 -3.15625 C 8.703125 -3.15625 9.703125 -3.828125 9.703125 -5.171875 C 9.703125 -5.972656 9.453125 -6.546875 8.953125 -6.890625 C 8.453125 -7.242188 7.703125 -7.421875 6.703125 -7.421875 L 5.40625 -7.421875 Z M 5.40625 -3.15625 "/></g></g></g><g fill="#c8102e" fill-opacity="1"><g transform="translate(47.657892, 20.723328)"><g><path d="M 11.609375 -18 L 11.609375 -14.390625 L 5.40625 -14.390625 L 5.40625 -10.8125 L 11.34375 -10.8125 L 11.34375 -7.21875 L 5.40625 -7.21875 L 5.40625 -3.59375 L 11.609375 -3.59375 L 11.609375 0 L 1.3125 0 L 1.3125 -18 Z M 11.609375 -18 "/></g></g></g><g fill="#c8102e" fill-opacity="1"><g transform="translate(60.307502, 20.723328)"><g><path d="M 1.3125 -18 L 7.75 -18 C 9.476562 -18 10.882812 -17.535156 11.96875 -16.609375 C 13.0625 -15.679688 13.609375 -14.363281 13.609375 -12.65625 C 13.609375 -11.332031 13.273438 -10.222656 12.609375 -9.328125 C 11.953125 -8.429688 11.054688 -7.800781 9.921875 -7.4375 L 16.125 0 L 10.90625 0 L 5.40625 -7.109375 L 5.40625 0 L 1.3125 0 Z M 5.40625 -10.015625 L 5.890625 -10.015625 C 6.265625 -10.015625 6.582031 -10.019531 6.84375 -10.03125 C 7.101562 -10.050781 7.398438 -10.101562 7.734375 -10.1875 C 8.078125 -10.269531 8.347656 -10.390625 8.546875 -10.546875 C 8.753906 -10.710938 8.929688 -10.945312 9.078125 -11.25 C 9.222656 -11.5625 9.296875 -11.929688 9.296875 -12.359375 C 9.296875 -12.796875 9.222656 -13.164062 9.078125 -13.46875 C 8.929688 -13.78125 8.753906 -14.015625 8.546875 -14.171875 C 8.347656 -14.335938 8.078125 -14.460938 7.734375 -14.546875 C 7.398438 -14.640625 7.101562 -14.691406 6.84375 -14.703125 C 6.582031 -14.710938 6.265625 -14.71875 5.890625 -14.71875 L 5.40625 -14.71875 Z M 5.40625 -10.015625 "/></g></g></g><g fill="#c8102e" fill-opacity="1"><g transform="translate(75.923212, 20.723328)"><g/></g></g><g fill="#c8102e" fill-opacity="1"><g transform="translate(81.877238, 20.723328)"><g><path d="M 1.3125 -18 L 7.75 -18 C 9.476562 -18 10.882812 -17.535156 11.96875 -16.609375 C 13.0625 -15.679688 13.609375 -14.363281 13.609375 -12.65625 C 13.609375 -11.332031 13.273438 -10.222656 12.609375 -9.328125 C 11.953125 -8.429688 11.054688 -7.800781 9.921875 -7.4375 L 16.125 0 L 10.90625 0 L 5.40625 -7.109375 L 5.40625 0 L 1.3125 0 Z M 5.40625 -10.015625 L 5.890625 -10.015625 C 6.265625 -10.015625 6.582031 -10.019531 6.84375 -10.03125 C 7.101562 -10.050781 7.398438 -10.101562 7.734375 -10.1875 C 8.078125 -10.269531 8.347656 -10.390625 8.546875 -10.546875 C 8.753906 -10.710938 8.929688 -10.945312 9.078125 -11.25 C 9.222656 -11.5625 9.296875 -11.929688 9.296875 -12.359375 C 9.296875 -12.796875 9.222656 -13.164062 9.078125 -13.46875 C 8.929688 -13.78125 8.753906 -14.015625 8.546875 -14.171875 C 8.347656 -14.335938 8.078125 -14.460938 7.734375 -14.546875 C 7.398438 -14.640625 7.101562 -14.691406 6.84375 -14.703125 C 6.582031 -14.710938 6.265625 -14.71875 5.890625 -14.71875 L 5.40625 -14.71875 Z M 5.40625 -10.015625 "/></g></g></g><g fill="#c8102e" fill-opacity="1"><g transform="translate(97.492948, 20.723328)"><g><path d="M 10.453125 -18 L 17.71875 0 L 13.3125 0 L 11.96875 -3.59375 L 5.125 -3.59375 L 3.796875 0 L -0.609375 0 L 6.65625 -18 Z M 10.578125 -7.203125 L 8.578125 -12.4375 L 8.53125 -12.4375 L 6.515625 -7.203125 Z M 10.578125 -7.203125 "/></g></g></g><g fill="#c8102e" fill-opacity="1"><g transform="translate(114.591721, 20.723328)"><g><path d="M 5.40625 -11.171875 L 5.40625 0 L 1.3125 0 L 1.3125 -18 L 5.40625 -18 L 12.5625 -6.828125 L 12.609375 -6.828125 L 12.609375 -18 L 16.703125 -18 L 16.703125 0 L 12.609375 0 L 5.453125 -11.171875 Z M 5.40625 -11.171875 "/></g></g></g><g fill="#c8102e" fill-opacity="1"><g transform="translate(132.606491, 20.723328)"><g><path d="M 17.578125 -10.078125 L 17.578125 -6.171875 C 17.117188 -4.035156 16.101562 -2.414062 14.53125 -1.3125 C 12.957031 -0.21875 11.203125 0.328125 9.265625 0.328125 C 6.835938 0.328125 4.769531 -0.578125 3.0625 -2.390625 C 1.351562 -4.210938 0.5 -6.410156 0.5 -8.984375 C 0.5 -11.597656 1.332031 -13.804688 3 -15.609375 C 4.675781 -17.421875 6.765625 -18.328125 9.265625 -18.328125 C 12.191406 -18.328125 14.503906 -17.300781 16.203125 -15.25 L 13.53125 -12.296875 C 12.5625 -13.835938 11.222656 -14.609375 9.515625 -14.609375 C 8.242188 -14.609375 7.160156 -14.0625 6.265625 -12.96875 C 5.367188 -11.875 4.921875 -10.546875 4.921875 -8.984375 C 4.921875 -7.460938 5.367188 -6.160156 6.265625 -5.078125 C 7.160156 -3.992188 8.242188 -3.453125 9.515625 -3.453125 C 10.554688 -3.453125 11.46875 -3.765625 12.25 -4.390625 C 13.03125 -5.023438 13.421875 -5.867188 13.421875 -6.921875 L 9.265625 -6.921875 L 9.265625 -10.078125 Z M 17.578125 -10.078125 "/></g></g></g><g fill="#c8102e" fill-opacity="1"><g transform="translate(150.686708, 20.723328)"><g><path d="M 11.609375 -18 L 11.609375 -14.390625 L 5.40625 -14.390625 L 5.40625 -10.8125 L 11.34375 -10.8125 L 11.34375 -7.21875 L 5.40625 -7.21875 L 5.40625 -3.59375 L 11.609375 -3.59375 L 11.609375 0 L 1.3125 0 L 1.3125 -18 Z M 11.609375 -18 "/></g></g></g></g></g></svg>
