<svg xmlns="http://www.w3.org/2000/svg" xmlns:xlink="http://www.w3.org/1999/xlink" width="222" zoomAndPan="magnify" viewBox="0 0 166.5 66" height="88" preserveAspectRatio="xMidYMid meet" version="1.0"><defs><g/><clipPath id="1f803faa19"><path d="M 1.996094 15 L 4 15 L 4 19 L 1.996094 19 Z M 1.996094 15 " clip-rule="nonzero"/></clipPath><clipPath id="6bee15e142"><path d="M 45 16 L 46.101562 16 L 46.101562 18 L 45 18 Z M 45 16 " clip-rule="nonzero"/></clipPath><clipPath id="caa29506b4"><path d="M 14 8.394531 L 20 8.394531 L 20 9 L 14 9 Z M 14 8.394531 " clip-rule="nonzero"/></clipPath><clipPath id="c40b241bfc"><path d="M 5 8.394531 L 23 8.394531 L 23 9 L 5 9 Z M 5 8.394531 " clip-rule="nonzero"/></clipPath><clipPath id="3b896dca0b"><path d="M 66 10 L 67.789062 10 L 67.789062 14 L 66 14 Z M 66 10 " clip-rule="nonzero"/></clipPath><clipPath id="e212aa9fa8"><path d="M 1 0.0976562 L 9 0.0976562 L 9 8 L 1 8 Z M 1 0.0976562 " clip-rule="nonzero"/></clipPath><clipPath id="520def5d10"><path d="M 7 0.0976562 L 16 0.0976562 L 16 8 L 7 8 Z M 7 0.0976562 " clip-rule="nonzero"/></clipPath><clipPath id="58f4bb9586"><path d="M 15 0.0976562 L 21 0.0976562 L 21 8 L 15 8 Z M 15 0.0976562 " clip-rule="nonzero"/></clipPath><clipPath id="7d2feb1ba0"><path d="M 21 0.0976562 L 26 0.0976562 L 26 8 L 21 8 Z M 21 0.0976562 " clip-rule="nonzero"/></clipPath><clipPath id="eee7fc20c1"><path d="M 26 0.0976562 L 33 0.0976562 L 33 8 L 26 8 Z M 26 0.0976562 " clip-rule="nonzero"/></clipPath><clipPath id="af25d9244f"><path d="M 35 0.0976562 L 42 0.0976562 L 42 8 L 35 8 Z M 35 0.0976562 " clip-rule="nonzero"/></clipPath><clipPath id="50bf5f0f3f"><path d="M 41 0.0976562 L 49 0.0976562 L 49 8 L 41 8 Z M 41 0.0976562 " clip-rule="nonzero"/></clipPath><clipPath id="daddc65f10"><path d="M 48 0.0976562 L 56 0.0976562 L 56 8 L 48 8 Z M 48 0.0976562 " clip-rule="nonzero"/></clipPath><clipPath id="249bf51620"><path d="M 55 0.0976562 L 64 0.0976562 L 64 8 L 55 8 Z M 55 0.0976562 " clip-rule="nonzero"/></clipPath><clipPath id="6ca8ad4469"><path d="M 63 0.0976562 L 68 0.0976562 L 68 8 L 63 8 Z M 63 0.0976562 " clip-rule="nonzero"/></clipPath></defs><g clip-path="url(#1f803faa19)"><path fill="#000000" d="M 2.910156 18.382812 C 2.445312 18.382812 2.230469 18.253906 2.105469 18.253906 C 2.050781 18.253906 1.996094 18.253906 1.996094 18.253906 C 1.996094 18.253906 2.015625 18.019531 2.015625 17.859375 C 2.015625 17.695312 1.996094 17.480469 1.996094 17.480469 L 2.230469 17.480469 C 2.230469 17.894531 2.445312 18.09375 2.875 18.09375 C 3.195312 18.09375 3.445312 17.984375 3.445312 17.660156 C 3.445312 17.355469 3.085938 17.261719 2.710938 17.101562 C 2.371094 16.957031 2.050781 16.757812 2.050781 16.289062 C 2.050781 15.785156 2.460938 15.53125 3.050781 15.53125 C 3.375 15.53125 3.589844 15.605469 3.730469 15.605469 C 3.785156 15.605469 3.839844 15.605469 3.839844 15.605469 C 3.839844 15.605469 3.820312 15.804688 3.820312 15.945312 C 3.820312 16.109375 3.839844 16.289062 3.839844 16.289062 L 3.589844 16.289062 C 3.589844 15.945312 3.425781 15.804688 3.035156 15.804688 C 2.730469 15.804688 2.53125 15.894531 2.53125 16.144531 C 2.53125 16.433594 2.835938 16.542969 3.195312 16.6875 C 3.570312 16.847656 3.980469 17.011719 3.980469 17.460938 C 3.980469 18.09375 3.445312 18.382812 2.910156 18.382812 Z M 2.910156 18.382812 " fill-opacity="1" fill-rule="nonzero"/></g><path fill="#000000" d="M 6.738281 16.363281 C 6.738281 16.039062 6.683594 15.855469 6.128906 15.855469 C 5.949219 15.855469 5.878906 15.875 5.84375 15.875 L 5.84375 17.769531 C 5.84375 18.074219 6.039062 18.09375 6.238281 18.09375 L 6.238281 18.34375 C 6.09375 18.34375 5.824219 18.328125 5.574219 18.328125 C 5.324219 18.328125 5.054688 18.34375 4.914062 18.34375 L 4.914062 18.09375 C 5.109375 18.09375 5.304688 18.074219 5.304688 17.769531 L 5.304688 15.875 C 5.269531 15.875 5.164062 15.855469 5.003906 15.855469 C 4.449219 15.855469 4.429688 16.039062 4.429688 16.363281 L 4.195312 16.363281 C 4.195312 16.363281 4.214844 16.109375 4.214844 15.964844 C 4.214844 15.820312 4.195312 15.570312 4.195312 15.570312 C 4.449219 15.585938 5.179688 15.585938 5.574219 15.585938 C 5.96875 15.585938 6.703125 15.585938 6.96875 15.570312 C 6.96875 15.570312 6.953125 15.804688 6.953125 15.964844 C 6.953125 16.128906 6.96875 16.363281 6.96875 16.363281 Z M 6.738281 16.363281 " fill-opacity="1" fill-rule="nonzero"/><path fill="#000000" d="M 9.386719 18.328125 C 9.136719 18.328125 8.921875 18.34375 8.757812 18.34375 L 8.757812 18.09375 C 8.972656 18.09375 9.117188 18.039062 9.011719 17.804688 L 8.8125 17.355469 L 7.722656 17.355469 L 7.5625 17.714844 C 7.453125 17.949219 7.523438 18.109375 7.828125 18.109375 L 7.828125 18.363281 C 7.6875 18.363281 7.542969 18.34375 7.292969 18.34375 C 7.042969 18.34375 6.898438 18.363281 6.753906 18.363281 L 6.753906 18.109375 C 6.953125 18.109375 7.09375 18.039062 7.238281 17.769531 L 8.1875 15.605469 L 8.617188 15.605469 L 9.582031 17.804688 C 9.671875 18.003906 9.777344 18.109375 9.992188 18.109375 L 9.992188 18.363281 C 9.867188 18.34375 9.636719 18.328125 9.386719 18.328125 Z M 8.292969 16.089844 L 7.847656 17.101562 L 8.722656 17.101562 Z M 8.292969 16.089844 " fill-opacity="1" fill-rule="nonzero"/><path fill="#000000" d="M 12.355469 16.363281 C 12.355469 16.039062 12.300781 15.855469 11.746094 15.855469 C 11.566406 15.855469 11.496094 15.875 11.460938 15.875 L 11.460938 17.769531 C 11.460938 18.074219 11.65625 18.09375 11.855469 18.09375 L 11.855469 18.34375 C 11.710938 18.34375 11.441406 18.328125 11.191406 18.328125 C 10.941406 18.328125 10.671875 18.34375 10.53125 18.34375 L 10.53125 18.09375 C 10.726562 18.09375 10.925781 18.074219 10.925781 17.769531 L 10.925781 15.875 C 10.886719 15.875 10.78125 15.855469 10.621094 15.855469 C 10.066406 15.855469 10.046875 16.039062 10.046875 16.363281 L 9.816406 16.363281 C 9.816406 16.363281 9.832031 16.109375 9.832031 15.964844 C 9.832031 15.820312 9.816406 15.570312 9.816406 15.570312 C 10.066406 15.585938 10.800781 15.585938 11.191406 15.585938 C 11.585938 15.585938 12.320312 15.585938 12.589844 15.570312 C 12.589844 15.570312 12.570312 15.804688 12.570312 15.964844 C 12.570312 16.128906 12.589844 16.363281 12.589844 16.363281 Z M 12.355469 16.363281 " fill-opacity="1" fill-rule="nonzero"/><path fill="#000000" d="M 14.554688 18.328125 C 14.269531 18.328125 13.964844 18.328125 13.644531 18.328125 C 13.394531 18.328125 13.144531 18.34375 13.015625 18.34375 L 13.015625 18.09375 C 13.214844 18.09375 13.375 18.074219 13.375 17.769531 L 13.375 16.164062 C 13.375 15.855469 13.179688 15.839844 12.964844 15.839844 L 12.964844 15.585938 C 13.105469 15.585938 13.394531 15.585938 13.644531 15.585938 C 13.859375 15.585938 14.164062 15.585938 14.484375 15.585938 C 14.804688 15.585938 15.058594 15.585938 15.273438 15.585938 C 15.273438 15.585938 15.253906 15.765625 15.253906 15.929688 C 15.253906 16.089844 15.273438 16.273438 15.273438 16.273438 L 15.039062 16.273438 C 15.039062 15.929688 14.914062 15.875 14.394531 15.875 C 14.214844 15.875 14.019531 15.894531 13.894531 15.894531 L 13.894531 16.8125 L 14.253906 16.8125 C 14.664062 16.8125 14.753906 16.757812 14.753906 16.46875 L 14.984375 16.46875 C 14.984375 16.542969 14.96875 16.777344 14.96875 16.957031 C 14.96875 17.136719 14.984375 17.390625 14.984375 17.445312 L 14.753906 17.445312 C 14.753906 17.121094 14.664062 17.082031 14.253906 17.082031 L 13.894531 17.082031 L 13.894531 17.785156 C 13.894531 18.039062 14.144531 18.09375 14.554688 18.09375 C 15.074219 18.09375 15.183594 18.019531 15.183594 17.640625 L 15.414062 17.640625 C 15.414062 17.640625 15.398438 17.839844 15.398438 18.003906 C 15.398438 18.164062 15.414062 18.363281 15.414062 18.363281 C 15.253906 18.34375 14.859375 18.328125 14.554688 18.328125 Z M 14.554688 18.328125 " fill-opacity="1" fill-rule="nonzero"/><path fill="#000000" d="M 20.011719 16.179688 L 20.011719 17.316406 C 20.011719 18.003906 19.496094 18.34375 18.8125 18.34375 C 18.007812 18.34375 17.507812 18.039062 17.507812 17.316406 L 17.507812 16.144531 C 17.507812 15.839844 17.347656 15.820312 17.152344 15.820312 L 17.152344 15.570312 C 17.292969 15.570312 17.527344 15.585938 17.777344 15.585938 C 18.027344 15.585938 18.242188 15.570312 18.386719 15.570312 L 18.386719 15.820312 C 18.1875 15.820312 18.027344 15.839844 18.027344 16.144531 L 18.027344 17.191406 C 18.027344 17.75 18.347656 18.003906 18.851562 18.003906 C 19.40625 18.003906 19.671875 17.75 19.671875 17.191406 L 19.671875 16.179688 C 19.671875 15.910156 19.496094 15.820312 19.242188 15.820312 L 19.242188 15.570312 C 19.386719 15.570312 19.566406 15.585938 19.816406 15.585938 C 20.066406 15.585938 20.246094 15.570312 20.390625 15.570312 L 20.390625 15.820312 C 20.15625 15.820312 20.011719 15.910156 20.011719 16.179688 Z M 20.011719 16.179688 " fill-opacity="1" fill-rule="nonzero"/><path fill="#000000" d="M 23.589844 16.179688 L 23.589844 18.328125 L 23.285156 18.328125 L 21.535156 16.324219 L 21.535156 17.714844 C 21.535156 17.984375 21.710938 18.074219 21.964844 18.074219 L 21.964844 18.328125 C 21.820312 18.328125 21.625 18.308594 21.390625 18.308594 C 21.15625 18.308594 20.960938 18.328125 20.835938 18.328125 L 20.835938 18.074219 C 21.085938 18.074219 21.246094 17.984375 21.246094 17.714844 L 21.246094 16.179688 C 21.246094 15.910156 21.015625 15.820312 20.730469 15.820312 L 20.730469 15.570312 C 20.800781 15.570312 20.980469 15.570312 21.195312 15.570312 C 21.390625 15.570312 21.570312 15.570312 21.640625 15.570312 L 23.324219 17.425781 L 23.324219 16.179688 C 23.324219 15.910156 23.144531 15.820312 22.894531 15.820312 L 22.894531 15.570312 C 23.035156 15.570312 23.214844 15.585938 23.449219 15.585938 C 23.699219 15.585938 23.859375 15.570312 24.019531 15.570312 L 24.019531 15.820312 C 23.734375 15.820312 23.589844 15.910156 23.589844 16.179688 Z M 23.589844 16.179688 " fill-opacity="1" fill-rule="nonzero"/><path fill="#000000" d="M 24.878906 18.328125 C 24.628906 18.328125 24.378906 18.34375 24.269531 18.34375 L 24.269531 18.09375 C 24.46875 18.09375 24.628906 18.074219 24.628906 17.769531 L 24.628906 16.164062 C 24.628906 15.855469 24.46875 15.839844 24.269531 15.839844 L 24.269531 15.585938 C 24.414062 15.585938 24.648438 15.605469 24.898438 15.605469 C 25.148438 15.605469 25.398438 15.585938 25.503906 15.585938 L 25.503906 15.839844 C 25.308594 15.839844 25.148438 15.855469 25.148438 16.164062 L 25.148438 17.769531 C 25.148438 18.074219 25.308594 18.09375 25.503906 18.09375 L 25.503906 18.34375 C 25.363281 18.34375 25.128906 18.328125 24.878906 18.328125 Z M 24.878906 18.328125 " fill-opacity="1" fill-rule="nonzero"/><path fill="#000000" d="M 28.402344 16.179688 L 27.457031 18.34375 L 27.167969 18.34375 L 26.203125 16.144531 C 26.113281 15.945312 25.988281 15.839844 25.773438 15.839844 L 25.773438 15.585938 C 25.917969 15.585938 26.148438 15.605469 26.398438 15.605469 C 26.652344 15.605469 26.882812 15.585938 27.027344 15.585938 L 27.027344 15.839844 C 26.8125 15.839844 26.667969 15.875 26.792969 16.128906 L 27.4375 17.640625 L 28.046875 16.21875 C 28.152344 15.984375 28.0625 15.820312 27.761719 15.820312 L 27.761719 15.570312 C 27.902344 15.570312 28.046875 15.585938 28.296875 15.585938 C 28.546875 15.585938 28.691406 15.570312 28.832031 15.570312 L 28.832031 15.820312 C 28.65625 15.820312 28.527344 15.894531 28.402344 16.179688 Z M 28.402344 16.179688 " fill-opacity="1" fill-rule="nonzero"/><path fill="#000000" d="M 30.695312 18.328125 C 30.40625 18.328125 30.105469 18.328125 29.78125 18.328125 C 29.53125 18.328125 29.28125 18.34375 29.15625 18.34375 L 29.15625 18.09375 C 29.351562 18.09375 29.511719 18.074219 29.511719 17.769531 L 29.511719 16.164062 C 29.511719 15.855469 29.316406 15.839844 29.101562 15.839844 L 29.101562 15.585938 C 29.246094 15.585938 29.53125 15.585938 29.78125 15.585938 C 29.996094 15.585938 30.300781 15.585938 30.621094 15.585938 C 30.945312 15.585938 31.195312 15.585938 31.410156 15.585938 C 31.410156 15.585938 31.390625 15.765625 31.390625 15.929688 C 31.390625 16.089844 31.410156 16.273438 31.410156 16.273438 L 31.175781 16.273438 C 31.175781 15.929688 31.050781 15.875 30.53125 15.875 C 30.355469 15.875 30.15625 15.894531 30.050781 15.894531 L 30.050781 16.8125 L 30.40625 16.8125 C 30.820312 16.8125 30.910156 16.757812 30.910156 16.46875 L 31.140625 16.46875 C 31.140625 16.542969 31.125 16.777344 31.125 16.957031 C 31.125 17.136719 31.140625 17.390625 31.140625 17.445312 L 30.910156 17.445312 C 30.910156 17.121094 30.820312 17.082031 30.40625 17.082031 L 30.050781 17.082031 L 30.050781 17.785156 C 30.050781 18.039062 30.300781 18.09375 30.710938 18.09375 C 31.230469 18.09375 31.339844 18.019531 31.339844 17.640625 L 31.570312 17.640625 C 31.570312 17.640625 31.554688 17.839844 31.554688 18.003906 C 31.554688 18.164062 31.570312 18.363281 31.570312 18.363281 C 31.390625 18.34375 31 18.328125 30.695312 18.328125 Z M 30.695312 18.328125 " fill-opacity="1" fill-rule="nonzero"/><path fill="#000000" d="M 34.433594 18.363281 C 34.074219 18.363281 33.84375 18.21875 33.609375 17.894531 C 33.46875 17.679688 33.378906 17.535156 33.179688 17.246094 C 33.144531 17.246094 33.019531 17.246094 32.929688 17.226562 C 32.839844 17.226562 32.769531 17.210938 32.769531 17.210938 L 32.769531 17.75 C 32.769531 18.058594 32.929688 18.074219 33.128906 18.074219 L 33.128906 18.328125 C 32.984375 18.328125 32.75 18.308594 32.5 18.308594 C 32.25 18.308594 32.019531 18.328125 31.875 18.328125 L 31.875 18.074219 C 32.070312 18.074219 32.234375 18.058594 32.234375 17.75 L 32.234375 16.144531 C 32.234375 15.839844 32.035156 15.820312 31.839844 15.820312 L 31.839844 15.570312 C 31.980469 15.570312 32.269531 15.570312 32.519531 15.570312 C 32.734375 15.570312 32.894531 15.570312 33.289062 15.570312 C 33.96875 15.570312 34.289062 15.875 34.289062 16.308594 C 34.289062 16.6875 33.984375 16.9375 33.699219 17.066406 C 33.808594 17.210938 33.949219 17.40625 34.113281 17.625 C 34.324219 17.875 34.558594 18.09375 34.703125 18.09375 C 34.71875 18.09375 34.753906 18.09375 34.753906 18.09375 L 34.753906 18.328125 C 34.753906 18.328125 34.628906 18.363281 34.433594 18.363281 Z M 33.109375 15.839844 C 32.949219 15.839844 32.839844 15.839844 32.769531 15.855469 L 32.769531 16.992188 C 32.839844 17.011719 33.019531 17.027344 33.199219 17.027344 C 33.484375 17.027344 33.699219 16.832031 33.699219 16.433594 C 33.699219 15.984375 33.429688 15.839844 33.109375 15.839844 Z M 33.109375 15.839844 " fill-opacity="1" fill-rule="nonzero"/><path fill="#000000" d="M 35.902344 18.382812 C 35.433594 18.382812 35.222656 18.253906 35.09375 18.253906 C 35.042969 18.253906 34.988281 18.253906 34.988281 18.253906 C 34.988281 18.253906 35.007812 18.019531 35.007812 17.859375 C 35.007812 17.695312 34.988281 17.480469 34.988281 17.480469 L 35.222656 17.480469 C 35.222656 17.894531 35.433594 18.09375 35.863281 18.09375 C 36.1875 18.09375 36.4375 17.984375 36.4375 17.660156 C 36.4375 17.355469 36.078125 17.261719 35.703125 17.101562 C 35.363281 16.957031 35.023438 16.757812 35.023438 16.289062 C 35.023438 15.785156 35.433594 15.53125 36.027344 15.53125 C 36.347656 15.53125 36.5625 15.605469 36.707031 15.605469 C 36.757812 15.605469 36.8125 15.605469 36.8125 15.605469 C 36.8125 15.605469 36.796875 15.804688 36.796875 15.945312 C 36.796875 16.109375 36.8125 16.289062 36.8125 16.289062 L 36.582031 16.289062 C 36.582031 15.945312 36.417969 15.804688 36.027344 15.804688 C 35.722656 15.804688 35.523438 15.894531 35.523438 16.144531 C 35.523438 16.433594 35.828125 16.542969 36.1875 16.6875 C 36.5625 16.847656 36.972656 17.011719 36.972656 17.460938 C 36.972656 18.09375 36.4375 18.382812 35.902344 18.382812 Z M 35.902344 18.382812 " fill-opacity="1" fill-rule="nonzero"/><path fill="#000000" d="M 37.941406 18.328125 C 37.691406 18.328125 37.4375 18.34375 37.332031 18.34375 L 37.332031 18.09375 C 37.527344 18.09375 37.691406 18.074219 37.691406 17.769531 L 37.691406 16.164062 C 37.691406 15.855469 37.527344 15.839844 37.332031 15.839844 L 37.332031 15.585938 C 37.476562 15.585938 37.707031 15.605469 37.957031 15.605469 C 38.207031 15.605469 38.457031 15.585938 38.566406 15.585938 L 38.566406 15.839844 C 38.371094 15.839844 38.207031 15.855469 38.207031 16.164062 L 38.207031 17.769531 C 38.207031 18.074219 38.371094 18.09375 38.566406 18.09375 L 38.566406 18.34375 C 38.421875 18.34375 38.191406 18.328125 37.941406 18.328125 Z M 37.941406 18.328125 " fill-opacity="1" fill-rule="nonzero"/><path fill="#000000" d="M 41.429688 16.363281 C 41.429688 16.039062 41.375 15.855469 40.820312 15.855469 C 40.640625 15.855469 40.570312 15.875 40.535156 15.875 L 40.535156 17.769531 C 40.535156 18.074219 40.730469 18.09375 40.929688 18.09375 L 40.929688 18.34375 C 40.785156 18.34375 40.515625 18.328125 40.265625 18.328125 C 40.015625 18.328125 39.746094 18.34375 39.605469 18.34375 L 39.605469 18.09375 C 39.800781 18.09375 39.996094 18.074219 39.996094 17.769531 L 39.996094 15.875 C 39.960938 15.875 39.871094 15.855469 39.695312 15.855469 C 39.140625 15.855469 39.121094 16.039062 39.121094 16.363281 L 38.886719 16.363281 C 38.886719 16.363281 38.90625 16.109375 38.90625 15.964844 C 38.90625 15.820312 38.886719 15.570312 38.886719 15.570312 C 39.140625 15.585938 39.871094 15.585938 40.265625 15.585938 C 40.660156 15.585938 41.394531 15.585938 41.660156 15.570312 C 41.660156 15.570312 41.644531 15.804688 41.644531 15.964844 C 41.644531 16.128906 41.660156 16.363281 41.660156 16.363281 Z M 41.429688 16.363281 " fill-opacity="1" fill-rule="nonzero"/><path fill="#000000" d="M 44.433594 16.128906 L 43.738281 16.976562 L 43.738281 17.769531 C 43.738281 18.074219 43.933594 18.09375 44.128906 18.09375 L 44.128906 18.34375 C 43.988281 18.34375 43.71875 18.328125 43.46875 18.328125 C 43.21875 18.328125 42.949219 18.34375 42.804688 18.34375 L 42.804688 18.09375 C 43.003906 18.09375 43.199219 18.074219 43.199219 17.769531 L 43.199219 17.15625 L 42.339844 16.074219 C 42.214844 15.910156 42.074219 15.839844 41.929688 15.839844 L 41.929688 15.585938 C 42.074219 15.585938 42.359375 15.605469 42.609375 15.605469 C 42.859375 15.605469 43.109375 15.585938 43.273438 15.585938 L 43.273438 15.839844 C 43.09375 15.839844 43.019531 15.875 43.019531 15.964844 C 43.019531 16.019531 43.058594 16.089844 43.128906 16.144531 L 43.59375 16.742188 L 44.058594 16.164062 C 44.09375 16.109375 44.128906 16.054688 44.128906 16 C 44.128906 15.910156 44.058594 15.839844 43.878906 15.839844 L 43.878906 15.585938 C 44.023438 15.585938 44.183594 15.605469 44.433594 15.605469 C 44.683594 15.605469 44.828125 15.585938 44.972656 15.585938 L 44.972656 15.839844 C 44.757812 15.839844 44.632812 15.894531 44.433594 16.128906 Z M 44.433594 16.128906 " fill-opacity="1" fill-rule="nonzero"/><g clip-path="url(#6bee15e142)"><path fill="#000000" d="M 46.582031 16.921875 C 46.582031 17.101562 46.421875 17.261719 46.242188 17.261719 C 46.046875 17.261719 45.902344 17.121094 45.902344 16.921875 C 45.902344 16.742188 46.0625 16.578125 46.242188 16.578125 C 46.421875 16.597656 46.582031 16.742188 46.582031 16.921875 Z M 46.582031 16.921875 " fill-opacity="1" fill-rule="nonzero"/></g><g clip-path="url(#caa29506b4)"><path fill="#000000" d="M 14.894531 8.269531 L 19.40625 8.269531 L 14.894531 7.152344 Z M 14.894531 8.269531 " fill-opacity="1" fill-rule="nonzero"/></g><g clip-path="url(#c40b241bfc)"><path fill="#000000" d="M 21.640625 5.871094 L 21.640625 3.636719 L 21.410156 3.5625 L 21.410156 2.191406 C 21.410156 2.191406 21.195312 1.886719 20.675781 1.488281 L 20.691406 1.488281 L 20.691406 1.183594 C 20.691406 1.183594 20.496094 1.019531 20.351562 0.910156 C 19.976562 -0.277344 19.207031 -1.488281 18.222656 -2.441406 C 17.417969 -3.234375 16.46875 -3.847656 15.523438 -4.136719 C 15.523438 -4.371094 15.234375 -4.570312 14.769531 -4.695312 C 14.503906 -5.148438 14.484375 -5.652344 14.484375 -5.652344 L 14.304688 -5.722656 L 14.234375 -5.941406 L 14.449219 -6.121094 C 14.449219 -6.121094 14.214844 -6.714844 13.964844 -6.714844 C 13.714844 -6.714844 13.484375 -6.121094 13.484375 -6.121094 L 13.699219 -5.941406 L 13.625 -5.722656 L 13.445312 -5.652344 C 13.445312 -5.652344 13.429688 -5.203125 13.160156 -4.695312 C 12.730469 -4.589844 12.5 -4.390625 12.460938 -4.15625 C 12.445312 -4.15625 12.425781 -4.136719 12.410156 -4.136719 C 11.480469 -3.832031 10.53125 -3.21875 9.707031 -2.441406 C 8.742188 -1.503906 7.972656 -0.332031 7.597656 0.859375 C 7.453125 0.964844 7.238281 1.148438 7.238281 1.148438 L 7.238281 1.453125 L 7.257812 1.453125 C 6.703125 1.867188 6.46875 2.191406 6.46875 2.191406 L 6.46875 3.527344 L 6.238281 3.597656 L 6.238281 5.851562 L 5.144531 6.125 L 5.144531 7.546875 L 5.46875 7.691406 L 5.46875 8.269531 L 14.179688 8.269531 L 14.179688 6.285156 L 22.390625 8.324219 L 22.390625 7.710938 L 22.695312 7.566406 L 22.695312 6.125 Z M 17.703125 4.878906 L 17.703125 2.804688 L 18.851562 3.148438 C 18.886719 2.410156 19.28125 1.957031 19.746094 1.957031 C 20.226562 1.957031 20.621094 2.644531 20.601562 3.453125 C 20.601562 3.527344 20.585938 3.597656 20.585938 3.652344 L 21.300781 3.871094 L 21.300781 5.78125 Z M 19.816406 0.949219 C 19.171875 0.605469 18.3125 0.246094 17.203125 0.0117188 C 16.792969 -1.613281 15.96875 -3.324219 15.003906 -4.066406 C 16.722656 -3.6875 19.066406 -1.683594 19.816406 0.949219 Z M 13.984375 -4.191406 C 14.484375 -4.191406 15.789062 -3.722656 16.703125 -0.078125 C 15.914062 -0.222656 15.003906 -0.296875 13.949219 -0.296875 C 12.929688 -0.296875 12.035156 -0.222656 11.246094 -0.078125 C 12.175781 -3.722656 13.484375 -4.191406 13.984375 -4.191406 Z M 10.351562 -0.261719 C 10.351562 -0.261719 11.121094 -2.929688 12.945312 -4.066406 L 12.964844 -4.066406 C 11.996094 -3.324219 11.175781 -1.613281 10.761719 -0.0078125 C 9.652344 0.226562 8.8125 0.550781 8.167969 0.894531 C 8.203125 0.714844 8.257812 0.585938 8.292969 0.515625 C 9.277344 0.0273438 10.351562 -0.261719 10.351562 -0.261719 Z M 13.964844 0.046875 C 19.316406 0.046875 21.105469 2.300781 21.105469 2.300781 L 21.105469 3.472656 L 20.90625 3.417969 C 20.925781 2.878906 20.746094 2.355469 20.441406 2.03125 C 20.226562 1.796875 19.960938 1.667969 19.671875 1.667969 C 19.171875 1.667969 18.777344 2.085938 18.597656 2.734375 L 17.542969 2.425781 L 16.042969 2.425781 C 15.96875 1.273438 15.128906 0.460938 13.984375 0.460938 C 12.839844 0.460938 11.996094 1.289062 11.925781 2.425781 L 10.316406 2.425781 L 9.742188 2.589844 L 9.742188 1.289062 C 9.296875 1.433594 8.882812 1.578125 8.507812 1.722656 C 8.402344 1.6875 8.292969 1.652344 8.1875 1.652344 C 7.9375 1.652344 7.6875 1.757812 7.488281 1.957031 C 7.398438 2.046875 7.308594 2.175781 7.238281 2.300781 C 7.058594 2.390625 6.898438 2.480469 6.792969 2.554688 L 6.792969 2.300781 C 6.808594 2.300781 8.617188 0.046875 13.964844 0.046875 Z M 8.152344 4.679688 C 7.722656 4.679688 7.292969 4.25 7.292969 3.402344 C 7.292969 2.589844 7.648438 1.957031 8.167969 1.957031 C 8.632812 1.957031 8.992188 2.515625 9.011719 3.113281 L 10.191406 2.789062 L 10.191406 4.863281 L 8.367188 5.3125 L 8.367188 4.609375 C 8.292969 4.679688 8.222656 4.679688 8.152344 4.679688 Z M 13.734375 5.980469 L 5.824219 7.925781 L 5.824219 7.621094 L 13.75 5.636719 L 13.75 5.980469 Z M 10.53125 4.808594 L 10.53125 2.75 L 12.265625 2.75 C 12.265625 2.679688 12.25 2.605469 12.25 2.535156 C 12.25 2.191406 12.335938 1.886719 12.5 1.617188 C 12.625 1.398438 12.804688 1.199219 13 1.074219 C 13.285156 0.875 13.625 0.769531 13.984375 0.769531 C 14.949219 0.769531 15.738281 1.5625 15.738281 2.554688 C 15.738281 2.625 15.738281 2.699219 15.71875 2.769531 L 17.347656 2.769531 L 17.347656 4.808594 L 13.949219 3.960938 Z M 22.410156 7.441406 L 13.984375 5.347656 L 13.984375 4.320312 L 22.410156 6.414062 Z M 22.410156 7.441406 " fill-opacity="1" fill-rule="nonzero"/></g><path fill="#000000" d="M 3.355469 13.859375 C 2.695312 13.859375 2.445312 13.664062 2.210938 13.664062 C 2.175781 13.664062 2.015625 13.664062 2.015625 13.664062 C 2.015625 13.664062 2.03125 13.285156 2.03125 13.085938 C 2.03125 12.886719 2.015625 12.527344 2.015625 12.527344 L 2.335938 12.527344 C 2.335938 13.191406 2.746094 13.480469 3.390625 13.480469 C 3.894531 13.480469 4.375 13.300781 4.375 12.707031 C 4.375 12.128906 3.785156 12.003906 3.195312 11.769531 C 2.605469 11.535156 2.050781 11.246094 2.050781 10.507812 C 2.050781 10.089844 2.265625 9.765625 2.585938 9.550781 C 2.855469 9.386719 3.195312 9.296875 3.589844 9.296875 C 4.144531 9.296875 4.359375 9.425781 4.609375 9.425781 C 4.644531 9.425781 4.789062 9.425781 4.789062 9.425781 C 4.789062 9.425781 4.769531 9.765625 4.769531 9.964844 C 4.769531 10.164062 4.789062 10.488281 4.789062 10.488281 L 4.484375 10.488281 C 4.484375 10.179688 4.359375 9.675781 3.589844 9.675781 C 3.320312 9.675781 3.125 9.710938 2.980469 9.804688 C 2.800781 9.910156 2.710938 10.074219 2.710938 10.289062 C 2.710938 10.832031 3.265625 10.976562 3.820312 11.210938 C 4.484375 11.480469 5.054688 11.679688 5.054688 12.4375 C 5.074219 13.300781 4.339844 13.859375 3.355469 13.859375 Z M 3.355469 13.859375 " fill-opacity="1" fill-rule="nonzero"/><path fill="#000000" d="M 7.398438 13.914062 C 6.253906 13.914062 5.414062 13.210938 5.414062 12.019531 C 5.414062 10.957031 6.308594 10.179688 7.472656 10.179688 C 8.722656 10.179688 9.402344 10.921875 9.402344 12.058594 C 9.402344 13.140625 8.492188 13.914062 7.398438 13.914062 Z M 7.433594 10.542969 C 6.578125 10.542969 6.21875 11.226562 6.21875 12.058594 C 6.21875 12.851562 6.59375 13.554688 7.433594 13.554688 C 8.277344 13.554688 8.597656 12.90625 8.597656 12.074219 C 8.597656 11.246094 8.277344 10.542969 7.433594 10.542969 Z M 7.433594 10.542969 " fill-opacity="1" fill-rule="nonzero"/><path fill="#000000" d="M 13.25 11.046875 L 13.25 12.527344 C 13.25 13.410156 12.570312 13.859375 11.65625 13.859375 C 10.601562 13.859375 9.941406 13.464844 9.941406 12.527344 L 9.941406 10.992188 C 9.941406 10.597656 9.742188 10.558594 9.476562 10.558594 L 9.476562 10.253906 C 9.671875 10.253906 9.976562 10.273438 10.296875 10.273438 C 10.621094 10.273438 10.90625 10.253906 11.101562 10.253906 L 11.101562 10.578125 C 10.835938 10.578125 10.636719 10.597656 10.636719 11.011719 L 10.636719 12.363281 C 10.636719 13.085938 11.050781 13.410156 11.710938 13.410156 C 12.425781 13.410156 12.804688 13.085938 12.804688 12.363281 L 12.804688 11.046875 C 12.804688 10.6875 12.570312 10.578125 12.25 10.578125 L 12.25 10.253906 C 12.445312 10.253906 12.675781 10.273438 13 10.273438 C 13.320312 10.273438 13.570312 10.253906 13.75 10.253906 L 13.75 10.578125 C 13.429688 10.578125 13.25 10.6875 13.25 11.046875 Z M 13.25 11.046875 " fill-opacity="1" fill-rule="nonzero"/><path fill="#000000" d="M 17.4375 11.261719 C 17.4375 10.847656 17.363281 10.613281 16.648438 10.613281 C 16.417969 10.613281 16.308594 10.632812 16.253906 10.632812 L 16.253906 13.066406 C 16.253906 13.464844 16.507812 13.480469 16.773438 13.480469 L 16.773438 13.804688 C 16.578125 13.804688 16.238281 13.789062 15.914062 13.789062 C 15.59375 13.789062 15.234375 13.804688 15.039062 13.804688 L 15.039062 13.5 C 15.308594 13.5 15.558594 13.480469 15.558594 13.085938 L 15.558594 10.632812 C 15.503906 10.632812 15.378906 10.613281 15.164062 10.613281 C 14.449219 10.613281 14.414062 10.847656 14.414062 11.261719 L 14.089844 11.261719 C 14.089844 11.261719 14.109375 10.921875 14.109375 10.742188 C 14.109375 10.558594 14.089844 10.234375 14.089844 10.234375 C 14.414062 10.253906 15.378906 10.253906 15.898438 10.253906 C 16.417969 10.253906 17.402344 10.253906 17.742188 10.234375 C 17.742188 10.234375 17.722656 10.542969 17.722656 10.742188 C 17.722656 10.9375 17.742188 11.261719 17.742188 11.261719 Z M 17.4375 11.261719 " fill-opacity="1" fill-rule="nonzero"/><path fill="#000000" d="M 21.550781 13.804688 C 21.230469 13.804688 20.925781 13.824219 20.746094 13.824219 L 20.746094 13.5 C 21.015625 13.5 21.210938 13.480469 21.210938 13.085938 L 21.210938 12.183594 L 19.316406 12.183594 L 19.316406 13.085938 C 19.316406 13.480469 19.511719 13.5 19.78125 13.5 L 19.78125 13.824219 C 19.582031 13.824219 19.28125 13.804688 18.957031 13.804688 C 18.636719 13.804688 18.296875 13.824219 18.152344 13.824219 L 18.152344 13.5 C 18.421875 13.5 18.617188 13.480469 18.617188 13.085938 L 18.617188 11.011719 C 18.617188 10.613281 18.421875 10.578125 18.152344 10.578125 L 18.152344 10.253906 C 18.347656 10.253906 18.652344 10.273438 18.976562 10.273438 C 19.296875 10.273438 19.636719 10.253906 19.78125 10.253906 L 19.78125 10.578125 C 19.511719 10.578125 19.316406 10.597656 19.316406 11.011719 L 19.316406 11.804688 L 21.210938 11.804688 L 21.210938 11.011719 C 21.210938 10.613281 21.015625 10.578125 20.746094 10.578125 L 20.746094 10.253906 C 20.925781 10.253906 21.246094 10.273438 21.570312 10.273438 C 21.890625 10.273438 22.214844 10.253906 22.375 10.253906 L 22.375 10.578125 C 22.105469 10.578125 21.910156 10.597656 21.910156 11.011719 L 21.910156 13.085938 C 21.910156 13.480469 22.105469 13.5 22.375 13.5 L 22.375 13.824219 C 22.214844 13.824219 21.890625 13.804688 21.550781 13.804688 Z M 21.550781 13.804688 " fill-opacity="1" fill-rule="nonzero"/><path fill="#000000" d="M 24.988281 13.824219 C 24.609375 13.824219 24.21875 13.824219 23.769531 13.824219 C 23.449219 13.824219 23.109375 13.84375 22.945312 13.84375 L 22.945312 13.5 C 23.214844 13.5 23.414062 13.480469 23.414062 13.085938 L 23.414062 11.011719 C 23.414062 10.613281 23.144531 10.578125 22.875 10.578125 L 22.875 10.253906 C 23.074219 10.253906 23.429688 10.253906 23.769531 10.253906 C 24.054688 10.253906 24.449219 10.253906 24.878906 10.253906 C 25.289062 10.253906 25.632812 10.253906 25.933594 10.253906 C 25.933594 10.253906 25.917969 10.488281 25.917969 10.6875 C 25.917969 10.886719 25.933594 11.121094 25.933594 11.121094 L 25.613281 11.121094 C 25.613281 10.667969 25.433594 10.597656 24.773438 10.597656 C 24.539062 10.597656 24.269531 10.613281 24.128906 10.613281 L 24.128906 11.804688 L 24.609375 11.804688 C 25.148438 11.804688 25.253906 11.734375 25.253906 11.355469 L 25.578125 11.355469 C 25.578125 11.445312 25.558594 11.75 25.558594 11.984375 C 25.558594 12.21875 25.578125 12.542969 25.578125 12.617188 L 25.253906 12.617188 C 25.253906 12.203125 25.128906 12.148438 24.609375 12.148438 L 24.128906 12.148438 L 24.128906 13.050781 C 24.128906 13.375 24.449219 13.445312 25.003906 13.445312 C 25.683594 13.445312 25.828125 13.355469 25.828125 12.867188 L 26.148438 12.867188 C 26.148438 12.867188 26.132812 13.140625 26.132812 13.335938 C 26.132812 13.535156 26.148438 13.804688 26.148438 13.804688 C 25.898438 13.824219 25.398438 13.824219 24.988281 13.824219 Z M 24.988281 13.824219 " fill-opacity="1" fill-rule="nonzero"/><path fill="#000000" d="M 29.890625 13.804688 C 29.566406 13.804688 29.261719 13.824219 29.066406 13.824219 L 29.066406 13.5 C 29.351562 13.5 29.53125 13.445312 29.386719 13.121094 L 29.136719 12.542969 L 27.707031 12.542969 L 27.507812 12.996094 C 27.382812 13.300781 27.472656 13.5 27.847656 13.5 L 27.847656 13.824219 C 27.652344 13.824219 27.457031 13.804688 27.132812 13.804688 C 26.8125 13.804688 26.613281 13.824219 26.417969 13.824219 L 26.417969 13.5 C 26.667969 13.5 26.882812 13.410156 27.042969 13.050781 L 28.296875 10.253906 L 28.871094 10.253906 L 30.140625 13.101562 C 30.265625 13.375 30.40625 13.5 30.675781 13.5 L 30.675781 13.824219 C 30.515625 13.824219 30.210938 13.804688 29.890625 13.804688 Z M 28.441406 10.902344 L 27.847656 12.203125 L 28.996094 12.203125 Z M 28.441406 10.902344 " fill-opacity="1" fill-rule="nonzero"/><path fill="#000000" d="M 32.25 13.859375 C 31.640625 13.859375 31.375 13.699219 31.195312 13.699219 C 31.125 13.699219 31.050781 13.699219 31.050781 13.699219 C 31.050781 13.699219 31.070312 13.390625 31.070312 13.191406 C 31.070312 12.996094 31.050781 12.707031 31.050781 12.707031 L 31.375 12.707031 C 31.375 13.246094 31.660156 13.5 32.214844 13.5 C 32.644531 13.5 32.964844 13.355469 32.964844 12.957031 C 32.964844 12.5625 32.5 12.453125 31.980469 12.238281 C 31.535156 12.039062 31.105469 11.785156 31.105469 11.171875 C 31.105469 10.523438 31.660156 10.199219 32.429688 10.199219 C 32.859375 10.199219 33.144531 10.289062 33.324219 10.289062 C 33.394531 10.289062 33.46875 10.289062 33.46875 10.289062 C 33.46875 10.289062 33.449219 10.542969 33.449219 10.742188 C 33.449219 10.9375 33.46875 11.191406 33.46875 11.191406 L 33.144531 11.191406 C 33.144531 10.757812 32.929688 10.558594 32.410156 10.558594 C 32.019531 10.558594 31.75 10.667969 31.75 11.011719 C 31.75 11.371094 32.160156 11.515625 32.625 11.714844 C 33.128906 11.929688 33.644531 12.128906 33.644531 12.707031 C 33.664062 13.5 32.949219 13.859375 32.25 13.859375 Z M 32.25 13.859375 " fill-opacity="1" fill-rule="nonzero"/><path fill="#000000" d="M 37.296875 11.261719 C 37.296875 10.847656 37.222656 10.613281 36.507812 10.613281 C 36.277344 10.613281 36.167969 10.632812 36.117188 10.632812 L 36.117188 13.066406 C 36.117188 13.464844 36.367188 13.480469 36.632812 13.480469 L 36.632812 13.804688 C 36.4375 13.804688 36.097656 13.789062 35.777344 13.789062 C 35.453125 13.789062 35.09375 13.804688 34.898438 13.804688 L 34.898438 13.5 C 35.167969 13.5 35.417969 13.480469 35.417969 13.085938 L 35.417969 10.632812 C 35.363281 10.632812 35.238281 10.613281 35.023438 10.613281 C 34.308594 10.613281 34.273438 10.847656 34.273438 11.261719 L 33.949219 11.261719 C 33.949219 11.261719 33.96875 10.921875 33.96875 10.742188 C 33.96875 10.558594 33.949219 10.234375 33.949219 10.234375 C 34.273438 10.253906 35.238281 10.253906 35.757812 10.253906 C 36.277344 10.253906 37.242188 10.253906 37.601562 10.234375 C 37.601562 10.234375 37.582031 10.542969 37.582031 10.742188 C 37.582031 10.9375 37.601562 11.261719 37.601562 11.261719 Z M 37.296875 11.261719 " fill-opacity="1" fill-rule="nonzero"/><path fill="#000000" d="M 44.433594 10.179688 L 44.433594 13.050781 C 44.433594 13.464844 44.648438 13.5 44.953125 13.5 L 44.953125 13.824219 C 44.808594 13.824219 44.398438 13.804688 44.078125 13.804688 C 43.753906 13.804688 43.34375 13.824219 43.199219 13.824219 L 43.199219 13.5 C 43.503906 13.5 43.71875 13.464844 43.71875 13.050781 L 43.71875 10.414062 L 42.304688 13.824219 L 41.804688 13.824219 L 40.320312 10.613281 L 40.320312 13.011719 C 40.320312 13.464844 40.570312 13.519531 40.875 13.519531 L 40.875 13.84375 C 40.675781 13.84375 40.425781 13.824219 40.085938 13.824219 C 39.765625 13.824219 39.496094 13.84375 39.300781 13.84375 L 39.300781 13.5 C 39.585938 13.5 39.855469 13.445312 39.855469 12.996094 L 39.855469 10.179688 C 39.855469 9.695312 39.605469 9.640625 39.246094 9.640625 L 39.246094 9.316406 C 39.300781 9.316406 39.585938 9.332031 39.910156 9.332031 C 40.230469 9.332031 40.464844 9.316406 40.570312 9.316406 L 42.214844 12.921875 L 43.71875 9.316406 C 43.789062 9.316406 44.003906 9.332031 44.34375 9.332031 C 44.667969 9.332031 44.882812 9.316406 44.972656 9.316406 L 44.972656 9.640625 C 44.597656 9.621094 44.433594 9.660156 44.433594 10.179688 Z M 44.433594 10.179688 " fill-opacity="1" fill-rule="nonzero"/><path fill="#000000" d="M 46.257812 13.804688 C 45.9375 13.804688 45.597656 13.824219 45.453125 13.824219 L 45.453125 13.5 C 45.722656 13.5 45.917969 13.480469 45.917969 13.085938 L 45.917969 11.011719 C 45.917969 10.613281 45.722656 10.578125 45.453125 10.578125 L 45.453125 10.253906 C 45.652344 10.253906 45.957031 10.273438 46.277344 10.273438 C 46.601562 10.273438 46.941406 10.253906 47.082031 10.253906 L 47.082031 10.578125 C 46.8125 10.578125 46.617188 10.597656 46.617188 11.011719 L 46.617188 13.085938 C 46.617188 13.480469 46.8125 13.5 47.082031 13.5 L 47.082031 13.824219 C 46.902344 13.824219 46.601562 13.804688 46.257812 13.804688 Z M 46.257812 13.804688 " fill-opacity="1" fill-rule="nonzero"/><path fill="#000000" d="M 48.90625 13.859375 C 48.300781 13.859375 48.03125 13.699219 47.851562 13.699219 C 47.78125 13.699219 47.707031 13.699219 47.707031 13.699219 C 47.707031 13.699219 47.726562 13.390625 47.726562 13.191406 C 47.726562 12.996094 47.707031 12.707031 47.707031 12.707031 L 48.03125 12.707031 C 48.03125 13.246094 48.316406 13.5 48.871094 13.5 C 49.300781 13.5 49.625 13.355469 49.625 12.957031 C 49.625 12.5625 49.15625 12.453125 48.640625 12.238281 C 48.191406 12.039062 47.761719 11.785156 47.761719 11.171875 C 47.761719 10.523438 48.316406 10.199219 49.085938 10.199219 C 49.515625 10.199219 49.800781 10.289062 49.980469 10.289062 C 50.054688 10.289062 50.125 10.289062 50.125 10.289062 C 50.125 10.289062 50.105469 10.542969 50.105469 10.742188 C 50.105469 10.9375 50.125 11.191406 50.125 11.191406 L 49.800781 11.191406 C 49.800781 10.757812 49.585938 10.558594 49.070312 10.558594 C 48.675781 10.558594 48.40625 10.667969 48.40625 11.011719 C 48.40625 11.371094 48.816406 11.515625 49.28125 11.714844 C 49.785156 11.929688 50.304688 12.128906 50.304688 12.707031 C 50.320312 13.5 49.585938 13.859375 48.90625 13.859375 Z M 48.90625 13.859375 " fill-opacity="1" fill-rule="nonzero"/><path fill="#000000" d="M 52.039062 13.859375 C 51.429688 13.859375 51.160156 13.699219 50.984375 13.699219 C 50.910156 13.699219 50.839844 13.699219 50.839844 13.699219 C 50.839844 13.699219 50.859375 13.390625 50.859375 13.191406 C 50.859375 12.996094 50.839844 12.707031 50.839844 12.707031 L 51.160156 12.707031 C 51.160156 13.246094 51.449219 13.5 52.003906 13.5 C 52.433594 13.5 52.753906 13.355469 52.753906 12.957031 C 52.753906 12.5625 52.289062 12.453125 51.769531 12.238281 C 51.324219 12.039062 50.894531 11.785156 50.894531 11.171875 C 50.894531 10.523438 51.449219 10.199219 52.21875 10.199219 C 52.648438 10.199219 52.933594 10.289062 53.113281 10.289062 C 53.183594 10.289062 53.253906 10.289062 53.253906 10.289062 C 53.253906 10.289062 53.238281 10.542969 53.238281 10.742188 C 53.238281 10.9375 53.253906 11.191406 53.253906 11.191406 L 52.933594 11.191406 C 52.933594 10.757812 52.71875 10.558594 52.199219 10.558594 C 51.804688 10.558594 51.539062 10.667969 51.539062 11.011719 C 51.539062 11.371094 51.949219 11.515625 52.414062 11.714844 C 52.914062 11.929688 53.453125 12.128906 53.453125 12.707031 C 53.453125 13.5 52.71875 13.859375 52.039062 13.859375 Z M 52.039062 13.859375 " fill-opacity="1" fill-rule="nonzero"/><path fill="#000000" d="M 55.8125 13.914062 C 54.667969 13.914062 53.828125 13.210938 53.828125 12.019531 C 53.828125 10.957031 54.722656 10.179688 55.886719 10.179688 C 57.136719 10.179688 57.816406 10.921875 57.816406 12.058594 C 57.816406 13.140625 56.921875 13.914062 55.8125 13.914062 Z M 55.867188 10.542969 C 55.007812 10.542969 54.652344 11.226562 54.652344 12.058594 C 54.652344 12.851562 55.027344 13.554688 55.867188 13.554688 C 56.707031 13.554688 57.03125 12.90625 57.03125 12.074219 C 57.011719 11.246094 56.707031 10.542969 55.867188 10.542969 Z M 55.867188 10.542969 " fill-opacity="1" fill-rule="nonzero"/><path fill="#000000" d="M 61.699219 11.046875 L 61.699219 12.527344 C 61.699219 13.410156 61.019531 13.859375 60.109375 13.859375 C 59.050781 13.859375 58.390625 13.464844 58.390625 12.527344 L 58.390625 10.992188 C 58.390625 10.597656 58.191406 10.558594 57.925781 10.558594 L 57.925781 10.253906 C 58.121094 10.253906 58.425781 10.273438 58.746094 10.273438 C 59.070312 10.273438 59.355469 10.253906 59.554688 10.253906 L 59.554688 10.578125 C 59.285156 10.578125 59.085938 10.597656 59.085938 11.011719 L 59.085938 12.363281 C 59.085938 13.085938 59.5 13.410156 60.160156 13.410156 C 60.878906 13.410156 61.253906 13.085938 61.253906 12.363281 L 61.253906 11.046875 C 61.253906 10.6875 61.019531 10.578125 60.699219 10.578125 L 60.699219 10.253906 C 60.894531 10.253906 61.128906 10.273438 61.449219 10.273438 C 61.773438 10.273438 62.023438 10.253906 62.199219 10.253906 L 62.199219 10.578125 C 61.898438 10.578125 61.699219 10.6875 61.699219 11.046875 Z M 61.699219 11.046875 " fill-opacity="1" fill-rule="nonzero"/><path fill="#000000" d="M 65.992188 13.84375 C 65.511719 13.84375 65.207031 13.664062 64.921875 13.246094 C 64.722656 12.976562 64.617188 12.796875 64.367188 12.417969 C 64.3125 12.417969 64.152344 12.417969 64.027344 12.398438 C 63.917969 12.398438 63.8125 12.382812 63.8125 12.382812 L 63.8125 13.085938 C 63.8125 13.480469 64.007812 13.5 64.277344 13.5 L 64.277344 13.824219 C 64.078125 13.824219 63.792969 13.804688 63.453125 13.804688 C 63.132812 13.804688 62.808594 13.824219 62.628906 13.824219 L 62.628906 13.5 C 62.898438 13.5 63.09375 13.480469 63.09375 13.085938 L 63.09375 11.011719 C 63.09375 10.613281 62.828125 10.578125 62.558594 10.578125 L 62.558594 10.253906 C 62.753906 10.253906 63.132812 10.253906 63.453125 10.253906 C 63.757812 10.253906 63.9375 10.253906 64.457031 10.253906 C 65.367188 10.253906 65.761719 10.652344 65.761719 11.210938 C 65.761719 11.695312 65.367188 12.039062 64.992188 12.203125 C 65.136719 12.398438 65.3125 12.652344 65.527344 12.921875 C 65.816406 13.246094 66.121094 13.519531 66.316406 13.519531 C 66.332031 13.519531 66.386719 13.519531 66.386719 13.519531 L 66.386719 13.804688 C 66.40625 13.824219 66.261719 13.84375 65.992188 13.84375 Z M 64.257812 10.597656 C 64.042969 10.597656 63.917969 10.597656 63.8125 10.613281 L 63.8125 12.074219 C 63.902344 12.09375 64.152344 12.109375 64.382812 12.109375 C 64.757812 12.109375 65.046875 11.839844 65.046875 11.335938 C 65.027344 10.777344 64.671875 10.597656 64.257812 10.597656 Z M 64.257812 10.597656 " fill-opacity="1" fill-rule="nonzero"/><g clip-path="url(#3b896dca0b)"><path fill="#000000" d="M 67.550781 13.804688 C 67.226562 13.804688 66.886719 13.824219 66.746094 13.824219 L 66.746094 13.5 C 67.011719 13.5 67.210938 13.480469 67.210938 13.085938 L 67.210938 11.011719 C 67.210938 10.613281 67.011719 10.578125 66.746094 10.578125 L 66.746094 10.253906 C 66.941406 10.253906 67.246094 10.273438 67.566406 10.273438 C 67.890625 10.273438 68.230469 10.253906 68.375 10.253906 L 68.375 10.578125 C 68.105469 10.578125 67.90625 10.597656 67.90625 11.011719 L 67.90625 13.085938 C 67.90625 13.480469 68.105469 13.5 68.375 13.5 L 68.375 13.824219 C 68.175781 13.824219 67.871094 13.804688 67.550781 13.804688 Z M 67.550781 13.804688 " fill-opacity="1" fill-rule="nonzero"/></g><g clip-path="url(#e212aa9fa8)"><g fill="#c8102e" fill-opacity="1"><g transform="translate(1.495509, 7.7259)"><g><path d="M 4.46875 -1.53125 C 4.726562 -1.53125 4.976562 -1.566406 5.21875 -1.640625 C 5.46875 -1.722656 5.648438 -1.796875 5.765625 -1.859375 L 5.921875 -1.984375 L 6.640625 -0.546875 C 6.617188 -0.523438 6.585938 -0.5 6.546875 -0.46875 C 6.503906 -0.445312 6.40625 -0.394531 6.25 -0.3125 C 6.101562 -0.226562 5.941406 -0.15625 5.765625 -0.09375 C 5.585938 -0.0390625 5.359375 0.0078125 5.078125 0.0625 C 4.796875 0.113281 4.507812 0.140625 4.21875 0.140625 C 3.53125 0.140625 2.878906 -0.0234375 2.265625 -0.359375 C 1.648438 -0.703125 1.148438 -1.171875 0.765625 -1.765625 C 0.390625 -2.359375 0.203125 -3 0.203125 -3.6875 C 0.203125 -4.207031 0.3125 -4.707031 0.53125 -5.1875 C 0.757812 -5.664062 1.054688 -6.070312 1.421875 -6.40625 C 1.785156 -6.75 2.210938 -7.019531 2.703125 -7.21875 C 3.191406 -7.425781 3.695312 -7.53125 4.21875 -7.53125 C 4.695312 -7.53125 5.132812 -7.472656 5.53125 -7.359375 C 5.9375 -7.242188 6.222656 -7.128906 6.390625 -7.015625 L 6.640625 -6.859375 L 5.921875 -5.421875 C 5.878906 -5.453125 5.816406 -5.492188 5.734375 -5.546875 C 5.648438 -5.597656 5.484375 -5.664062 5.234375 -5.75 C 4.984375 -5.832031 4.726562 -5.875 4.46875 -5.875 C 4.0625 -5.875 3.695312 -5.804688 3.375 -5.671875 C 3.050781 -5.546875 2.796875 -5.375 2.609375 -5.15625 C 2.421875 -4.9375 2.273438 -4.703125 2.171875 -4.453125 C 2.078125 -4.210938 2.03125 -3.960938 2.03125 -3.703125 C 2.03125 -3.140625 2.238281 -2.632812 2.65625 -2.1875 C 3.082031 -1.75 3.6875 -1.53125 4.46875 -1.53125 Z M 4.46875 -1.53125 "/></g></g></g></g><g clip-path="url(#520def5d10)"><g fill="#c8102e" fill-opacity="1"><g transform="translate(8.252261, 7.7259)"><g><path d="M -0.265625 -7.40625 L 1.765625 -7.40625 L 3.296875 -5.03125 L 4.84375 -7.40625 L 6.875 -7.40625 L 4.140625 -3.3125 L 4.140625 0 L 2.453125 0 L 2.453125 -3.3125 Z M -0.265625 -7.40625 "/></g></g></g></g><g clip-path="url(#58f4bb9586)"><g fill="#c8102e" fill-opacity="1"><g transform="translate(14.856474, 7.7259)"><g><path d="M 0.53125 -7.40625 L 2.828125 -7.40625 C 3.523438 -7.40625 4.078125 -7.253906 4.484375 -6.953125 C 4.898438 -6.660156 5.109375 -6.179688 5.109375 -5.515625 C 5.109375 -4.773438 4.800781 -4.242188 4.1875 -3.921875 C 5.238281 -3.742188 5.765625 -3.125 5.765625 -2.0625 C 5.765625 -1.4375 5.546875 -0.9375 5.109375 -0.5625 C 4.679688 -0.1875 4.09375 0 3.34375 0 L 0.53125 0 Z M 2.21875 -4.5 L 2.359375 -4.5 C 2.734375 -4.5 3.015625 -4.5625 3.203125 -4.6875 C 3.390625 -4.820312 3.484375 -5.039062 3.484375 -5.34375 C 3.484375 -5.84375 3.109375 -6.09375 2.359375 -6.09375 L 2.21875 -6.09375 Z M 2.21875 -1.296875 L 2.75 -1.296875 C 3.570312 -1.296875 3.984375 -1.570312 3.984375 -2.125 C 3.984375 -2.457031 3.878906 -2.691406 3.671875 -2.828125 C 3.472656 -2.972656 3.164062 -3.046875 2.75 -3.046875 L 2.21875 -3.046875 Z M 2.21875 -1.296875 "/></g></g></g></g><g clip-path="url(#7d2feb1ba0)"><g fill="#c8102e" fill-opacity="1"><g transform="translate(20.832565, 7.7259)"><g><path d="M 4.765625 -7.40625 L 4.765625 -5.921875 L 2.21875 -5.921875 L 2.21875 -4.453125 L 4.65625 -4.453125 L 4.65625 -2.96875 L 2.21875 -2.96875 L 2.21875 -1.484375 L 4.765625 -1.484375 L 4.765625 0 L 0.53125 0 L 0.53125 -7.40625 Z M 4.765625 -7.40625 "/></g></g></g></g><g clip-path="url(#eee7fc20c1)"><g fill="#c8102e" fill-opacity="1"><g transform="translate(26.036976, 7.7259)"><g><path d="M 0.53125 -7.40625 L 3.1875 -7.40625 C 3.894531 -7.40625 4.472656 -7.210938 4.921875 -6.828125 C 5.367188 -6.453125 5.59375 -5.910156 5.59375 -5.203125 C 5.59375 -4.660156 5.457031 -4.203125 5.1875 -3.828125 C 4.914062 -3.460938 4.546875 -3.207031 4.078125 -3.0625 L 6.625 0 L 4.484375 0 L 2.21875 -2.921875 L 2.21875 0 L 0.53125 0 Z M 2.21875 -4.109375 L 2.421875 -4.109375 C 2.578125 -4.109375 2.707031 -4.113281 2.8125 -4.125 C 2.925781 -4.132812 3.050781 -4.15625 3.1875 -4.1875 C 3.320312 -4.226562 3.429688 -4.28125 3.515625 -4.34375 C 3.597656 -4.40625 3.671875 -4.5 3.734375 -4.625 C 3.796875 -4.75 3.828125 -4.898438 3.828125 -5.078125 C 3.828125 -5.265625 3.796875 -5.421875 3.734375 -5.546875 C 3.671875 -5.671875 3.597656 -5.765625 3.515625 -5.828125 C 3.429688 -5.890625 3.320312 -5.9375 3.1875 -5.96875 C 3.050781 -6.007812 2.925781 -6.03125 2.8125 -6.03125 C 2.707031 -6.039062 2.578125 -6.046875 2.421875 -6.046875 L 2.21875 -6.046875 Z M 2.21875 -4.109375 "/></g></g></g></g><g fill="#c8102e" fill-opacity="1"><g transform="translate(32.461724, 7.7259)"><g/></g></g><g clip-path="url(#af25d9244f)"><g fill="#c8102e" fill-opacity="1"><g transform="translate(34.91138, 7.7259)"><g><path d="M 0.53125 -7.40625 L 3.1875 -7.40625 C 3.894531 -7.40625 4.472656 -7.210938 4.921875 -6.828125 C 5.367188 -6.453125 5.59375 -5.910156 5.59375 -5.203125 C 5.59375 -4.660156 5.457031 -4.203125 5.1875 -3.828125 C 4.914062 -3.460938 4.546875 -3.207031 4.078125 -3.0625 L 6.625 0 L 4.484375 0 L 2.21875 -2.921875 L 2.21875 0 L 0.53125 0 Z M 2.21875 -4.109375 L 2.421875 -4.109375 C 2.578125 -4.109375 2.707031 -4.113281 2.8125 -4.125 C 2.925781 -4.132812 3.050781 -4.15625 3.1875 -4.1875 C 3.320312 -4.226562 3.429688 -4.28125 3.515625 -4.34375 C 3.597656 -4.40625 3.671875 -4.5 3.734375 -4.625 C 3.796875 -4.75 3.828125 -4.898438 3.828125 -5.078125 C 3.828125 -5.265625 3.796875 -5.421875 3.734375 -5.546875 C 3.671875 -5.671875 3.597656 -5.765625 3.515625 -5.828125 C 3.429688 -5.890625 3.320312 -5.9375 3.1875 -5.96875 C 3.050781 -6.007812 2.925781 -6.03125 2.8125 -6.03125 C 2.707031 -6.039062 2.578125 -6.046875 2.421875 -6.046875 L 2.21875 -6.046875 Z M 2.21875 -4.109375 "/></g></g></g></g><g clip-path="url(#50bf5f0f3f)"><g fill="#c8102e" fill-opacity="1"><g transform="translate(41.336128, 7.7259)"><g><path d="M 4.296875 -7.40625 L 7.28125 0 L 5.46875 0 L 4.921875 -1.484375 L 2.109375 -1.484375 L 1.5625 0 L -0.25 0 L 2.734375 -7.40625 Z M 4.34375 -2.953125 L 3.53125 -5.109375 L 3.5 -5.109375 L 2.6875 -2.953125 Z M 4.34375 -2.953125 "/></g></g></g></g><g clip-path="url(#daddc65f10)"><g fill="#c8102e" fill-opacity="1"><g transform="translate(48.371052, 7.7259)"><g><path d="M 2.21875 -4.59375 L 2.21875 0 L 0.53125 0 L 0.53125 -7.40625 L 2.21875 -7.40625 L 5.171875 -2.8125 L 5.1875 -2.8125 L 5.1875 -7.40625 L 6.875 -7.40625 L 6.875 0 L 5.1875 0 L 2.25 -4.59375 Z M 2.21875 -4.59375 "/></g></g></g></g><g clip-path="url(#249bf51620)"><g fill="#c8102e" fill-opacity="1"><g transform="translate(55.782841, 7.7259)"><g><path d="M 7.234375 -4.140625 L 7.234375 -2.53125 C 7.035156 -1.65625 6.613281 -0.988281 5.96875 -0.53125 C 5.320312 -0.0820312 4.601562 0.140625 3.8125 0.140625 C 2.8125 0.140625 1.957031 -0.234375 1.25 -0.984375 C 0.550781 -1.734375 0.203125 -2.632812 0.203125 -3.6875 C 0.203125 -4.769531 0.546875 -5.679688 1.234375 -6.421875 C 1.921875 -7.160156 2.78125 -7.53125 3.8125 -7.53125 C 5.007812 -7.53125 5.957031 -7.109375 6.65625 -6.265625 L 5.5625 -5.0625 C 5.164062 -5.695312 4.613281 -6.015625 3.90625 -6.015625 C 3.382812 -6.015625 2.941406 -5.785156 2.578125 -5.328125 C 2.210938 -4.878906 2.03125 -4.332031 2.03125 -3.6875 C 2.03125 -3.0625 2.210938 -2.523438 2.578125 -2.078125 C 2.941406 -1.640625 3.382812 -1.421875 3.90625 -1.421875 C 4.34375 -1.421875 4.71875 -1.550781 5.03125 -1.8125 C 5.351562 -2.070312 5.515625 -2.414062 5.515625 -2.84375 L 3.8125 -2.84375 L 3.8125 -4.140625 Z M 7.234375 -4.140625 "/></g></g></g></g><g clip-path="url(#6ca8ad4469)"><g fill="#c8102e" fill-opacity="1"><g transform="translate(63.221558, 7.7259)"><g><path d="M 4.765625 -7.40625 L 4.765625 -5.921875 L 2.21875 -5.921875 L 2.21875 -4.453125 L 4.65625 -4.453125 L 4.65625 -2.96875 L 2.21875 -2.96875 L 2.21875 -1.484375 L 4.765625 -1.484375 L 4.765625 0 L 0.53125 0 L 0.53125 -7.40625 Z M 4.765625 -7.40625 "/></g></g></g></g></svg>
