<svg xmlns="http://www.w3.org/2000/svg" xml:space="preserve" viewBox="0 0 1713 695"><path fill="#FFF" d="M1097 696H1V1h1713v695h-617M216 211.4l-2 4.4c-2.2 4.3-2.6 9.8-7.7 12.3-3.7 1.9-5 4.8-4.4 8.9.1 1-.9 2.4-1.7 3.2-3.4 3-7.2 5.3-10.2 8.5-3.3 3.4-6.7 6.8-6.2 12.6.7 7.1.3 14.3.1 21.5 0 1.4-1 3.9-1.8 4-3.5.4-3.1 2.8-3.1 5v44c.1 3.3-.8 4.6-4 5.3-7.5 1.5-14.7 3.6-21.9 5.4v34.3c11.5.6 6.9 9.8 8.1 16h203.9V351l190.9 47V385c2.8-2.6 6.6-4.4 6.7-6.3.6-10.8.3-21.6.3-32.6-6.5-1.4-12.6-3-18.8-4-4.4-1-6.5-2.5-6.4-7.7.5-15.3.2-30.7.2-46.1-4.2-.2-5.2-2.4-5-6.2.2-7.8 0-15.6 0-23.5 0-1.3-.2-3.1-1-4-4-4.3-8-8.8-12.6-12.2-2.6-2-3.3-3.9-3.5-6.8-.2-1.8-1.6-3.5-2.8-5-2.7-3-6.1-5.3-7.2-9.9-1.1-4.5-3-8.9-5-13a204.9 204.9 0 0 0-51.4-66.8c-14.2-12-29.4-22-46.6-29-4-1.5-8.5-2.2-9.3-7.6-.2-.9-1.6-1.8-2.6-2.3-3.4-1.7-7-3-10.4-4.9-1.6-.8-3.6-2-4.1-3.4-2.1-6.2-3.8-12.7-5.3-18.3-1.8-2-4.5-3.8-4.5-5.5 0-2 2.4-4 4.3-6.6-2.2-3.3-4.6-7.5-7.7-11.3-2.6-3.3-6.1-3.3-8.8.1-3 3.8-5.4 8-7.8 11.6l6.1 5.5-5.7 5.5c-1.8 6-3.4 12-5.3 17.8-1 3-3.3 4.4-6.3 5.7-4.2 2-7.6 5.5-11.3 8.3-1.4 1.1-2.4 2.7-4 3.5-11.1 5.7-23 10.5-33.5 17.2a173.8 173.8 0 0 0-40 35.5 189.9 189.9 0 0 0-30.8 48.7m829 222.9-16 37.5-12.7 30-14.2-31-22-47.6c-.6-1.3-2-3-3-3-10-.3-20-.2-29.7-.2v7.9c10 .1 14 3.8 13.8 13.7-.3 20.6-.1 41.3-.1 62 0 10-1 11.3-10.8 13.4l-2 .4v7.3H986v-7.1c-10.8-2.8-13.1-2.5-13-16.5.2-11.3.1-22.7.1-34v-13.7l32.7 71.5h12.7l31-73.5c.6 19.3.6 38.2.6 57.2 0 4-1.6 6.5-5.6 7.4l-6.1 1.5v7.2h41.6v-7.1c-9.7-2.2-11.8-4.2-11.8-13.5-.2-20.7-.1-41.4 0-62 0-3 .3-6 1.2-8.7 1.8-5.4 6.7-5.4 11.5-5.5v-7.7h-30.3c-1.8 4.4-3.7 8.8-5.6 14M484 503.5v-16h43c0 5.7.2 11 0 16.4-.3 3.5-.5 7.5-2.3 10.2-1.5 2.2-5.5 2.6-8.3 3.9v6.9h38.4v-7.5c-8.2-1.5-10.5-2.5-10.7-12.7-.3-13.7-.1-27.4-.1-41 0-10.5 1.1-12 10.8-14.3v-7h-38.6v7.4c7.8.7 10.3 2.2 10.7 7.8.4 6.4 0 12.8 0 19.2H484v-15.3c0-9 1.1-10.4 9.7-12v-7h-38.5v7.2c9.5 1.1 10.8 2.6 10.8 12.2v44c0 8.5-.9 9.6-9.4 11.2l-1.3.5v7.2h38.6v-6c-3.7-2.6-7.1-4.3-9.4-7-1.2-1.6-.4-4.8-.5-8.3M1507.5 442h-17.2v7.9c10 .4 11.7 2.2 11.7 11.8v47.5c0 3.7-1.4 5.9-4.9 6.8l-4.7 1.5v7.3h38.4v-7.5c-4.6-1.1-10.3-.7-10.7-7.2-.4-5.9 0-11.9 0-18 5.4.2 10.9-1.4 14.4 4 3.6 5.4 6.8 11 10.7 16.2 4.4 6 9.5 11.5 17.3 12.5 5.6.8 11.5.2 17.4.2v-7.2c-15.7-5-22.1-19.3-31.5-30 3.4-2.4 7-4.3 10-7 8.6-7.8 10.5-22.3 2-31a27 27 0 0 0-19.4-7.7c-10.8-.3-21.7-.1-33.5-.1m-151.3 1a66 66 0 0 0-34.5-2 41.9 41.9 0 0 0-35 49 40 40 0 0 0 18.2 29.3c11.4 7.5 24 8.6 37.5 6.9a43.2 43.2 0 0 0 37.8-45.3c-1.1-17-7.5-30-24-37.9m-1135-2c-9 0-18.1-1.1-27 .3a41.4 41.4 0 0 0-35 46.6c.8 6 2.5 12.3 5.3 17.8a37.6 37.6 0 0 0 27.6 19.8c19.8 4.2 37.6.5 51.3-15.5 12.3-14.4 12.2-36.5 2.6-52.4-5.4-9-14.2-13.5-24.8-16.6M81 440.8c-2 6.2-1.1 12.3 1.4 18 3.7 8.4 11.1 12.6 19 16.1 8.4 3.9 17.4 6.8 25.6 11.3 8.8 4.8 10 16.7 2.6 23.4a27.5 27.5 0 0 1-11.9 6c-8 1.8-22 0-26.9-9.5-1.9-3.6-2.6-7.8-3.8-11.8h-7.5v26.3c2.8.4 5.4.7 8 1.3 10.7 2.4 21.3 5.4 32.7 3.3 13.2-2.5 23.7-7.9 29.5-20.5 3.8-8 3.8-23.4-5-29.3a132 132 0 0 0-16.2-9.3c-8.1-4-16.8-6.9-24.7-11.3-8-4.5-9.1-17.3-2.2-21.6 8-5 17-5.8 25.7-2 7 3 10 9 9.8 16.6h8.4v-26.2c-11.9-.5-24.2-2-36.5-1.4-12.9.7-23.5 6.3-28 20.6m538 33.8c-.9.8-1.8 2.1-2.8 2.2-6.6.7-13.3 1-19.8 1.6V451h19.8c9.5 0 12 2.2 13.3 11.8h8v-21h-71.3v7.8c8.5 1 11.7 3.2 11.8 9v51c-.1 3.3-1.5 6-5.5 6.5-1.8.2-3.6 1-5.3 1.4v7.3h74.5v-21.5h-7.5c-.3 5-1 10.6-6.6 11.2-8.4.9-17 .6-25.3 0-2.3-.3-5.7-3.7-6-6-.8-7-.3-14.2-.3-21.5 4.3 0 8-.3 11.5 0 3.7.4 8 .4 10.8 2.3 2.1 1.4 2.5 5.5 3.7 8.5h6.8v-30.6h-7.1c-.8 2.5-1.5 4.6-2.6 7.4M318 446.4l.3 3.4c10.5.5 13.3 4.9 12.8 13.4-.5 10.1 0 20.3-.2 30.5-.2 7.5-2.7 14.5-10.3 17.2-5.7 2-12 3.1-18 2.9a20.5 20.5 0 0 1-20.7-21.5c.3-11.4 0-22.7.1-34 0-4.8 2.4-7.6 7.1-8.3l2.7-.3v-7.5h-38.6v7.5c9.2.8 10.8 2.6 10.8 11.7 0 11.3-.3 22.7 0 34 .5 13.6 6 23.1 19.7 27.5 12.1 3.8 24.5 4.5 36.7.9 13.3-4 22-14.3 21.7-28.7-.3-10.7-.1-21.4-.1-32 0-9 2.8-12.3 11.7-13.5V442h-33.1c-3 0-2.6 1.7-2.6 4.4m1153 26.1V460c0-5.3 2.5-8.6 7.6-9.8 1.4-.3 2.8-.3 4.2-.5v-7.5h-35.6v7.4c9.5 1.2 13.2 3.4 12.9 14.6-.3 9.6.4 19.3-.3 29-.4 4.5-2.2 9.6-5 13.2-7 8.8-17 8.6-27 6.9-6.4-1.2-12.3-4-14.7-10.6a49.6 49.6 0 0 1-3-14.1c-.4-8.5-.1-17-.1-25.5 0-9.8 1.5-11.7 10.6-13.7v-7.2h-38.4v7.4c9 .5 10.9 3.4 10.8 12.3v34c0 15 7.3 23.1 20 27a64 64 0 0 0 31.5 2c15.4-2.9 27-13.6 26.5-31-.2-6.7 0-13.6 0-21.4M673.5 509c1.5-3.4 2.8-7 4.6-10.2.7-1.2 2.4-2.6 3.7-2.7 10-.2 20-.1 29.8-.1 1.8 4 3.4 7.7 5.2 11.4 2.6 5.5 1.8 7.3-3.8 9.1l-2.7 1v7.2h38.6v-7.5c-6.5-.6-10.5-4.4-13-10.2l-3-7.2c-8-18.1-16-36.3-24.3-54.5-.6-1.3-2.3-3-3.6-3.2-12-1.7-12.7-1.2-17.1 10.2-.3 1-1 1.7-1.3 2.6-7.4 16-15 32-22 48.2-3.2 7.4-7.2 13-15.4 14.2v7.5h33.6v-7.5c-4.4-1.2-9.6-1.3-9.3-8.3m139 6c7-9.3 8.2-23.1-1.4-30.3a46.3 46.3 0 0 0-7.4-4.7c-7.7-3.8-15.6-7-23.2-11-7.7-4-8.6-9.8-5.3-14.5 4.7-6.7 22.2-6.2 27.1.4.7.9 1.6 2 1.6 3-.5 7.1 4 6.5 8.7 5.8v-20.4c-2.2-.3-4-.8-5.7-.8-10.5-.2-21.2-2-31.4-.1-20.1 3.6-23 23.1-14 35 3.5 4.6 9.6 7.5 14.9 10.5 6.2 3.4 13 5.7 19.2 9.2 5.5 3 6 10.2 1.9 15-4.7 5.4-17.6 6.5-26 2-6.4-3.6-6.7-9.9-7.9-15.8h-7.5v23.3c6.6 1.4 13 3.4 19.5 4 13.4 1.4 26.3.4 37-10.7m348-72c-16.3 5-19.4 21.3-12.5 33 4 7 11.4 10 18.5 13.2 6.4 2.9 13 5.9 18.6 10 4.5 3.1 3.7 10-.5 13.7-10 8.8-28.6 3.8-32.3-8.9-.5-1.8-.5-3.8-.7-5.6h-7.5v23.2c3.2.8 6.3 1.7 9.5 2.4 13 2.7 26 4 38.7-2.5A25 25 0 0 0 1205 494c-2.3-9-9.8-12.5-17.2-16-7.6-3.6-15.5-6.7-22.5-11.2-6.3-4-5.4-12 1-15.5 11-6.2 24.2 0 26.3 12.4h7.9v-21.4c-13.2 0-26.3 0-40 .6m61.4 34.5c4.6 3.3 9 7 14 9.8 6 3.4 12.6 5.7 18.8 8.8 6.2 3.2 8.7 10 4.7 14.7-2.5 2.9-6.9 5-10.7 5.8-8.4 1.9-20.5-.4-23.3-11.7-.6-2.1-.5-4.4-.7-6.5h-8.1v23.3l4.6 1a82.6 82.6 0 0 0 28.2 3.3c10-1 19.2-4 25-12.9 6.4-9.9 6-22-2.6-28.6-3.5-2.6-7.5-4.5-11.4-6.4-7.1-3.4-14.6-6.3-21.5-10.1-6.2-3.5-6.7-10-1.4-14.8 6.2-5.5 13.7-3.6 20.5-1.8 5.5 1.4 7.5 6.7 7 12.5h8.5v-21.3c-10.5-.5-21-1.4-31.5-1.4-10.6 0-21 6.2-23.4 15.9-1.7 6.8-1 13.6 3.3 20.4M875 469.5V451c3.8 0 7-.3 10 0 10.2 1.4 15.8 1 16.4 14.8h7.4v-24.2h-85.3v24h8.4c-1.5-14 9.2-15.8 25.1-14 0 18.3-.2 36.6 0 54.9.2 9-3 8.8-9.2 10.5-.8.2-1.8.2-2.6.3v7.5h41.6v-7.4c-9.6-2.2-12.2-1.7-11.9-14 .4-11 .1-22 .1-33.9M430.1 452c7.4 1.7 8.7 7.4 9.1 13.7h7.6v-24.1h-85.4v24.2h7.2c.6-14.1 8.3-15.7 26.4-14.2 0 19 .1 38.2-.2 57.3 0 2.3-2.3 5.2-4.3 6.7-1.9 1.4-4.9 1.2-7.2 1.7v7.3h40.5v-7.2c-9.3-2.4-11.6-2-11.8-13.9v-53l18.1 1.5m126.3 138c-4.6-5.4-9.2-10.8-14-16-2-2.2-4.5-5.4-7-5.7-6.7-.8-13.5-.3-20-.3v6.9c8.8.3 11.6 3.2 11.6 12v27c0 9.2-.6 10.1-8.7 12.9v6h26.4v-6.6c-7.5-.5-9.7-3-9.7-10.2v-28.2l13.7 15.4c6.6 7.6 13 15.3 19.8 22.7 3.7 4.1 7.2 9.5 14.5 6.4V587c0-9.3 1.2-10.8 9.7-12.5V568h-27.5v6.9c5-.1 9.4 1.5 9.7 6.9.5 8.9 0 17.8 0 27.8-6.4-7-12.2-13-18.5-19.7m689.2 13.2-13.5-13c2.4-2 5.5-4.3 8.3-7 7-7 6.5-21-3-26.2-10-5.4-22-5.5-31.4.9-5 3.3-8 8.3-8.1 14.9-.3 10.6 5.8 16.7 14 22l-6.4 4.4c-5.4 4.1-8.4 10-8.3 16.4.2 7.1 3.6 13.3 10.8 16 10 3.6 20.2 4 29.7-1.5 8.5-5 13.8-16 8-26.9M818.4 626c6.4 8.3 15.3 7.4 24.4 6.7v-6c-12.4-3.3-17-14.4-23.6-22.6l7.8-6.7c5-4.4 5.7-10.2 4.5-16.2-1.4-7-6.8-11.5-12.8-11.9-14.8-1-29.7-.3-44.5-.3v5.9c7.9-.6 9.8 3.7 9.7 9.8v30.5c0 9.1-.5 9.7-8.6 11.4v6h29.4v-6.2c-8.7-.4-8.6-5.4-7.2-19.4 5.3.5 10.3.7 12.7 7.3 1.5 4 5 7.5 8.2 11.7M751 605.6l1.4 6.1h6.2v-23.4h-6.6c.7 8.1-5.5 8.6-18.8 7.2v-19.6c4.6-.3 9-.9 13.5-.8 8.8 0 10.8 1.7 12.9 9.7h5v-16.6h-53.5v6.5c7.5.7 8.8 2.2 8.8 9.6v32c0 7.7-.7 8.7-7.8 10.4v6h56.5v-17.4h-6.5l1.2 1c-1.8 2.8-3 7-5.5 8-6.8 2.7-14.1 1.9-21-.5-1.3-.4-2.6-2.3-2.8-3.6-.7-5.6-1-11.3-1.6-18.3 6.9 1.2 12.4 2.2 18.6 3.7m-393.5-29.5c4.4-.3 8.8-1 13.2-1 9 0 10.8 1.7 12.9 10l5-.3v-16.6h-53.5v6.5c7.5.8 8.8 2.2 8.8 9.6v32c0 7.7-.8 8.7-7.8 10.4v6H393v-17.5h-6.8c.6 9.5-5 12.1-21.6 9.8-7.3-1-9.8-8.9-7-21.8 15.9-1 17.4-.3 19 8.5h6v-23.5h-6.2c-.6 8.6-5.1 8.6-19.3 7.1 0-6.1 0-12.2.5-19.2m142.4 35v-26.5c0-7.8 1-9 8.7-10v-6.3h-27.4v6.5c8.3.5 9.7 2 9.7 10.2 0 8 .2 16 0 24-.2 2.5-1 5.2-2 7.4-4 8.1-14.8 8.7-21.7 7.2-9.3-2-13.3-7.5-13.3-17.1V585c0-8.4.2-8.6 7.8-10.8v-6h-29.6v6.6c7 .6 7.8 1.4 7.8 8 0 8.7-.3 17.4.1 26 .4 7.6 2.1 14.7 9.3 19.4 10.1 6.6 21 5.5 31.8 4 11.2-1.7 17-9.2 18.8-21m597.6-86.2h33.2v-7.5c-10.2-2-10.8-2.7-10.8-13.2v-42.5c0-9.6 1.4-11.1 10.8-12.2v-7.3h-39.5v7.5c7.8.5 10.6 2.6 10.7 8.2v51c0 3.6-1.2 6.7-5.8 7-1.7.2-3.3 1-4.9 1.5v7.5h6.3m-854 62c-2.3-5.2-4.4-10.4-6.9-15.5-.7-1.4-2.2-3.1-3.6-3.4-7.2-1.4-9-.3-11.9 6.2l-1 2.2c-6 13.4-12.3 26.8-18 40.3-2.3 5.1-5 9-10.9 9.5v6.4h25.5v-6.2c-2.8-.9-6.6-2.7-6.5-4.2.4-3.9 2-7.9 4-11.2.7-1.2 4-1 6.3-1 3-.2 6 .3 9-.2 6.5-1 10.3 1 12.5 7.7 2.3 6.7 2.2 8-4.9 8.8v6.4h29.6V626c-4.5.2-7.2-2.1-8.8-6-4.6-10.8-9.4-21.6-14.5-33m1367-62.1h15.4v-7.5c-9.4-2-10.9-3.9-10.9-13.4v-41.4c0-9.9 1.4-11.6 10.7-13.3v-7h-38.4v7.5c8.5.3 10.7 2.5 10.7 10.8V504c0 9.5-1.5 11.4-10.7 13.4v7.5h23.2M1081 569.6c-.3-.5-.7-1.5-1-1.5h-25.7v6c2.2 1 5.3 1.7 5.3 2.5.1 2-.8 4.5-2 6.2-2.8 3.8-6 7.3-9.3 11.2l-11.3-14.6c-2-2.4-1.2-3.9 1.8-4.4l3-.4v-6.4h-32.6v5.4c3 2 6 3 7.8 5 5.6 6.4 10.3 13.6 16.2 19.7 5 5 6.2 10.6 5.9 17.4-.4 8.5-.5 9-9 11v6h31.7v-6.3l-1 1c-2.5-1.7-7-3-7.4-5.2-1.6-8.6-4.7-17.8 3.2-25.4 2.2-2.2 3.5-5.2 5.7-7.3 5.6-5.6 9-14 18.7-14.8v-5.1m225 76.8c.4.8.6 1.6 1.1 2.2 8 9 24.6 9.6 36.1 2.9 10-5.9 13.6-23.4 6-30.8-4.3-4-9.3-7.5-14-11.2l2.4-1.7c8-5.8 11.7-16 8.5-23.6-3-6.9-9-9.3-15.5-10-7.7-1-15.3.2-20.3 7.1-6 8.6-4.2 14.5 4.7 15.4 0-1.3-.3-2.6 0-3.9 1-3.6 2.5-6.7 7-6.8 4-.1 7.9-.2 10 3.9 2 4.3 2.1 8.7-1 12.5-3.7 4.6-7.5 9-11.3 13.4l-1.2-1.3.7 3.5c4.3 1.9 8.4 3.4 12.3 5.2 6.4 3.1 9.5 10.9 6.8 17-2.6 6.1-10 9.3-16.8 6.8-4.1-1.5-8-3.6-12.5-5.7-.8 1.2-1.9 2.8-3 5.1m-1218.9-75c-2 2.7-5 5.1-6 8.2-3.4 10.8 1.5 18.4 10.6 22.7 5.4 2.6 11 5 16.2 7.8 3.1 1.6 6 4 5 8.1-.7 3.6-2.5 6.1-6.5 7-9.3 2-19.4 1.4-20.9-13h-6v18.5c5 .8 9.7 1.8 14.6 2.2 4.8.4 9.7.4 14.5 0 11.5-.9 19.8-12.9 17.6-24-1.6-7.7-7.7-9.9-13.4-12.9-5.8-3-12-5.6-17.4-9.4-4-2.9-2.8-8 1.4-10.5 8.6-5 18.6-.2 19.5 9.7h6.7v-16.4c-24-2.8-26.5-2.6-35.9 2m801.2 56.5c9.1-8.8 9.4-20.3.3-27.7-2.9-2.2-6.5-3.5-9.9-5.2-4.7-2.4-9.7-4.4-14.2-7.2-2.6-1.6-3.8-4.3-2.6-7.9 1.2-3.7 3.7-4.7 7-4.9h7c3.7 0 6.2 1.7 7.6 5 .8 2 1.3 4 2 5.8h5.3V568c-9 0-17.7-.4-26.4.1-7.4.5-13.9 6-15.3 11.8-2.2 8.7.3 16 7.9 20.5 5.7 3.3 11.8 5.9 17.9 8.6 4.8 2.2 6.9 5.5 6 10.4-.6 4.5-4.3 6-8 6.5-12 1.5-16.8-2-19.5-14l-5 .3v18.4c5.2 1 10.2 1.7 15.2 2.7a31 31 0 0 0 24.7-5.4m-187.5-52.1 4.9-1.2v-6.3H680v6.2c5 1 8 3.8 6.7 6.8-4.6 10.9-9.4 21.7-14.6 33.3l-13.6-32.4c-2.6-6.4-2.5-6.6 4.1-7.7v-6.2h-29.6v6.2c5.3 1 7.6 2.5 9.5 6.7 3 6.5 5.6 13.1 8.4 19.6l14.7 33c3-1 7.2-1 8-2.7 5.8-12.2 10.7-24.9 16.4-37.2 2.9-6.1 6.7-11.8 10.7-18.1M318.5 568h-57v18.7h6.4c-.5-9.7 4.4-12.3 19.1-10v39.5c0 8.5-.5 9-8.7 10.3v6.2h31.4V626c-4.3.2-8.5-.2-8.6-5.2-.3-14.8-.1-29.6-.1-44.3 11.7-.6 17.5-3 20.5 10.2h5.2V568h-8.2m679.2 15.2.7 3.6h5.4v-18.6h-64.5v18.5h5.5c.1-11.2 7.2-11.9 20.2-10v38c0 8.9-1.4 10.6-9.7 11.8v6.2h31.4v-6.6c-7.2-.4-8.7-2-8.7-8.7V576h11.1c4.3.2 7.2 2.2 8.6 7.2M160.5 633h18.2v-6.9c-7.2-.4-8.7-2-8.7-8.6v-41.2c16-1.1 19 .4 20.5 10.4h5.2v-18.4h-64.4v18.5h5.2c2.3-10.8 4.3-12 20.5-10.2V616c0 8-1 9.2-8.7 10.5v6.5h12.2m321.6-236h3.4v-1.2L380.5 370V397H482m796.3 191h10.6l-37.6 67.2 8 3.9c2.7-5.1 5.2-10 8-14.8 10.8-19.4 21.8-38.6 32.4-58 1.7-3.2 2-7 3-11h-52.2l1.5 12.7h26.3M620 583.7c0-7.3 0-7.3 7.8-9.4v-6h-29.6v6.4c6.5.6 7.8 2 7.8 8.4v34.5c0 6.6-1.2 8-7.8 8.8v6.3h29.6v-6.5c-7-.6-7.8-1.4-7.8-8v-34.5m306.5 41.4c-.8-2.1-2.3-4.2-2.4-6.3-.2-11.6-.1-23.3-.1-35 0-7.7.2-8 7.7-9.4v-6h-29.5v6c7.5 1.3 7.8 1.6 7.8 9.6v33.4c0 7.5-.5 8-7.7 9v6.6h29.5v-6.7c-1.7-.3-3.2-.5-5.3-1.2m238.5-35.2v26c0 9 0 9-8.7 10.7v6h31.4v-6.5c-7.7-.3-8.7-1.3-8.7-8.5v-45l-23.7 4.4c-.7 3.2-.2 4.8 3.1 5.1 3.9.4 6.9 2.2 6.6 7.8m200.9-21.4c-.3 1-.8 1.8-.9 2.7-1 12.5 5.2 24.8 20.4 27.2 19.1 3 34.6-10.6 29.9-30.9a21.5 21.5 0 0 0-16.5-17c-3.7-1-7.9-.5-11.8-.5-10.2 0-18.9 7.5-21.1 18.5M1112 608c1-.5 2.1-1 3-1.6 4.1-3 5.2-7.4 2.7-11.1-2.6-4-7.2-5-11.5-3-5 2.2-5 6.7-4 10.5 1 4 4.8 5.6 9.8 5.2z"/><path fill="#C8102E" d="M216 211c7.7-18 18.3-33.6 30.7-48.3 11.6-13.8 24.8-26 40-35.5 10.6-6.7 22.4-11.5 33.6-17.2 1.5-.8 2.5-2.4 3.9-3.5 3.7-2.8 7.1-6.3 11.3-8.3 3-1.3 5.3-2.7 6.3-5.7 1.9-5.8 3.5-11.7 5.3-17.8l5.7-5.5-6.1-5.5c2.4-3.7 4.9-7.8 7.8-11.6 2.7-3.4 6.2-3.4 8.8 0 3 3.7 5.5 7.9 7.7 11.2-1.9 2.7-4.3 4.6-4.3 6.6 0 1.7 2.7 3.5 4.5 5.5 1.5 5.6 3.2 12 5.3 18.3.5 1.5 2.5 2.6 4 3.4 3.5 1.8 7 3.2 10.5 5 1 .4 2.4 1.3 2.6 2.2.8 5.4 5.3 6.1 9.3 7.7 17.2 6.9 32.4 16.9 46.6 28.9 22 18.6 38.7 41 51.3 66.7 2.1 4.2 4 8.6 5 13.1 1.2 4.6 4.6 6.9 7.3 10 1.2 1.4 2.6 3.1 2.8 4.9.2 3 .9 4.8 3.5 6.8 4.7 3.4 8.5 8 12.5 12.2.9.9 1 2.7 1 4 .1 7.9.3 15.7 0 23.5-.1 3.8.9 6 5.1 6.2 0 15.4.3 30.8-.2 46-.1 5.3 2 6.9 6.4 7.7 6.2 1.2 12.3 2.7 18.8 4 0 11 .3 21.9-.3 32.7 0 2-3.9 3.7-6.7 6.3V398l-191-47v45.6H161.3c-1.2-6.1 3.4-15.3-8.1-16v-34.2c7.2-1.8 14.4-3.9 21.8-5.4 3.3-.7 4.2-2 4.2-5.2-.2-14.7-.1-29.3-.1-44 0-2.3-.4-4.7 3.1-5.1.8-.1 1.8-2.6 1.8-4 .2-7.2.6-14.4 0-21.5-.6-5.8 2.8-9.2 6.1-12.6 3-3.2 6.8-5.6 10.2-8.5.8-.8 1.8-2.2 1.7-3.2-.6-4.1.7-7 4.4-8.9 5.1-2.5 5.5-8 7.7-12.3l2-4.8m172.9-97.6-1.4-.2 1.2 2c3.8 4.3 7.9 8.3 11.3 13 16 22.1 26.4 47 33.5 73.2 1 3.4 2.7 3.9 5 4.6 10.8 3 21.6 5.8 32.1 9.4 7.8 2.6 15.3 6.2 23.1 9.5a174.3 174.3 0 0 0-36.2-63.7 156.2 156.2 0 0 0-41.6-35c-8.6-4.8-17.9-8.3-27-12.8M512.6 254a51.5 51.5 0 0 1 8.5 27c0 1 1 2 1.6 2.9.4-1 1.2-1.8 1.2-2.7.2-4.5-.6-9.2.2-13.5 1.8-8.8-3.5-13.8-9.2-18.2-16-12.4-34-21.3-53.2-27.7a231.5 231.5 0 0 0-47.2-10.9c-13.2-1.5-26.4-3.6-39.6-3.8-19.2-.2-38.4.5-57.5 2-13.6 1-27.3 3.2-40.4 6.6a331.7 331.7 0 0 0-43.6 14.7c-14 5.8-26.6 14.3-37.9 24.6-1.9 1.8-2.9 4.6-4.3 7a23 23 0 0 0 14.6-10c4-6 10.1-9.8 18-9 6 .5 11.6.2 17.3-2.5 6.2-2.9 13-4.4 20-6.7v30c16.5-5.7 33.4-1.3 49.8-3.3 2-22.7 15-41.1 41.3-45.4 10.9-1.7 21.8 0 31.8 5.8 15.4 8.8 22 23 24.1 40h13.6c12.3 0 24.5-.5 36.5 3.8 7.2 2.6 7.5 1.9 10.8-4.9l2-3.9c5-8.8 12.5-13.7 22.9-13 7.5.7 13.4 4.8 18.7 11M409 164.4c-7-18.5-16-35.7-31.7-48.3-6.8-5.4-14.5-8.6-23.6-6.4-12 3-19.8 11.3-26.8 20.7a184.5 184.5 0 0 0-25.5 53.8c-2 5.7-3.2 11.6-4.9 17.8 42-5.7 83.1-5.5 125.8.3l-13.3-38M301.5 269h-22.2v46h2.3c20.9-5.2 41.7-10.5 62.6-15.6 5.4-1.3 11.1-3.9 16.1-3 14.3 2.7 28.3 7 42.4 10.5l34 8.2V269h-37.3c-2.1-20.2-3-23.7-9.1-31.1A40 40 0 0 0 362 223c-11.7-1-22 3.2-30.3 11.1A43.9 43.9 0 0 0 319 269h-17.4m243.2 105 10.3 2c0-6.8.1-13.3-.1-19.7 0-1.1-1.6-2.9-2.7-3.2-17.7-4.5-35.5-8.7-53.2-13.1l-108.4-26.7-30.6-7.5v12.8c0 9.3 0 9.2 9.3 11.5l82 20.5C482 358.3 513 366 544.6 374M529 323.5c0-8.2-.2-16.3 0-24.5.2-3.3-1-4.6-4.2-5.1-3.5-.6-6.9-1.8-10.2-3-1-.3-2.2-2-2-2.8a42 42 0 0 0-7-29.1c-8.4-12.9-21-8.3-26.4.1-3.5 5.4-5.2 12-8 19l-25-7v46.4L529 338v-14.4M213.5 256c-1.2 1.3-2.5 2.6-3.5 4a42 42 0 0 0-6 27.2c.4 8.3 3 15.6 9.1 21.5 4.5 4.3 9.8 5.2 15.8 3.2v15.8l40.8-10V271l-25.6 7.1c-2-5.6-3.5-11.3-6-16.4-5.7-11-16-13.5-24.6-5.6m78 102 61.3-15.2v-6.2l-183.6 45.5v5.4c4.7-1 9.2-1.8 13.6-2.9l55.5-13.6c17.5-4.3 34.9-8.7 53.1-13m-49-141 40.6-13.3c4.7-12.9 8.9-26.7 14.8-39.7 6-13.2 13.7-25.6 20.6-38.3a90.5 90.5 0 0 0-12 12.5 207.5 207.5 0 0 0-30.5 58.4 6.8 6.8 0 0 1-3.6 3.6l-40.5 14.9c-4 1.5-6.6 4.1-6.5 9 5.6-2.5 11-4.8 17-7.2m79.4-94.3 1.2-.5c-.4 0-.7-.2-1.2.5zM1045 433.9c1.8-4.9 3.7-9.3 5.5-13.7h30.3v7.7c-4.8 0-9.7 0-11.5 5.5-.9 2.7-1.2 5.8-1.2 8.7-.1 20.6-.2 41.3 0 62 0 9.3 2.1 11.3 11.8 13.5v7.1h-41.6v-7.2l6.1-1.5c4-.9 5.6-3.3 5.6-7.4 0-19 0-38-.7-57.2l-31 73.5h-12.6L973 453.4V501c-.2 14 2 13.7 12.9 16.5v7.1h-37.6v-7.3l1.9-.4c9.8-2.1 10.8-3.4 10.8-13.5 0-20.6-.2-41.3.1-62 .2-9.8-3.7-13.5-13.8-13.6V420l29.7.1c1 0 2.4 1.8 3 3l22 47.7 14.2 31 12.8-30 16-38zM484 503.9c.1 3-.7 6.2.5 7.7 2.3 2.8 5.7 4.5 9.4 7.1v6h-38.6v-7.2l1.3-.5c8.5-1.6 9.4-2.7 9.4-11.2v-44c0-9.6-1.3-11.1-10.8-12.2v-7.2h38.5v7c-8.6 1.6-9.7 3-9.7 12v15.3h43c0-6.4.3-12.8-.1-19.2-.4-5.6-3-7.1-10.7-7.8v-7.5h38.6v7c-9.7 2.5-10.8 4-10.8 14.4 0 13.6-.2 27.3 0 41 .3 10.2 2.6 11.2 10.8 12.7v7.5h-38.4v-7c2.8-1.2 6.8-1.6 8.3-3.8 1.8-2.7 2-6.7 2.2-10.2.3-5.4.1-10.7.1-16.4h-43v16.5zM1508 442c11.3 0 22.2-.2 33 0a27 27 0 0 1 19.4 7.9c8.5 8.6 6.6 23.1-2 31-3 2.6-6.6 4.5-10 6.9 9.4 10.7 15.8 25 31.5 30v7.2c-6 0-11.8.6-17.4-.2-7.8-1-13-6.6-17.3-12.5-4-5.1-7.1-10.8-10.7-16.2-3.5-5.4-9-3.8-14.5-4 0 6.1-.3 12.1 0 18 .5 6.5 6.2 6 10.8 7.2v7.5h-38.4v-7.3l4.7-1.5c3.5-1 5-3.1 5-6.8-.2-15.8-.1-31.7-.1-47.5 0-9.6-1.7-11.4-11.7-11.8V442h17.7m12 30.5V484c4 0 7.5-.2 11 .1 6.9.6 11.3-1.8 14.6-8.2 2.6-5 1.9-15.6-1.3-19.1-6.8-7.5-15.2-7.4-24.3-5.4v21zM1356.5 443.2c16.2 7.7 22.6 20.7 23.7 37.7a43.2 43.2 0 0 1-37.8 45.3c-13.5 1.7-26.1.6-37.5-6.9a40 40 0 0 1-18.2-29.4 41.9 41.9 0 0 1 35-48.8 66 66 0 0 1 34.8 2.1m-48 25.9c-1.7 7-2.8 13.8-1.7 21.2 2 14 10.4 28 29.7 26.8 9-.5 15.5-4.3 19.4-12a48 48 0 0 0 2-38.2c-4-12.4-12.6-18-24.4-17.7-12 .2-21.3 7.1-25 19.9zM221.7 441c10 3.1 18.9 7.5 24.3 16.6 9.6 16 9.7 38-2.6 52.4-13.7 16-31.5 19.7-51.3 15.5-12-2.5-22-8.5-27.6-19.8a56.7 56.7 0 0 1-5.3-17.8c-1-8.5-.3-17 4.1-24.8a41.4 41.4 0 0 1 31-21.8c8.8-1.4 18-.3 27.4-.3M179 486.4c-.1 15.5 10 32.9 30.4 30.7 8.4-.8 17.7-6.6 20.5-15 4.1-12 4.5-23.9.2-35.9-3.6-10-10.7-16-21-17-9.8-1-18.3 2.5-24.2 11a40.9 40.9 0 0 0-5.9 26.2zM81 440.3c4.5-13.8 15.1-19.4 28-20 12.3-.6 24.6.8 36.5 1.3v26.2H137c.3-7.7-2.9-13.6-9.8-16.6-8.8-3.8-17.7-3-25.7 2-7 4.3-5.8 17.1 2.2 21.6 7.9 4.4 16.6 7.3 24.7 11.3a132 132 0 0 1 16.3 9.3c8.7 6 8.7 21.3 5 29.3-6 12.6-16.4 18-29.6 20.5-11.4 2-22-.9-32.7-3.3-2.6-.6-5.2-.9-8-1.3v-26.3H87c1.2 4 2 8.2 3.8 11.8 4.9 9.4 18.8 11.3 27 9.4 4.1-1 8.6-3 11.8-5.9a14.4 14.4 0 0 0-2.6-23.4c-8.2-4.5-17.2-7.4-25.7-11.3-7.8-3.5-15.2-7.7-18.9-16a26 26 0 0 1-1.4-18.6zM619.3 474.3c1-2.5 1.6-4.6 2.4-7h7v30.5H622c-1.2-3-1.6-7.1-3.7-8.5-2.9-1.9-7.1-1.9-10.8-2.2-3.6-.4-7.2-.1-11.5-.1 0 7.3-.5 14.5.3 21.5.3 2.3 3.7 5.7 6 6 8.4.6 17 .9 25.3 0 5.6-.6 6.3-6.2 6.6-11.2h7.5v21.5h-74.5v-7.3c1.7-.5 3.5-1.2 5.3-1.4 4-.5 5.4-3.2 5.4-6.5.2-17 .2-34 0-51 0-5.8-3.2-8-11.7-9v-7.8h71.2v21h-8c-1.2-9.6-3.7-11.8-13.2-11.8h-19.8v27.4l19.8-1.6c1 0 2-1.4 3.1-2.5zM318 446c0-2.3-.4-4 2.6-4h33.1v7.6c-8.9 1.2-11.7 4.4-11.7 13.5 0 10.6-.2 21.3 0 32 .4 14.4-8.3 24.8-21.6 28.7a61.9 61.9 0 0 1-36.7-1c-13.7-4.3-19.2-13.8-19.6-27.4-.4-11.3-.1-22.7-.1-34 0-9.1-1.6-10.9-10.8-11.7v-7.5h38.6v7.5l-2.7.3c-4.7.7-7 3.5-7.1 8.3 0 11.3.2 22.6 0 34-.3 11.4 7.6 21 20.5 21.5 6 .2 12.4-1 18.1-3 7.6-2.6 10.1-9.6 10.3-17.1.3-10.2-.3-20.4.2-30.5.5-8.5-2.3-12.9-12.8-13.4l-.3-3.9zM1471 473c0 7.3-.2 14.2 0 21 .6 17.3-11 28-26.5 31a64 64 0 0 1-31.5-2c-12.7-4-20-12-20-27.2v-34c0-8.8-1.7-11.7-10.8-12.2v-7.4h38.4v7.2c-9.1 2-10.6 4-10.6 13.7 0 8.5-.3 17 .1 25.5.3 4.7 1.3 9.6 3 14.1 2.4 6.6 8.3 9.4 14.7 10.6 10 1.7 20 2 27-7 2.8-3.5 4.6-8.6 5-13.2.7-9.6 0-19.3.3-29 .3-11-3.4-13.3-12.9-14.5v-7.4h35.6v7.5c-1.4.2-2.8.2-4.2.5-5 1.2-7.6 4.5-7.6 9.8v13zM673.3 509.3c-.1 6.7 5.1 6.8 9.5 8v7.5h-33.6v-7.5c8.2-1.3 12.2-6.8 15.4-14.2 7-16.2 14.6-32.1 22-48.2.4-.9 1-1.7 1.3-2.6 4.4-11.4 5.1-12 17-10.2 1.4.2 3 1.9 3.7 3.2l24.4 54.5 3 7.2c2.4 5.8 6.4 9.6 12.9 10.2v7.5h-38.6v-7.2l2.7-1c5.6-1.8 6.4-3.6 3.8-9.1-1.8-3.7-3.4-7.4-5.2-11.4-9.9 0-19.9-.1-29.8.1-1.3 0-3 1.5-3.7 2.7-1.8 3.3-3.1 6.8-4.8 10.5m15.6-35-5.7 12.6h24.7L702 473l-6.3-14c-2.3 5-4.5 9.8-6.8 15.2zM812.3 515.2C801.9 526 789 527 775.6 525.7c-6.5-.7-13-2.7-19.5-4v-23.4h7.5c1.2 6 1.5 12.2 7.9 15.7 8.4 4.6 21.3 3.5 26-1.9 4.1-4.8 3.6-12-2-15-6-3.5-13-5.8-19.1-9.2-5.3-3-11.4-6-15-10.6-9-11.8-6-31.3 14.1-35 10.2-1.8 21 0 31.4.2 1.8 0 3.5.5 5.7.8v20.4c-4.7.7-9.2 1.3-8.7-5.8 0-1-.9-2.1-1.6-3-4.9-6.6-22.4-7-27.1-.4-3.3 4.7-2.4 10.5 5.3 14.5 7.6 4 15.5 7.2 23.2 11 2.6 1.3 5.1 3 7.4 4.7 9.6 7.2 8.5 21 1.2 30.5zM1160.9 442.6c13.3-.3 26.4-.3 39.6-.3v21.4h-8a17.5 17.5 0 0 0-26.2-12.4c-6.4 3.5-7.3 11.6-1 15.5 7 4.5 15 7.6 22.5 11.2 7.4 3.5 14.9 7 17.2 16 3 11.6-4 23-12.6 27.4-12.7 6.5-25.6 5.2-38.7 2.5-3.2-.7-6.3-1.6-9.5-2.4v-23.2h7.5c.2 1.8.2 3.8.7 5.6 3.7 12.7 22.3 17.7 32.3 8.9 4.2-3.7 5-10.6.5-13.8-5.7-4-12.2-7-18.6-10-7.1-3.1-14.4-6.1-18.5-13-7-11.8-3.8-28 12.8-33.4zM1221.6 477.1c-4-6.5-4.7-13.3-3-20.1 2.5-9.7 12.8-15.9 23.4-15.9 10.5 0 21 .9 31.5 1.4v21.3h-8.4c.4-5.8-1.6-11-7.1-12.5-6.8-1.8-14.3-3.7-20.5 1.8-5.3 4.7-4.8 11.3 1.4 14.8 7 3.8 14.4 6.7 21.5 10.1 3.9 2 8 3.8 11.4 6.4 8.6 6.5 9 18.7 2.6 28.6-5.8 9-15 11.9-25 13-9.6 1-18.9-1.1-28.2-3.3l-4.6-1v-23.4h8c.3 2 .2 4.4.8 6.5 2.8 11.3 14.9 13.6 23.3 11.7 3.8-.8 8.2-2.9 10.7-5.8 4-4.7 1.5-11.5-4.7-14.7-6.2-3.1-12.8-5.4-18.9-8.8-5-2.7-9.3-6.5-14.2-10zM875 470c0 11.5.3 22.5 0 33.5-.4 12.2 2.2 11.7 11.8 13.9v7.4h-41.6v-7.5c.8 0 1.8 0 2.6-.3 6.2-1.7 9.4-1.6 9.3-10.5-.3-18.3-.1-36.6-.1-54.9-16-1.8-26.6 0-25.1 14h-8.4v-24h85.3v24.2h-7.4c-.6-13.7-6.2-13.4-16.3-14.7-3.1-.4-6.3-.1-10.1-.1v19zM429.7 452l-17.7-1.5v53c.2 11.9 2.5 11.5 11.8 14v7.1h-40.5v-7.3c2.3-.5 5.3-.3 7.2-1.7 2-1.5 4.3-4.4 4.3-6.7.3-19.1.2-38.2.2-57.3-18.1-1.5-25.8 0-26.4 14.2h-7.2v-24.2h85.4v24.1h-7.6c-.4-6.3-1.7-12-9.5-13.7zM556.7 590.2l18.3 19.4c0-10 .4-19-.1-27.8-.3-5.4-4.6-7-9.7-7V568h27.5v6.4c-8.5 1.7-9.7 3.2-9.7 12.5v45.4c-7.3 3-10.8-2.3-14.5-6.4-6.7-7.4-13.2-15.1-19.8-22.7L535 587.8V616c0 7.3 2.2 9.7 9.7 10.2v6.5h-26.4v-5.9c8.1-2.8 8.7-3.7 8.7-13v-27c0-8.7-2.8-11.6-11.7-12V568c6.6 0 13.4-.5 20 .3 2.6.3 5 3.5 7.1 5.7 4.8 5.2 9.4 10.6 14.3 16.2zM1245.8 603.5c5.7 10.6.4 21.5-8.1 26.5a33.6 33.6 0 0 1-29.7 1.4c-7.2-2.6-10.6-8.8-10.8-15.9a19.7 19.7 0 0 1 8.3-16.4l6.5-4.5c-8.3-5.2-14.4-11.3-14.1-21.9.1-6.6 3.2-11.6 8-15a30.1 30.1 0 0 1 31.5-.8c9.5 5.1 10 19.2 3 26.1-2.8 2.8-6 5.1-8.3 7.2 4.3 4.1 9 8.5 13.7 13.3m-35.8 5.4a11.8 11.8 0 0 0 3.6 14c4.7 4.1 10.3 4 15.7 1.9 5.1-2 7.3-8.4 4.4-13.2-1.8-3-4.4-5.7-7.3-7.6-9.3-6.6-10.8-6-16.4 4.9m14.5-23c6.3-2.6 9.8-7.8 9.5-14.2-.2-4.7-3.5-8.4-8.8-10-4.5-1.5-10.6.2-13.2 3.9-2.9 4-2.8 8.3 1 11.8a85 85 0 0 0 11.5 8.6zM818.2 625.7c-2.9-4-6.4-7.3-8-11.4-2.3-6.6-7.3-6.8-12.6-7.3-1.4 14-1.5 19 7.2 19.4v6.2h-29.4v-6c8.1-1.7 8.6-2.3 8.6-11.4v-30.5c0-6.1-1.8-10.4-9.7-9.8V569c14.8 0 29.7-.6 44.5.3 6 .4 11.4 5 12.8 11.9 1.2 6 .5 11.8-4.5 16.2l-7.8 6.7c6.7 8.2 11.2 19.3 23.6 22.5v6.1c-9 .7-18 1.6-24.7-7M803.3 575h-6v25.6c16 2 19.3-1.5 20.5-11.8.8-7.3-3.3-13.2-14.5-13.8zM750.8 605.3c-5.9-1.2-11.4-2.2-18.3-3.4.6 7 .9 12.7 1.6 18.3.2 1.3 1.5 3.2 2.8 3.6 6.9 2.4 14.2 3.2 21 .5 2.5-1 3.7-5.2 5.5-8l-1.2-1h6.5v17.5h-56.5v-6c7-1.8 7.8-2.8 7.8-10.5v-32c0-7.4-1.3-8.9-8.8-9.6v-6.5h53.6v16.6h-5.1c-2.1-8-4.1-9.7-13-9.7-4.3 0-8.8.5-13.4.8v19.6c13.3 1.4 19.5 1 18.8-7.2h6.6v23.4h-6.2l-1.7-6.4zM357.3 576.5c-.2 6.6-.2 12.7-.2 18.8 14.2 1.5 18.7 1.5 19.3-7.1h6.3v23.5h-6.1c-1.6-8.8-3.1-9.5-19-8.5-2.8 13-.3 20.7 7 21.8 16.6 2.3 22.2-.3 21.6-9.7h6.8v17.5h-56.8v-6c7-1.8 7.8-2.8 7.8-10.5v-32c0-7.4-1.3-8.8-8.8-9.6v-6.5h53.4v16.6l-4.9.2c-2.1-8.2-4-9.9-12.9-10-4.4 0-8.8.8-13.5 1.5zM500 611.6c-1.7 11.4-7.6 19-18.8 20.5-10.8 1.6-21.7 2.7-31.8-4-7.2-4.6-9-11.7-9.3-19.2-.4-8.7 0-17.4-.1-26 0-6.7-.8-7.5-7.8-8.1v-6.5h29.6v6c-7.6 2-7.8 2.3-7.8 10.7v21.5c0 9.6 4 15.1 13.3 17 7 1.6 17.6 1 21.7-7.1 1-2.2 1.8-4.9 2-7.4.2-8 0-16 0-24 0-8.2-1.4-9.7-9.7-10.2v-6.5h27.4v6.2c-7.7 1.1-8.7 2.3-8.7 10.1v27zM1097.1 525h-5.8v-7.5c1.6-.5 3.2-1.3 5-1.4 4.5-.4 5.6-3.5 5.7-7.1v-51c0-5.6-3-7.7-10.7-8.2v-7.5h39.5v7.3c-9.4 1-10.8 2.6-10.8 12.2v42.5c0 10.5.6 11.2 10.8 13.2v7.5h-33.7zM243.7 587.3c5 11.2 9.7 22 14.3 32.8 1.6 3.9 4.3 6.2 8.8 6v6.7h-29.6v-6.4c7-.9 7.2-2 5-8.8-2.3-6.7-6-8.8-12.7-7.7-2.9.5-6 0-9 .1-2.1.1-5.5-.1-6.2 1-2 3.4-3.6 7.4-4 11.3 0 1.5 3.7 3.3 6.5 4.2v6.2h-25.5v-6.4c5.9-.4 8.6-4.4 10.8-9.5 5.8-13.5 12-26.9 18-40.3l1.1-2.2c3-6.5 4.7-7.6 12-6.2 1.3.3 2.8 2 3.5 3.4 2.5 5 4.6 10.3 7 15.8m-22.8 8-3.6 7.3h18.2l-9-20.7c-1.9 4.5-3.7 8.5-5.6 13.4zM1610 525h-22.7v-7.5c9.2-2 10.7-3.9 10.7-13.4v-43.4c0-8.3-2.2-10.5-10.7-10.8v-7.6h38.4v7.1c-9.3 1.7-10.7 3.4-10.7 13.3V504c0 9.5 1.5 11.4 10.9 13.4v7.5H1610zM1081 570v4.7c-9.7.7-13 9.2-18.7 14.8-2.2 2.1-3.5 5.1-5.7 7.3-7.9 7.6-4.8 16.8-3.2 25.4.4 2.1 4.9 3.5 7.4 5.2l1-1v6.2h-31.6v-6c8.4-1.8 8.5-2.4 8.9-11 .3-6.7-.8-12.2-5.9-17.3-6-6-10.6-13.3-16.2-19.6-1.8-2-4.7-3.1-7.8-5v-5.5h32.6v6.4l-3 .4c-3 .5-3.8 2-1.8 4.4l11.3 14.6c3.3-4 6.5-7.4 9.3-11.2 1.2-1.7 2.1-4.1 2-6.2 0-.8-3-1.5-5.3-2.4V568h25.7c.3 0 .7 1 1 2zM1306 646c1.1-2 2.2-3.5 3-4.7 4.4 2 8.4 4.2 12.5 5.7 6.8 2.5 14.2-.7 16.8-6.8 2.7-6.1-.4-13.9-6.8-17-3.9-1.8-8-3.3-12.3-5.2l-.7-3.5 1.2 1.3c3.8-4.4 7.6-8.8 11.3-13.4 3.1-3.8 3-8.2 1-12.5-2.1-4.1-6-4-10-4-4.5.2-6 3.3-7 7-.3 1.2 0 2.5 0 3.8-9-.9-10.7-6.8-4.7-15.4 5-6.9 12.6-8 20.3-7.1 6.5.7 12.6 3.1 15.5 10 3.2 7.5-.4 17.8-8.5 23.6l-2.5 1.7c4.8 3.7 9.8 7.1 14 11.2 7.7 7.4 4.1 25-5.9 30.8-11.5 6.7-28.1 6.2-36.1-3-.5-.5-.7-1.3-1-2.4zM87.5 571.2c9-4.4 11.4-4.6 35.5-1.8v16.4h-6.7c-.9-10-11-14.8-19.5-9.7-4.2 2.5-5.4 7.6-1.4 10.5 5.3 3.8 11.6 6.3 17.4 9.4 5.7 3 11.8 5.2 13.4 13 2.2 11-6.1 23-17.6 24-4.8.3-9.7.3-14.5 0-4.9-.5-9.7-1.5-14.6-2.3v-18.4h6c1.5 14.3 11.6 15 20.9 13 4-1 5.8-3.5 6.6-7 .9-4.3-2-6.6-5-8.2-5.3-2.8-10.9-5.2-16.3-7.8-9.1-4.3-14-12-10.5-22.7 1-3 3.9-5.5 6.3-8.4zM888 628a30.1 30.1 0 0 1-24.4 5.3c-5-1-10-1.7-15.3-2.7v-18.4l5-.2c2.8 12 7.5 15.4 19.6 14 3.7-.6 7.4-2 8-6.6.9-5-1.2-8.2-6-10.4-6-2.7-12.2-5.3-18-8.6-7.5-4.6-10-11.8-7.8-20.5 1.4-5.8 7.9-11.3 15.3-11.8 8.7-.5 17.5-.1 26.4-.1v17.8h-5.4c-.6-1.8-1-3.9-1.9-5.7-1.4-3.4-3.9-5.2-7.6-5.1h-7c-3.3.2-5.8 1.2-7 4.9-1.2 3.6 0 6.3 2.6 8 4.5 2.7 9.5 4.7 14.2 7.1 3.4 1.7 7 3 9.9 5.2 9 7.4 8.8 18.9-.6 27.8zM700.5 576c-3.7 6.1-7.5 11.8-10.4 17.9-5.7 12.3-10.6 25-16.4 37.2-.8 1.7-5 1.8-8 2.7-5.1-11.5-10-22.2-14.7-33-2.8-6.5-5.5-13.1-8.4-19.6-1.9-4.2-4.2-5.6-9.5-6.7v-6.2h29.6v6.2c-6.6 1-6.7 1.3-4 7.7l13.5 32.4c5.2-11.6 10-22.4 14.6-33.3 1.3-3-1.6-5.8-6.7-6.8v-6.2h25.6v6.3c-1.6.3-3.2.8-5.2 1.4zM319 568h7.7v18.7h-5.2c-3-13.1-8.8-10.8-20.5-10.2 0 14.7-.2 29.5.1 44.3 0 5 4.3 5.4 8.6 5.2v6.7h-31.4v-6.2c8.2-1.2 8.7-1.8 8.7-10.3v-39.4c-14.7-2.4-19.6.2-19.1 9.9h-6.4V568H319zM997.4 582.9c-1.1-4.7-4-6.7-8.3-6.9H978v41.4c0 6.7 1.5 8.3 8.7 8.7v6.6h-31.4v-6.2c8.3-1.2 9.7-3 9.7-11.8v-38c-13-1.9-20-1.2-20.2 10h-5.5v-18.5h64.5v18.6h-5.4l-1-4zM160 633h-11.7v-6.5c7.7-1.3 8.7-2.4 8.7-10.5v-39.4c-16.2-1.7-18.2-.6-20.5 10.2h-5.2v-18.5h64.4v18.4h-5.2c-1.5-10-4.5-11.5-20.5-10.4v41.2c0 6.6 1.5 8.2 8.7 8.6v6.9H160z"/><path fill="#C8102E" d="M481.6 397H380.4v-27l105.2 25.8v1.2h-4zM1278 588H1252l-1.5-12.6h52.2c-1 3.9-1.3 7.7-3 10.8-10.6 19.5-21.6 38.7-32.5 58.1l-8 14.8-8-3.9L1289 588h-11zM620 584.2v34c0 6.6.8 7.4 7.8 8v6.5h-29.6v-6.3c6.6-.8 7.8-2.2 7.8-8.8V583c0-6.4-1.3-7.8-7.8-8.4v-6.5h29.6v6c-7.8 2.2-7.8 2.2-7.8 10zM926.8 625.4l5 .9v6.7h-29.5v-6.5c7.2-1 7.7-1.6 7.7-9V584c0-8-.3-8.3-7.8-9.5v-6.2h29.5v6.1c-7.5 1.5-7.7 1.7-7.7 9.5 0 11.6-.1 23.3.1 34.9 0 2.1 1.6 4.2 2.7 6.6zM1165 589.4c.3-5-2.7-7-6.6-7.3-3.3-.3-3.8-2-3-5l23.6-4.5v45c0 7.2 1 8.2 8.7 8.5v6.6h-31.4v-6.1c8.7-1.7 8.7-1.7 8.7-10.8v-26.4zM1366 568a21.8 21.8 0 0 1 21-18c4 0 8-.5 11.8.5a21.5 21.5 0 0 1 16.5 17c4.7 20.3-10.8 34-29.9 31-15.2-2.5-21.5-14.8-20.4-27.3.1-.9.6-1.8 1-3.1m40.6 20.5c5.5-5.4 7-15.1 3.5-23-4.6-10.8-16.2-15.2-28-11.2-9.7 3.3-14.7 15.6-11.6 26.6 3.2 12 16.5 16 26.6 13.3 3.6-1 8-1.5 8.9-6.3l.6.6zM1111.6 608c-4.6.4-8.4-1.3-9.4-5.2-1-3.8-1-8.3 4-10.5 4.3-2 8.9-1 11.5 3 2.5 3.7 1.4 8-2.7 11.1-.9.7-2 1-3.4 1.6z"/><path fill="#FFF" d="M512.3 253.8c-5-6-10.9-10.1-18.4-10.7-10.4-.8-17.8 4.1-22.9 13l-2 3.8c-3.3 6.8-3.6 7.5-10.8 5-12-4.4-24.2-4-36.5-3.9H408c-2-17-8.7-31.2-24.1-40-10-5.7-21-7.5-31.8-5.8-26.3 4.3-39.3 22.7-41.3 45.4-16.4 2-33.3-2.4-49.8 3.3v-30c-7 2.3-13.8 3.8-20 6.7-5.7 2.7-11.3 3-17.3 2.4-7.9-.7-14 3.2-18 9.1a23 23 0 0 1-14.6 10c1.4-2.4 2.4-5.2 4.3-7a129.5 129.5 0 0 1 37.9-24.6 331.7 331.7 0 0 1 43.6-14.7c13.1-3.4 26.8-5.5 40.4-6.6 19-1.5 38.3-2.2 57.5-2 13.2.2 26.4 2.3 39.6 3.8 16.1 1.8 31.8 5.8 47.2 11a177.6 177.6 0 0 1 53.2 27.6c5.7 4.4 11 9.4 9.2 18.2-.8 4.3 0 9-.2 13.5 0 .9-.8 1.8-1.2 2.7-.6-1-1.6-1.9-1.6-2.9a51 51 0 0 0-8.8-27.3zM409.3 164.6l13 37.6c-42.6-5.8-83.7-6-125.7-.3 1.7-6.2 3-12.1 5-17.8 6.2-19 13.2-37.6 25.4-53.8 7-9.4 14.8-17.7 26.8-20.7 9-2.2 16.8 1 23.6 6.4 15.7 12.6 24.8 29.8 31.9 48.6z"/><path fill="#FFF" d="M302 269h17a43.9 43.9 0 0 1 12.7-34.8c8.2-7.9 18.6-12 30.3-11.1 11.4.9 21 6 28.3 14.8 6.2 7.4 7 11 9.1 31h37.4v46.2l-34-8.2c-14.2-3.5-28.2-7.8-42.5-10.4-5-1-10.7 1.6-16 2.9-21 5.1-41.8 10.4-62.7 15.6h-2.3v-46H302m79.2-3h-16.7l13.7 14.1 5.5-11c3.1 5.3-5 10.9-.9 17.3a32.7 32.7 0 0 0-.7-46.6 32.5 32.5 0 0 0-46.3.5c2.8.1 4.5.5 6.1.2 4.8-.7 9.5-1.7 14.3-2.5 3.7-.6 5 1 4.9 4.8-.3 5-.1 10-.1 15.7 4.6-4.9 8.6-9 12.2-13l5.4 3.9-14 12.8H385a12.3 12.3 0 0 1-3.8 3.8m-32.6-25.1-6 3.6 1.7-.5 12.5 12.8v-18.1c-2.7.6-5.2 1.1-8.2 2.2m-14.6 18c.7 1 1.3 3 2 3 5.8.2 11.7 0 16.9 0l-14.1-14.2-4.8 11.2m12 26.7 10.6 3.9V271l-13.2 12.7 2.7 1.9M350 266H333l5.7 13.6 13.6-13.6H350m23.5 15-12.3-12.3v20.5c3.4-1.1 6.6-1.8 9.4-3.3 1.5-.7 2.3-2.9 2.9-5z"/><path fill="#FFF" d="m544.4 373.7-93.2-23-81.9-20.6c-9.3-2.3-9.3-2.2-9.3-11.5v-12.8l30.6 7.5L499 340c17.7 4.4 35.5 8.6 53.2 13.1 1.1.3 2.6 2 2.7 3.2.2 6.4.1 13 .1 19.7-3.7-.7-7-1.4-10.6-2.3zM529 324v14c-27.8-7-55.3-13.7-82.9-20.5v-46.4l25 7c3-7 4.6-13.6 8-19 5.4-8.4 18.1-13 26.4-.1a42 42 0 0 1 7 29.1c0 .9 1.1 2.5 2 2.8 3.4 1.2 6.8 2.4 10.3 3 3.2.5 4.4 1.8 4.3 5.1-.3 8.2-.1 16.3-.1 25m-37.3-35.8c-.6.9-1.6 1.7-1.6 2.6-.2 3.6-.1 7.2-.1 10.8h-1.6v-14.2l-1.4-.2-8 9.2c1.5 2.6 2.6 5 4.2 7 4.5 6 12.6 8.4 19.3.8 8.7-9.7 8.3-31.7.8-42.3-3-4.4-7.4-6.8-13.1-6-4.2.7-10 6.1-8.7 9 1.7 4 3.9 7.7 5.9 11.6l1.2-.3v-13.1h1.5V278l1.2.3 6.2-7.1 1.3.7c-.5 4.2-4.9 6.3-6.5 10 9 3.8 9 3.8 9.3 6.2l-9.2-3c.3 1.1.5 2 .3 3.3-.1.1-.2.3-1 0m-6.4-5.5-8.8-3.2 1.7 12.5 1.6.3c2-3.1 4.1-6.3 5.5-9.6m-7.3-12-1 5.8 10.5 3.8c-3-5-5.3-9.2-7.8-13.7l-1.7 4.2zM389 114c9 4 18.3 7.4 26.9 12.1a156.2 156.2 0 0 1 41.6 35.1 174.3 174.3 0 0 1 36.2 63.7c-7.8-3.3-15.3-7-23-9.5-10.6-3.6-21.4-6.3-32.1-9.4-2.4-.7-4.1-1.2-5-4.6a222.8 222.8 0 0 0-33.6-73.2c-3.4-4.7-7.5-8.7-11.3-13.5.1-.5.2-.7.4-.8zM213.8 255.7c8.3-7.6 18.6-5.2 24.3 6 2.5 5 4 10.7 6 16.3l25.6-7v46.8l-40.8 9.9v-15.8c-6 2-11.3 1.1-15.8-3.2a30.1 30.1 0 0 1-9-21.5 42 42 0 0 1 6-27.1c1-1.5 2.2-2.8 3.7-4.4M238 292l-7.2-8 8.3-2.4-.4-5.8-7.4 2.2c1.4-2.2 2.4-3.5 3.2-5 1-1.7 2.3-3.5 2.3-5.3 0-3.7-6.3-10.7-9.8-11.5a14.2 14.2 0 0 0-13.9 5.5c-7.6 12-8 25-2.7 37.7 2 4.7 5.4 9.8 12 9.7 6.2-.2 10.2-3.7 12.6-9.2 1-2.4 2-4.8 3-7.9zM291 358l-52.7 13-55.5 13.6-13.6 2.9V382l183.6-45.5v6.2L291 358zM242 217c-5.8 2.3-11 4.6-16.7 7 0-4.8 2.4-7.4 6.5-9 13.5-4.9 27-9.7 40.5-14.8a6.8 6.8 0 0 0 3.6-3.6c7-21.1 17.3-40.6 30.5-58.4 3.5-4.6 7.8-8.6 12-12.5-7 12.7-14.6 25.1-20.6 38.3-5.9 13-10 26.8-14.8 39.7L242 217zM321.7 122.2c.5-.3.8-.2 1.2 0-.4 0-.8.2-1.2 0z"/><path fill="#FFF" d="M388.5 114.5c-.5-.4-.8-.8-1-1.3.4 0 .9.1 1.5.4 0 .4-.2.6-.5.9zM1520 472v-20.6c9.1-2 17.5-2.1 24.3 5.4 3.2 3.5 3.9 14 1.3 19.1-3.3 6.4-7.7 8.8-14.6 8.2-3.5-.3-7 0-11 0V472zM1308.7 468.8a25.4 25.4 0 0 1 24.8-19.6c11.8-.3 20.4 5.3 24.5 17.7a48 48 0 0 1-2.1 38.3c-4 7.6-10.4 11.4-19.4 12-19.3 1.2-27.7-13-29.7-27a54 54 0 0 1 1.9-21.4zM179 486c-.4-9.5.7-18.1 6-25.8 5.8-8.5 14.3-12 24-11 10.4 1 17.5 7 21 17 4.4 12 4 24 0 36-3 8.3-12.2 14-20.6 15-20.4 2-30.5-15.3-30.4-31.3zM689 474l6.7-14.9 6.3 14L708 487h-24.7l5.8-13zM1210.2 608.5c5.4-10.6 6.9-11 16.2-4.5 2.9 2 5.5 4.7 7.3 7.6 3 4.8.7 11.2-4.4 13.2-5.4 2.1-11 2.2-15.7-1.8-4.3-3.8-5.7-8.6-3.4-14.5zM1224.1 586c-4-2.9-7.8-5.5-11.2-8.6-3.7-3.5-3.8-7.7-.9-11.8 2.6-3.7 8.7-5.4 13.2-4 5.3 1.7 8.6 5.4 8.8 10.1.3 6.4-3.2 11.6-9.9 14.3zM803.8 575c10.7.6 14.8 6.5 14 13.8-1.2 10.3-4.6 13.8-20.6 11.8V575h6.6zM221 594.9c1.8-4.5 3.6-8.5 5.6-13l8.9 20.7h-18.2l3.7-7.7zM1406 588c-1 4.8-5.3 5.3-8.9 6.3-10 2.8-23.4-1.3-26.6-13.3-3-11 2-23.3 11.7-26.6 11.7-4 23.3.4 28 11.1 3.4 8 1.9 17.7-4 22.5-.6-1.7-.8-3-1.5-3.7l-9-7.4 3-3c5.5-5.9 4.3-11.4-3.6-13-5.7-1.3-11.8-.9-19-1.2 6.8 9.8 7.4 18.9.8 28.1h15.3c-3.6-3.3-7.4-6-4.3-11.3 1.1 1 2.4 1.8 3.2 3 3.8 5 7.1 10.6 15 8.4z"/><path fill="#C8102E" d="M381.7 266c1.2-1 2-2 3.3-3.8h-20.3l14-12.8-5.5-3.9c-3.6 4-7.6 8.1-12.2 13 0-5.7-.2-10.7 0-15.7.3-3.8-1.1-5.4-4.8-4.8-4.8.8-9.5 1.8-14.3 2.5-1.6.3-3.3 0-6-.2a32.5 32.5 0 0 1 46.2-.5 32.7 32.7 0 0 1 .7 46.6c-4.1-6.4 4-12 1-17.3l-5.6 11-13.7-14.1h17.2z"/><path fill="#C8102E" d="M348.9 240.6a108 108 0 0 1 8-1.9v18.1L344.2 244l-1.7.5 6.3-3.9zM334.2 258.5c1.6-3.8 3-7.3 4.6-10.8l14 14.3-16.9-.1c-.6 0-1.2-2-1.7-3.4zM345.8 285.3c-1-.8-1.9-1.3-2.4-1.6l13.2-12.7v18.5c-3.6-1.4-7-2.6-10.8-4.2zM350.4 266h2l-13.6 13.6-5.7-13.6h17.3zM373.7 281.2c-.8 1.8-1.6 4-3.1 4.7-2.8 1.5-6 2.2-9.4 3.3v-20.5l12.5 12.5zM493 288l-.6-3 9.2 3c-.2-2.4-.2-2.4-9.3-6.3 1.6-3.6 6-5.7 6.5-9.9l-1.3-.7-6.2 7.1-1.2-.3v-14.8h-1.5v13.1l-1.2.3c-2-3.9-4.2-7.6-5.9-11.6-1.2-2.9 4.5-8.3 8.7-9 5.7-.8 10 1.6 13.1 6 7.5 10.6 8 32.6-.8 42.3-6.7 7.6-14.8 5.2-19.3-.8-1.6-2-2.7-4.4-4.2-7l8-9.2 1.4.2v14.3l1.6-.1v-10.8c.1-.9 1.1-1.7 2.2-2 2 3 3.3 5.7 4.8 8.6.3.6.7.8 1 1l-.5-2.3-4.4-8.2z"/><path fill="#C8102E" d="M485.6 282.9c-1.7 3.2-3.7 6.4-5.8 9.5l-1.6-.3-1.7-12.5 9.1 3.3zM478.2 270.5l1.5-3.8 7.8 13.7-10.5-3.8 1.2-6zM238 292.3l-3 7.5c-2.4 5.5-6.4 9-12.7 9.2-6.5.1-10-5-11.9-9.7a39.3 39.3 0 0 1 2.7-37.7c2.7-4.2 9.3-6.7 14-5.5 3.4.8 9.7 7.8 9.7 11.5 0 1.8-1.4 3.6-2.3 5.3-.8 1.5-1.8 2.8-3.2 5l7.4-2.2.4 5.8-8.3 2.4c2.6 3 4.9 5.5 7.2 8.4m-15 .3-3.5 7.9 5.5 1.8v-9.8c0-.2-1-.3-2 .1m-2-11.6.5-.2v-.3c-1.5-2-3-3.8-5-6l-2.3 9c2.4-1 4.3-1.6 6.8-2.5m-6.5 10 2.1 5.6 5.2-10.2c-3.5 1.7-5.6 2.8-7.3 4.6m14.6-.4v9.3l4.9-4.2c-1.6-2-2.9-3.6-4.9-5m-.1-25v6.7l.8.1 3.5-7.6-.7-1.3c-1.2.4-2.4.9-3.6 2.2m-7 6.8 1.6 1.9v-9.4l-4.8 4.4 3.3 3.1zM1406 588c-7.8 2-11.1-3.6-14.9-8.6-.8-1-2-1.9-3.2-2.9-3 5.3.7 8 4.3 11.3H1377c6.6-9.2 6-18.3-.7-28.1 7.1.3 13.2-.1 19 1.1 7.8 1.7 9 7.2 3.5 13l-3 3.1 9 7.4c.7.7.9 2 1.3 3.4v.3m-19-23.1V575c3-1.4 5.4-2 6.9-3.5 1-1.1 1.3-4.7.6-5.2-2-1.3-4.6-1.6-7.4-1.5z"/><path fill="#FFF" d="M497 297c-1.5-2.5-2.8-5.1-4.4-8-.1-.4 0-.6.3-.9 1.6 2.5 3 5.1 4.4 8.2-.1.5-.2.7-.4.8z"/><path fill="#FFF" d="M497.5 296.5c.3.6.4 1.3.5 2-.3-.3-.7-.5-1-1.1 0-.4.2-.6.5-.9zM223.3 292.3c.7-.1 1.6 0 1.6.2v9.8l-5.4-1.8 3.8-8.2zM220.7 281l-6.5 2.5 2.3-9c2 2.2 3.5 4 5 6v.3l-.8.3zM214.3 290.6c1.9-1.4 4-2.5 7.5-4.2l-5.2 10.2-2.3-6zM229.5 290.5c1.6 1.6 3 3.2 4.5 5.2l-4.9 4.2c0-3.3 0-6.3.4-9.4zM229 265.4c1.2-1 2.4-1.4 3.6-1.8l.7 1.3-3.5 7.6-.8-.1v-7zM221.8 272.4l-3-2.9 4.8-4.4v9.4l-1.8-2.1zM1387.3 564.5c2.6.3 5.3.6 7.2 1.9.7.5.4 4.1-.6 5.2-1.5 1.6-4 2.1-6.8 3.5 0-4.4 0-7.3.2-10.6z"/></svg>